<svg width="80" height="52" viewBox="0 0 80 52" fill="none" xmlns="http://www.w3.org/2000/svg">
<rect width="80" height="52" fill="#808C98"/>
<path d="M50.3125 18.5625H29.6875C29.5217 18.5625 29.3628 18.6283 29.2456 18.7456C29.1283 18.8628 29.0625 19.0217 29.0625 19.1875C29.0625 19.3533 29.1283 19.5122 29.2456 19.6294C29.3628 19.7467 29.5217 19.8125 29.6875 19.8125H50.3125C50.4783 19.8125 50.6372 19.7467 50.7544 19.6294C50.8717 19.5122 50.9375 19.3533 50.9375 19.1875C50.9375 19.0217 50.8717 18.8628 50.7544 18.7456C50.6372 18.6283 50.4783 18.5625 50.3125 18.5625ZM50.9375 22.3125C50.9375 22.1468 50.8716 21.9878 50.7544 21.8706C50.6372 21.7534 50.4783 21.6875 50.3125 21.6875H29.6875C29.5217 21.6875 29.3628 21.7534 29.2456 21.8706C29.1283 21.9878 29.0625 22.1468 29.0625 22.3125C29.0625 22.4783 29.1283 22.6373 29.2456 22.7545C29.3628 22.8717 29.5217 22.9375 29.6875 22.9375H50.3125C50.4783 22.9375 50.6372 22.8717 50.7544 22.7545C50.8716 22.6373 50.9375 22.4783 50.9375 22.3125ZM39.0625 25.4376C39.0625 25.2718 38.9966 25.1128 38.8794 24.9956C38.7622 24.8784 38.6033 24.8126 38.4375 24.8126H29.6875C29.5217 24.8126 29.3628 24.8784 29.2456 24.9956C29.1283 25.1128 29.0625 25.2718 29.0625 25.4376C29.0625 25.6033 29.1283 25.7623 29.2456 25.8795C29.3628 25.9967 29.5217 26.0626 29.6875 26.0626H38.4375C38.6033 26.0626 38.7622 25.9967 38.8794 25.8795C38.9966 25.7623 39.0625 25.6033 39.0625 25.4376ZM29.0625 31.3751C29.0625 31.8696 29.2091 32.3529 29.4838 32.764C29.7585 33.1752 30.149 33.4956 30.6058 33.6848C31.0626 33.874 31.5653 33.9235 32.0502 33.8271C32.5352 33.7306 32.9806 33.4925 33.3303 33.1429C33.6799 32.7932 33.918 32.3478 34.0145 31.8628C34.1109 31.3779 34.0614 30.8752 33.8722 30.4184C33.683 29.9616 33.3625 29.5711 32.9514 29.2964C32.5403 29.0217 32.057 28.8751 31.5625 28.8751C30.8997 28.8758 30.2642 29.1395 29.7956 29.6082C29.3269 30.0768 29.0632 30.7123 29.0625 31.3751ZM32.8125 31.3751C32.8125 31.6223 32.7392 31.864 32.6018 32.0696C32.4645 32.2751 32.2693 32.4354 32.0409 32.53C31.8124 32.6246 31.5611 32.6493 31.3186 32.6011C31.0762 32.5529 30.8534 32.4338 30.6786 32.259C30.5038 32.0842 30.3847 31.8615 30.3365 31.619C30.2883 31.3765 30.313 31.1252 30.4077 30.8968C30.5023 30.6684 30.6625 30.4731 30.868 30.3358C31.0736 30.1984 31.3153 30.1251 31.5625 30.1251C31.894 30.1251 32.212 30.2568 32.4464 30.4912C32.6808 30.7257 32.8125 31.0436 32.8125 31.3751Z" fill="white"/>
<path d="M58.125 10.125H21.875C21.3779 10.1255 20.9013 10.3233 20.5498 10.6748C20.1983 11.0263 20.0005 11.5029 20 12V37.6253C20.0005 38.1224 20.1983 38.599 20.5498 38.9505C20.9013 39.302 21.3779 39.4997 21.875 39.5003H40.8119L41.7042 38.2503H21.875C21.7093 38.25 21.5505 38.1841 21.4333 38.067C21.3161 37.9498 21.2502 37.791 21.25 37.6253V12C21.2502 11.8343 21.3161 11.6755 21.4333 11.5583C21.5505 11.4411 21.7093 11.3752 21.875 11.375H58.125C58.2907 11.3752 58.4495 11.4411 58.5667 11.5583C58.6839 11.6755 58.7498 11.8343 58.75 12V37.6253C58.7498 37.7909 58.6839 37.9498 58.5667 38.067C58.4495 38.1841 58.2907 38.25 58.125 38.2503H53.921L54.8134 39.5003H58.125C58.6221 39.4997 59.0987 39.302 59.4502 38.9505C59.8017 38.599 59.9995 38.1223 60 37.6252V12C59.9995 11.5029 59.8017 11.0263 59.4502 10.6748C59.0987 10.3233 58.6221 10.1255 58.125 10.125Z" fill="white"/>
<path d="M45.9087 40.5432L44.8172 42.053L44.6933 41.4417C44.6663 41.2305 44.5595 41.0377 44.3948 40.9028C44.3042 40.8288 44.1995 40.7741 44.0871 40.742C43.9746 40.71 43.8568 40.7012 43.7408 40.7163L42.9589 40.7951L44.1492 39.1276C43.7273 39.0424 43.329 38.8662 42.9822 38.6113L41.4102 40.8134C41.3136 40.9447 41.2583 41.1019 41.2512 41.2648C41.2442 41.4278 41.2859 41.5891 41.3708 41.7283C41.457 41.8689 41.5823 41.9814 41.7313 42.0522C41.8803 42.1229 42.0466 42.1489 42.2101 42.1268L43.5296 41.9938L43.7622 43.141C43.7815 43.3023 43.8478 43.4544 43.9529 43.5783C44.058 43.7022 44.1973 43.7924 44.3533 43.8377C44.4346 43.8623 44.5192 43.8749 44.6042 43.8749C44.7386 43.875 44.8712 43.8434 44.9911 43.7828C45.1111 43.7221 45.2151 43.6341 45.2948 43.5258L47.5437 40.415C47.2158 40.5481 46.866 40.619 46.5121 40.6242C46.3083 40.6236 46.1055 40.5964 45.9087 40.5432ZM52.6427 38.6112C52.2959 38.8662 51.8976 39.0423 51.4756 39.1275L52.666 40.7951L51.8841 40.7163C51.7682 40.7012 51.6503 40.7099 51.5379 40.742C51.4254 40.774 51.3207 40.8288 51.2301 40.9028C51.0654 41.0377 50.9586 41.2305 50.9317 41.4417L50.8078 42.0527L49.7141 40.5401C49.17 40.6749 48.5969 40.6304 48.0801 40.4134L50.3332 43.5301C50.4128 43.6374 50.5164 43.7245 50.6358 43.7844C50.7551 43.8443 50.8869 43.8753 51.0205 43.8749C51.1056 43.8749 51.1902 43.8623 51.2716 43.8377C51.4277 43.7924 51.5669 43.7022 51.672 43.5783C51.7772 43.4544 51.8435 43.3023 51.8628 43.141L52.0953 41.9938L53.4149 42.1269C53.5784 42.149 53.7448 42.1231 53.8938 42.0524C54.0428 41.9816 54.168 41.869 54.2541 41.7283C54.3388 41.5903 54.3806 41.4302 54.3744 41.2684C54.3681 41.1066 54.3141 40.9503 54.219 40.8192L52.6427 38.6112ZM49.4546 39.3195C49.8647 39.141 50.1885 38.8089 50.3567 38.3945C50.4142 38.275 50.4848 38.1623 50.5673 38.0585C50.6941 38.0097 50.8261 37.9757 50.9607 37.9572C51.1833 37.9629 51.4041 37.9145 51.6039 37.8161C51.8037 37.7177 51.9767 37.5723 52.108 37.3924C52.2393 37.2124 52.325 37.0033 52.3577 36.783C52.3904 36.5627 52.3692 36.3377 52.2958 36.1274C52.2716 35.992 52.2632 35.8542 52.2708 35.7169C52.3426 35.6089 52.4261 35.5093 52.5198 35.4196C52.8651 35.1293 53.0825 34.7149 53.125 34.2658C53.0825 33.8166 52.8651 33.4022 52.5198 33.1119C52.4268 33.0228 52.3436 32.9239 52.2717 32.8171C52.2632 32.679 52.2713 32.5404 52.2958 32.4042C52.4031 31.9756 52.3364 31.5221 52.1103 31.1426C51.8172 30.8087 51.4039 30.6044 50.9607 30.5743C50.8268 30.5558 50.6955 30.5222 50.5691 30.4742C50.4857 30.3701 50.4143 30.2569 50.3564 30.1367C50.1884 29.7223 49.8645 29.3903 49.4543 29.212C49.0274 29.1161 48.5798 29.1926 48.2089 29.4247C48.0837 29.4923 47.9505 29.5439 47.8125 29.5782C47.6744 29.5439 47.5412 29.4923 47.4161 29.4247C47.0449 29.1927 46.5974 29.1163 46.1703 29.212C45.7603 29.3906 45.4364 29.7226 45.2682 30.137C45.2108 30.2565 45.1402 30.3692 45.0577 30.473C44.9309 30.5218 44.7989 30.5558 44.6643 30.5743C44.2211 30.6043 43.8078 30.8085 43.5147 31.1423C43.2886 31.5219 43.2219 31.9755 43.3291 32.4042C43.3533 32.5396 43.3617 32.6773 43.3542 32.8146C43.2824 32.9226 43.1988 33.0223 43.1051 33.1119C42.7598 33.4022 42.5425 33.8166 42.5 34.2658C42.5425 34.7149 42.7598 35.1293 43.1051 35.4197C43.1981 35.5088 43.2813 35.6076 43.3532 35.7145C43.3617 35.8526 43.3536 35.9912 43.3291 36.1274C43.2558 36.3377 43.2346 36.5626 43.2674 36.7829C43.3001 37.0032 43.3858 37.2123 43.5171 37.3922C43.6484 37.5722 43.8213 37.7176 44.0211 37.816C44.2209 37.9144 44.4416 37.9628 44.6643 37.9572C44.7981 37.9758 44.9295 38.0094 45.0558 38.0573C45.1393 38.1614 45.2106 38.2746 45.2685 38.3948C45.4366 38.8093 45.7605 39.1413 46.1706 39.3195C46.2818 39.3556 46.398 39.3738 46.5149 39.3735C46.8313 39.3524 47.1391 39.2613 47.416 39.1068C47.5412 39.0392 47.6744 38.9876 47.8125 38.9533C47.9505 38.9876 48.0837 39.0392 48.2089 39.1068C48.58 39.3388 49.0276 39.4152 49.4546 39.3195ZM46.8826 37.9764C46.7774 38.0293 46.6688 38.0753 46.5576 38.1141C46.4866 38.0131 46.4227 37.9072 46.3666 37.7973C46.2508 37.4961 46.0502 37.2349 45.7891 37.0453C45.528 36.8557 45.2176 36.7458 44.8953 36.7289C44.7746 36.7092 44.6554 36.6813 44.5386 36.6452C44.5405 36.5246 44.5507 36.4043 44.5691 36.2851C44.6319 35.9682 44.6228 35.6413 44.5422 35.3284C44.4258 35.0353 44.2444 34.7723 44.0118 34.5593C43.9203 34.4685 43.8363 34.3703 43.7607 34.2658C43.8363 34.1612 43.9203 34.063 44.0118 33.9722C44.2444 33.7592 44.4258 33.4962 44.5422 33.2031C44.6228 32.8901 44.6319 32.5631 44.5691 32.2461C44.5508 32.1269 44.5406 32.0065 44.5386 31.886C44.6555 31.8502 44.7747 31.8223 44.8953 31.8026C45.2176 31.786 45.5282 31.6762 45.7894 31.4866C46.0505 31.2969 46.251 31.0356 46.3666 30.7342C46.4227 30.6242 46.4865 30.5184 46.5576 30.4174C46.6688 30.4562 46.7774 30.5022 46.8826 30.5551C47.16 30.7334 47.4827 30.8282 47.8125 30.8282C48.1422 30.8282 48.465 30.7334 48.7423 30.5551C48.8476 30.5022 48.9561 30.4562 49.0673 30.4174C49.1384 30.5184 49.2022 30.6243 49.2584 30.7342C49.3742 31.0354 49.5747 31.2966 49.8358 31.4862C50.0969 31.6758 50.4074 31.7857 50.7296 31.8026C50.8503 31.8223 50.9695 31.8502 51.0864 31.8863C51.0845 32.0069 51.0743 32.1272 51.0559 32.2464C50.993 32.5633 51.0022 32.8902 51.0827 33.2031C51.1992 33.4962 51.3805 33.7592 51.6131 33.9722C51.7047 34.063 51.7887 34.1612 51.8643 34.2658C51.7887 34.3703 51.7047 34.4685 51.6131 34.5593C51.3805 34.7723 51.1992 35.0353 51.0827 35.3284C51.0022 35.6414 50.993 35.9684 51.0559 36.2854C51.0741 36.4046 51.0843 36.525 51.0864 36.6455C50.9695 36.6813 50.8503 36.7092 50.7296 36.7289C50.4073 36.7455 50.0967 36.8553 49.8356 37.0449C49.5744 37.2346 49.3739 37.4959 49.2584 37.7973C49.2023 37.9073 49.1384 38.0131 49.0673 38.1141C48.9561 38.0753 48.8476 38.0293 48.7423 37.9764C48.465 37.7981 48.1422 37.7033 47.8125 37.7033C47.4827 37.7033 47.16 37.7981 46.8826 37.9764Z" fill="white"/>
<path d="M50 34.2659C50 33.8332 49.8717 33.4103 49.6313 33.0505C49.391 32.6908 49.0493 32.4104 48.6496 32.2449C48.2499 32.0793 47.8101 32.036 47.3857 32.1204C46.9614 32.2048 46.5716 32.4132 46.2657 32.7191C45.9598 33.025 45.7514 33.4148 45.667 33.8391C45.5826 34.2634 45.6259 34.7033 45.7915 35.103C45.9571 35.5027 46.2375 35.8443 46.5972 36.0847C46.9569 36.3251 47.3799 36.4534 47.8125 36.4534C48.3924 36.4527 48.9484 36.222 49.3585 35.8119C49.7686 35.4018 49.9993 34.8458 50 34.2659ZM47.8125 35.2034C47.6271 35.2034 47.4458 35.1484 47.2917 35.0454C47.1375 34.9423 47.0173 34.7959 46.9464 34.6246C46.8754 34.4533 46.8568 34.2648 46.893 34.083C46.9292 33.9011 47.0185 33.7341 47.1496 33.6029C47.2807 33.4718 47.4477 33.3825 47.6296 33.3464C47.8115 33.3102 48 33.3288 48.1713 33.3997C48.3426 33.4707 48.489 33.5908 48.592 33.745C48.695 33.8992 48.75 34.0804 48.75 34.2659C48.7497 34.5144 48.6509 34.7527 48.4751 34.9285C48.2994 35.1042 48.0611 35.2031 47.8125 35.2034Z" fill="white"/>
<path d="M56.25 37.0002C56.5814 36.9999 56.8992 36.8681 57.1335 36.6337C57.3679 36.3994 57.4997 36.0816 57.5 35.7502V13.875C57.4997 13.5436 57.3679 13.2258 57.1335 12.9915C56.8992 12.7571 56.5814 12.6253 56.25 12.625H23.75C23.4186 12.6253 23.1008 12.7571 22.8665 12.9915C22.6321 13.2258 22.5003 13.5436 22.5 13.875V35.7502C22.5003 36.0816 22.6321 36.3994 22.8665 36.6337C23.1008 36.8681 23.4186 36.9999 23.75 37.0002H42.0648C42.0316 36.7147 42.0327 36.4263 42.0682 36.1411C41.9545 36.0173 41.8483 35.8868 41.7503 35.7502H23.75V18.7432L28.5669 13.9263C28.5818 13.9099 28.5957 13.8928 28.6088 13.875H51.3912C51.4042 13.8928 51.4182 13.9099 51.4331 13.9263L56.2502 18.7434L56.2509 35.7502H53.8746C53.7766 35.8867 53.6705 36.0173 53.5568 36.1411C53.5923 36.4263 53.5934 36.7147 53.5602 37.0002L56.25 37.0002ZM23.75 16.9756V13.875H26.8506L23.75 16.9756ZM53.1494 13.875H56.25L56.2501 16.9757L53.1494 13.875Z" fill="white"/>
</svg>
