<svg width="913" height="17" viewBox="0 0 913 17" fill="none" xmlns="http://www.w3.org/2000/svg">
<path d="M0 4.49999C0 3.97999 0.0399999 3.50333 0.12 3.06999C0.2 2.62999 0.333333 2.25333 0.52 1.93999C0.706666 1.61999 0.966667 1.37333 1.3 1.19999C1.63333 1.01999 2.05 0.929993 2.55 0.929993C3.05667 0.929993 3.47333 1.01999 3.8 1.19999C4.12667 1.37333 4.38333 1.61999 4.57 1.93999C4.76333 2.25333 4.89667 2.62999 4.97 3.06999C5.05 3.50333 5.09 3.97999 5.09 4.49999C5.09 5.02666 5.05 5.50999 4.97 5.94999C4.89667 6.38333 4.76333 6.75999 4.57 7.07999C4.38333 7.39333 4.12667 7.63666 3.8 7.80999C3.47333 7.98333 3.05667 8.06999 2.55 8.06999C2.05 8.06999 1.63333 7.98333 1.3 7.80999C0.966667 7.63666 0.706666 7.39333 0.52 7.07999C0.333333 6.75999 0.2 6.38333 0.12 5.94999C0.0399999 5.50999 0 5.02666 0 4.49999ZM4.08 4.49999C4.08 4.13999 4.06333 3.79666 4.03 3.46999C3.99667 3.14333 3.93 2.85333 3.83 2.59999C3.73667 2.34666 3.58667 2.14999 3.38 2.00999C3.17333 1.86333 2.89667 1.78999 2.55 1.78999C2.20333 1.78999 1.92667 1.86333 1.72 2.00999C1.51333 2.14999 1.36 2.34666 1.26 2.59999C1.16 2.85333 1.09333 3.14333 1.06 3.46999C1.03333 3.79666 1.02 4.13999 1.02 4.49999C1.02 4.87999 1.03333 5.23333 1.06 5.55999C1.09333 5.88666 1.16 6.17333 1.26 6.41999C1.36 6.66666 1.51333 6.85999 1.72 6.99999C1.92667 7.13999 2.20333 7.20999 2.55 7.20999C2.89667 7.20999 3.17333 7.13999 3.38 6.99999C3.58667 6.85999 3.73667 6.66666 3.83 6.41999C3.93 6.17333 3.99667 5.88666 4.03 5.55999C4.06333 5.23333 4.08 4.87999 4.08 4.49999Z" fill="#808C98"/>
<path d="M2.04383 11H3.04383V17H2.04383V11Z" fill="#B3BAC2"/>
<path d="M30.1438 11H31.1438V17H30.1438V11Z" fill="#B3BAC2"/>
<path d="M60.9461 4.49999C60.9461 3.97999 60.9861 3.50333 61.0661 3.06999C61.1461 2.62999 61.2794 2.25333 61.4661 1.93999C61.6528 1.61999 61.9128 1.37333 62.2461 1.19999C62.5794 1.01999 62.9961 0.929993 63.4961 0.929993C64.0028 0.929993 64.4194 1.01999 64.7461 1.19999C65.0728 1.37333 65.3294 1.61999 65.5161 1.93999C65.7094 2.25333 65.8428 2.62999 65.9161 3.06999C65.9961 3.50333 66.0361 3.97999 66.0361 4.49999C66.0361 5.02666 65.9961 5.50999 65.9161 5.94999C65.8428 6.38333 65.7094 6.75999 65.5161 7.07999C65.3294 7.39333 65.0728 7.63666 64.7461 7.80999C64.4194 7.98333 64.0028 8.06999 63.4961 8.06999C62.9961 8.06999 62.5794 7.98333 62.2461 7.80999C61.9128 7.63666 61.6528 7.39333 61.4661 7.07999C61.2794 6.75999 61.1461 6.38333 61.0661 5.94999C60.9861 5.50999 60.9461 5.02666 60.9461 4.49999ZM65.0261 4.49999C65.0261 4.13999 65.0094 3.79666 64.9761 3.46999C64.9428 3.14333 64.8761 2.85333 64.7761 2.59999C64.6828 2.34666 64.5328 2.14999 64.3261 2.00999C64.1194 1.86333 63.8428 1.78999 63.4961 1.78999C63.1494 1.78999 62.8728 1.86333 62.6661 2.00999C62.4594 2.14999 62.3061 2.34666 62.2061 2.59999C62.1061 2.85333 62.0394 3.14333 62.0061 3.46999C61.9794 3.79666 61.9661 4.13999 61.9661 4.49999C61.9661 4.87999 61.9794 5.23333 62.0061 5.55999C62.0394 5.88666 62.1061 6.17333 62.2061 6.41999C62.3061 6.66666 62.4594 6.85999 62.6661 6.99999C62.8728 7.13999 63.1494 7.20999 63.4961 7.20999C63.8428 7.20999 64.1194 7.13999 64.3261 6.99999C64.5328 6.85999 64.6828 6.66666 64.7761 6.41999C64.8761 6.17333 64.9428 5.88666 64.9761 5.55999C65.0094 5.23333 65.0261 4.87999 65.0261 4.49999Z" fill="#808C98"/>
<path d="M54.5984 4.49999C54.5984 3.97999 54.6384 3.50333 54.7184 3.06999C54.7984 2.62999 54.9318 2.25333 55.1184 1.93999C55.3051 1.61999 55.5651 1.37333 55.8984 1.19999C56.2318 1.01999 56.6484 0.929993 57.1484 0.929993C57.6551 0.929993 58.0718 1.01999 58.3984 1.19999C58.7251 1.37333 58.9818 1.61999 59.1684 1.93999C59.3618 2.25333 59.4951 2.62999 59.5684 3.06999C59.6484 3.50333 59.6884 3.97999 59.6884 4.49999C59.6884 5.02666 59.6484 5.50999 59.5684 5.94999C59.4951 6.38333 59.3618 6.75999 59.1684 7.07999C58.9818 7.39333 58.7251 7.63666 58.3984 7.80999C58.0718 7.98333 57.6551 8.06999 57.1484 8.06999C56.6484 8.06999 56.2318 7.98333 55.8984 7.80999C55.5651 7.63666 55.3051 7.39333 55.1184 7.07999C54.9318 6.75999 54.7984 6.38333 54.7184 5.94999C54.6384 5.50999 54.5984 5.02666 54.5984 4.49999ZM58.6784 4.49999C58.6784 4.13999 58.6618 3.79666 58.6284 3.46999C58.5951 3.14333 58.5284 2.85333 58.4284 2.59999C58.3351 2.34666 58.1851 2.14999 57.9784 2.00999C57.7718 1.86333 57.4951 1.78999 57.1484 1.78999C56.8018 1.78999 56.5251 1.86333 56.3184 2.00999C56.1118 2.14999 55.9584 2.34666 55.8584 2.59999C55.7584 2.85333 55.6918 3.14333 55.6584 3.46999C55.6318 3.79666 55.6184 4.13999 55.6184 4.49999C55.6184 4.87999 55.6318 5.23333 55.6584 5.55999C55.6918 5.88666 55.7584 6.17333 55.8584 6.41999C55.9584 6.66666 56.1118 6.85999 56.3184 6.99999C56.5251 7.13999 56.8018 7.20999 57.1484 7.20999C57.4951 7.20999 57.7718 7.13999 57.9784 6.99999C58.1851 6.85999 58.3351 6.66666 58.4284 6.41999C58.5284 6.17333 58.5951 5.88666 58.6284 5.55999C58.6618 5.23333 58.6784 4.87999 58.6784 4.49999Z" fill="#808C98"/>
<path d="M52.1739 1.83999H51.2239V0.999992H53.1739V7.99999H52.1739V1.83999Z" fill="#808C98"/>
<path d="M58.2438 11H59.2438V17H58.2438V11Z" fill="#B3BAC2"/>
<path d="M86.3438 11H87.3438V17H86.3438V11Z" fill="#B3BAC2"/>
<path d="M118.562 4.49999C118.562 3.97999 118.602 3.50333 118.682 3.06999C118.762 2.62999 118.895 2.25333 119.082 1.93999C119.269 1.61999 119.529 1.37333 119.862 1.19999C120.195 1.01999 120.612 0.929993 121.112 0.929993C121.619 0.929993 122.035 1.01999 122.362 1.19999C122.689 1.37333 122.945 1.61999 123.132 1.93999C123.325 2.25333 123.459 2.62999 123.532 3.06999C123.612 3.50333 123.652 3.97999 123.652 4.49999C123.652 5.02666 123.612 5.50999 123.532 5.94999C123.459 6.38333 123.325 6.75999 123.132 7.07999C122.945 7.39333 122.689 7.63666 122.362 7.80999C122.035 7.98333 121.619 8.06999 121.112 8.06999C120.612 8.06999 120.195 7.98333 119.862 7.80999C119.529 7.63666 119.269 7.39333 119.082 7.07999C118.895 6.75999 118.762 6.38333 118.682 5.94999C118.602 5.50999 118.562 5.02666 118.562 4.49999ZM122.642 4.49999C122.642 4.13999 122.625 3.79666 122.592 3.46999C122.559 3.14333 122.492 2.85333 122.392 2.59999C122.299 2.34666 122.149 2.14999 121.942 2.00999C121.735 1.86333 121.459 1.78999 121.112 1.78999C120.765 1.78999 120.489 1.86333 120.282 2.00999C120.075 2.14999 119.922 2.34666 119.822 2.59999C119.722 2.85333 119.655 3.14333 119.622 3.46999C119.595 3.79666 119.582 4.13999 119.582 4.49999C119.582 4.87999 119.595 5.23333 119.622 5.55999C119.655 5.88666 119.722 6.17333 119.822 6.41999C119.922 6.66666 120.075 6.85999 120.282 6.99999C120.489 7.13999 120.765 7.20999 121.112 7.20999C121.459 7.20999 121.735 7.13999 121.942 6.99999C122.149 6.85999 122.299 6.66666 122.392 6.41999C122.492 6.17333 122.559 5.88666 122.592 5.55999C122.625 5.23333 122.642 4.87999 122.642 4.49999Z" fill="#808C98"/>
<path d="M112.214 4.49999C112.214 3.97999 112.254 3.50333 112.334 3.06999C112.414 2.62999 112.548 2.25333 112.734 1.93999C112.921 1.61999 113.181 1.37333 113.514 1.19999C113.848 1.01999 114.264 0.929993 114.764 0.929993C115.271 0.929993 115.688 1.01999 116.014 1.19999C116.341 1.37333 116.598 1.61999 116.784 1.93999C116.978 2.25333 117.111 2.62999 117.184 3.06999C117.264 3.50333 117.304 3.97999 117.304 4.49999C117.304 5.02666 117.264 5.50999 117.184 5.94999C117.111 6.38333 116.978 6.75999 116.784 7.07999C116.598 7.39333 116.341 7.63666 116.014 7.80999C115.688 7.98333 115.271 8.06999 114.764 8.06999C114.264 8.06999 113.848 7.98333 113.514 7.80999C113.181 7.63666 112.921 7.39333 112.734 7.07999C112.548 6.75999 112.414 6.38333 112.334 5.94999C112.254 5.50999 112.214 5.02666 112.214 4.49999ZM116.294 4.49999C116.294 4.13999 116.278 3.79666 116.244 3.46999C116.211 3.14333 116.144 2.85333 116.044 2.59999C115.951 2.34666 115.801 2.14999 115.594 2.00999C115.388 1.86333 115.111 1.78999 114.764 1.78999C114.418 1.78999 114.141 1.86333 113.934 2.00999C113.728 2.14999 113.574 2.34666 113.474 2.59999C113.374 2.85333 113.308 3.14333 113.274 3.46999C113.248 3.79666 113.234 4.13999 113.234 4.49999C113.234 4.87999 113.248 5.23333 113.274 5.55999C113.308 5.88666 113.374 6.17333 113.474 6.41999C113.574 6.66666 113.728 6.85999 113.934 6.99999C114.141 7.13999 114.418 7.20999 114.764 7.20999C115.111 7.20999 115.388 7.13999 115.594 6.99999C115.801 6.85999 115.951 6.66666 116.044 6.41999C116.144 6.17333 116.211 5.88666 116.244 5.55999C116.278 5.23333 116.294 4.87999 116.294 4.49999Z" fill="#808C98"/>
<path d="M106.148 7.26999L108.208 5.34999C108.601 4.98999 108.911 4.67999 109.138 4.41999C109.365 4.15999 109.528 3.91999 109.628 3.69999C109.728 3.47333 109.778 3.23999 109.778 2.99999C109.778 2.64666 109.675 2.35666 109.468 2.12999C109.268 1.90333 108.941 1.78999 108.488 1.78999C108.201 1.78999 107.958 1.85333 107.758 1.97999C107.558 2.10666 107.405 2.28666 107.298 2.51999C107.191 2.74666 107.135 3.01333 107.128 3.31999H106.168C106.181 2.78666 106.291 2.34333 106.498 1.98999C106.705 1.63666 106.981 1.37333 107.328 1.19999C107.681 1.01999 108.071 0.929993 108.498 0.929993C108.978 0.929993 109.388 1.01666 109.728 1.18999C110.075 1.36333 110.338 1.60666 110.518 1.91999C110.698 2.22666 110.788 2.58666 110.788 2.99999C110.788 3.29999 110.731 3.59333 110.618 3.87999C110.511 4.15999 110.325 4.46333 110.058 4.78999C109.791 5.10999 109.428 5.48333 108.968 5.90999L107.608 7.15999H110.978V7.99999H106.148V7.26999Z" fill="#808C98"/>
<path d="M114.444 11H115.444V17H114.444V11Z" fill="#B3BAC2"/>
<path d="M142.544 11H143.544V17H142.544V11Z" fill="#B3BAC2"/>
<path d="M174.757 4.49999C174.757 3.97999 174.797 3.50333 174.877 3.06999C174.957 2.62999 175.091 2.25333 175.277 1.93999C175.464 1.61999 175.724 1.37333 176.057 1.19999C176.391 1.01999 176.807 0.929993 177.307 0.929993C177.814 0.929993 178.231 1.01999 178.557 1.19999C178.884 1.37333 179.141 1.61999 179.327 1.93999C179.521 2.25333 179.654 2.62999 179.727 3.06999C179.807 3.50333 179.847 3.97999 179.847 4.49999C179.847 5.02666 179.807 5.50999 179.727 5.94999C179.654 6.38333 179.521 6.75999 179.327 7.07999C179.141 7.39333 178.884 7.63666 178.557 7.80999C178.231 7.98333 177.814 8.06999 177.307 8.06999C176.807 8.06999 176.391 7.98333 176.057 7.80999C175.724 7.63666 175.464 7.39333 175.277 7.07999C175.091 6.75999 174.957 6.38333 174.877 5.94999C174.797 5.50999 174.757 5.02666 174.757 4.49999ZM178.837 4.49999C178.837 4.13999 178.821 3.79666 178.787 3.46999C178.754 3.14333 178.687 2.85333 178.587 2.59999C178.494 2.34666 178.344 2.14999 178.137 2.00999C177.931 1.86333 177.654 1.78999 177.307 1.78999C176.961 1.78999 176.684 1.86333 176.477 2.00999C176.271 2.14999 176.117 2.34666 176.017 2.59999C175.917 2.85333 175.851 3.14333 175.817 3.46999C175.791 3.79666 175.777 4.13999 175.777 4.49999C175.777 4.87999 175.791 5.23333 175.817 5.55999C175.851 5.88666 175.917 6.17333 176.017 6.41999C176.117 6.66666 176.271 6.85999 176.477 6.99999C176.684 7.13999 176.961 7.20999 177.307 7.20999C177.654 7.20999 177.931 7.13999 178.137 6.99999C178.344 6.85999 178.494 6.66666 178.587 6.41999C178.687 6.17333 178.754 5.88666 178.787 5.55999C178.821 5.23333 178.837 4.87999 178.837 4.49999Z" fill="#808C98"/>
<path d="M168.41 4.49999C168.41 3.97999 168.45 3.50333 168.53 3.06999C168.61 2.62999 168.743 2.25333 168.93 1.93999C169.116 1.61999 169.376 1.37333 169.71 1.19999C170.043 1.01999 170.46 0.929993 170.96 0.929993C171.466 0.929993 171.883 1.01999 172.21 1.19999C172.536 1.37333 172.793 1.61999 172.98 1.93999C173.173 2.25333 173.306 2.62999 173.38 3.06999C173.46 3.50333 173.5 3.97999 173.5 4.49999C173.5 5.02666 173.46 5.50999 173.38 5.94999C173.306 6.38333 173.173 6.75999 172.98 7.07999C172.793 7.39333 172.536 7.63666 172.21 7.80999C171.883 7.98333 171.466 8.06999 170.96 8.06999C170.46 8.06999 170.043 7.98333 169.71 7.80999C169.376 7.63666 169.116 7.39333 168.93 7.07999C168.743 6.75999 168.61 6.38333 168.53 5.94999C168.45 5.50999 168.41 5.02666 168.41 4.49999ZM172.49 4.49999C172.49 4.13999 172.473 3.79666 172.44 3.46999C172.406 3.14333 172.34 2.85333 172.24 2.59999C172.146 2.34666 171.996 2.14999 171.79 2.00999C171.583 1.86333 171.306 1.78999 170.96 1.78999C170.613 1.78999 170.336 1.86333 170.13 2.00999C169.923 2.14999 169.77 2.34666 169.67 2.59999C169.57 2.85333 169.503 3.14333 169.47 3.46999C169.443 3.79666 169.43 4.13999 169.43 4.49999C169.43 4.87999 169.443 5.23333 169.47 5.55999C169.503 5.88666 169.57 6.17333 169.67 6.41999C169.77 6.66666 169.923 6.85999 170.13 6.99999C170.336 7.13999 170.613 7.20999 170.96 7.20999C171.306 7.20999 171.583 7.13999 171.79 6.99999C171.996 6.85999 172.146 6.66666 172.24 6.41999C172.34 6.17333 172.406 5.88666 172.44 5.55999C172.473 5.23333 172.49 4.87999 172.49 4.49999Z" fill="#808C98"/>
<path d="M162.443 2.89999C162.469 2.47999 162.586 2.12333 162.793 1.82999C163.006 1.53666 163.286 1.31333 163.633 1.15999C163.979 1.00666 164.376 0.929993 164.823 0.929993C165.296 0.929993 165.696 1.01999 166.023 1.19999C166.349 1.37999 166.596 1.61999 166.763 1.91999C166.936 2.21333 167.023 2.53333 167.023 2.87999C167.023 3.13333 166.969 3.36666 166.863 3.57999C166.756 3.78666 166.609 3.96333 166.423 4.10999C166.243 4.25666 166.036 4.35999 165.803 4.41999V4.46999C166.069 4.53666 166.303 4.64333 166.503 4.78999C166.709 4.92999 166.869 5.11333 166.983 5.33999C167.096 5.55999 167.153 5.82666 167.153 6.13999C167.153 6.51999 167.066 6.85666 166.893 7.14999C166.719 7.43666 166.459 7.66333 166.113 7.82999C165.773 7.98999 165.349 8.06999 164.843 8.06999C164.356 8.06999 163.929 7.99666 163.563 7.84999C163.196 7.70333 162.906 7.47333 162.693 7.15999C162.486 6.84666 162.369 6.43999 162.343 5.93999H163.303C163.336 6.35333 163.473 6.66999 163.713 6.88999C163.953 7.10333 164.329 7.20999 164.843 7.20999C165.143 7.20999 165.389 7.16333 165.583 7.06999C165.776 6.97666 165.916 6.84666 166.003 6.67999C166.096 6.50666 166.143 6.29999 166.143 6.05999C166.143 5.60666 165.986 5.29999 165.673 5.13999C165.366 4.97333 164.899 4.88999 164.273 4.88999H164.023V4.03999H164.283C164.663 4.03333 164.979 3.99333 165.233 3.91999C165.493 3.84666 165.686 3.73666 165.813 3.58999C165.946 3.43666 166.013 3.23666 166.013 2.98999C166.013 2.65666 165.913 2.37333 165.713 2.13999C165.513 1.90666 165.206 1.78999 164.793 1.78999C164.513 1.78999 164.276 1.83999 164.083 1.93999C163.889 2.03333 163.736 2.16333 163.623 2.32999C163.509 2.49666 163.439 2.68666 163.413 2.89999H162.443Z" fill="#808C98"/>
<path d="M170.644 11H171.644V17H170.644V11Z" fill="#B3BAC2"/>
<path d="M198.744 11H199.744V17H198.744V11Z" fill="#B3BAC2"/>
<path d="M231.245 4.49999C231.245 3.97999 231.285 3.50333 231.365 3.06999C231.445 2.62999 231.579 2.25333 231.765 1.93999C231.952 1.61999 232.212 1.37333 232.545 1.19999C232.879 1.01999 233.295 0.929993 233.795 0.929993C234.302 0.929993 234.719 1.01999 235.045 1.19999C235.372 1.37333 235.629 1.61999 235.815 1.93999C236.009 2.25333 236.142 2.62999 236.215 3.06999C236.295 3.50333 236.335 3.97999 236.335 4.49999C236.335 5.02666 236.295 5.50999 236.215 5.94999C236.142 6.38333 236.009 6.75999 235.815 7.07999C235.629 7.39333 235.372 7.63666 235.045 7.80999C234.719 7.98333 234.302 8.06999 233.795 8.06999C233.295 8.06999 232.879 7.98333 232.545 7.80999C232.212 7.63666 231.952 7.39333 231.765 7.07999C231.579 6.75999 231.445 6.38333 231.365 5.94999C231.285 5.50999 231.245 5.02666 231.245 4.49999ZM235.325 4.49999C235.325 4.13999 235.309 3.79666 235.275 3.46999C235.242 3.14333 235.175 2.85333 235.075 2.59999C234.982 2.34666 234.832 2.14999 234.625 2.00999C234.419 1.86333 234.142 1.78999 233.795 1.78999C233.449 1.78999 233.172 1.86333 232.965 2.00999C232.759 2.14999 232.605 2.34666 232.505 2.59999C232.405 2.85333 232.339 3.14333 232.305 3.46999C232.279 3.79666 232.265 4.13999 232.265 4.49999C232.265 4.87999 232.279 5.23333 232.305 5.55999C232.339 5.88666 232.405 6.17333 232.505 6.41999C232.605 6.66666 232.759 6.85999 232.965 6.99999C233.172 7.13999 233.449 7.20999 233.795 7.20999C234.142 7.20999 234.419 7.13999 234.625 6.99999C234.832 6.85999 234.982 6.66666 235.075 6.41999C235.175 6.17333 235.242 5.88666 235.275 5.55999C235.309 5.23333 235.325 4.87999 235.325 4.49999Z" fill="#808C98"/>
<path d="M224.898 4.49999C224.898 3.97999 224.938 3.50333 225.018 3.06999C225.098 2.62999 225.231 2.25333 225.418 1.93999C225.604 1.61999 225.864 1.37333 226.198 1.19999C226.531 1.01999 226.948 0.929993 227.448 0.929993C227.954 0.929993 228.371 1.01999 228.698 1.19999C229.024 1.37333 229.281 1.61999 229.468 1.93999C229.661 2.25333 229.794 2.62999 229.868 3.06999C229.948 3.50333 229.988 3.97999 229.988 4.49999C229.988 5.02666 229.948 5.50999 229.868 5.94999C229.794 6.38333 229.661 6.75999 229.468 7.07999C229.281 7.39333 229.024 7.63666 228.698 7.80999C228.371 7.98333 227.954 8.06999 227.448 8.06999C226.948 8.06999 226.531 7.98333 226.198 7.80999C225.864 7.63666 225.604 7.39333 225.418 7.07999C225.231 6.75999 225.098 6.38333 225.018 5.94999C224.938 5.50999 224.898 5.02666 224.898 4.49999ZM228.978 4.49999C228.978 4.13999 228.961 3.79666 228.928 3.46999C228.894 3.14333 228.828 2.85333 228.728 2.59999C228.634 2.34666 228.484 2.14999 228.278 2.00999C228.071 1.86333 227.794 1.78999 227.448 1.78999C227.101 1.78999 226.824 1.86333 226.618 2.00999C226.411 2.14999 226.258 2.34666 226.158 2.59999C226.058 2.85333 225.991 3.14333 225.958 3.46999C225.931 3.79666 225.918 4.13999 225.918 4.49999C225.918 4.87999 225.931 5.23333 225.958 5.55999C225.991 5.88666 226.058 6.17333 226.158 6.41999C226.258 6.66666 226.411 6.85999 226.618 6.99999C226.824 7.13999 227.101 7.20999 227.448 7.20999C227.794 7.20999 228.071 7.13999 228.278 6.99999C228.484 6.85999 228.634 6.66666 228.728 6.41999C228.828 6.17333 228.894 5.88666 228.928 5.55999C228.961 5.23333 228.978 4.87999 228.978 4.49999Z" fill="#808C98"/>
<path d="M221.795 6.39999H218.125V5.66999L221.575 0.999992H222.785V5.54999H223.745V6.39999H222.785V7.99999H221.795V6.39999ZM221.815 5.54999V2.02999L219.265 5.54999H221.815Z" fill="#808C98"/>
<path d="M226.844 11H227.844V17H226.844V11Z" fill="#B3BAC2"/>
<path d="M254.944 11H255.944V17H254.944V11Z" fill="#B3BAC2"/>
<path d="M287.289 4.49999C287.289 3.97999 287.329 3.50333 287.409 3.06999C287.489 2.62999 287.622 2.25333 287.809 1.93999C287.996 1.61999 288.256 1.37333 288.589 1.19999C288.922 1.01999 289.339 0.929993 289.839 0.929993C290.346 0.929993 290.762 1.01999 291.089 1.19999C291.416 1.37333 291.672 1.61999 291.859 1.93999C292.052 2.25333 292.186 2.62999 292.259 3.06999C292.339 3.50333 292.379 3.97999 292.379 4.49999C292.379 5.02666 292.339 5.50999 292.259 5.94999C292.186 6.38333 292.052 6.75999 291.859 7.07999C291.672 7.39333 291.416 7.63666 291.089 7.80999C290.762 7.98333 290.346 8.06999 289.839 8.06999C289.339 8.06999 288.922 7.98333 288.589 7.80999C288.256 7.63666 287.996 7.39333 287.809 7.07999C287.622 6.75999 287.489 6.38333 287.409 5.94999C287.329 5.50999 287.289 5.02666 287.289 4.49999ZM291.369 4.49999C291.369 4.13999 291.352 3.79666 291.319 3.46999C291.286 3.14333 291.219 2.85333 291.119 2.59999C291.026 2.34666 290.876 2.14999 290.669 2.00999C290.462 1.86333 290.186 1.78999 289.839 1.78999C289.492 1.78999 289.216 1.86333 289.009 2.00999C288.802 2.14999 288.649 2.34666 288.549 2.59999C288.449 2.85333 288.382 3.14333 288.349 3.46999C288.322 3.79666 288.309 4.13999 288.309 4.49999C288.309 4.87999 288.322 5.23333 288.349 5.55999C288.382 5.88666 288.449 6.17333 288.549 6.41999C288.649 6.66666 288.802 6.85999 289.009 6.99999C289.216 7.13999 289.492 7.20999 289.839 7.20999C290.186 7.20999 290.462 7.13999 290.669 6.99999C290.876 6.85999 291.026 6.66666 291.119 6.41999C291.219 6.17333 291.286 5.88666 291.319 5.55999C291.352 5.23333 291.369 4.87999 291.369 4.49999Z" fill="#808C98"/>
<path d="M280.941 4.49999C280.941 3.97999 280.981 3.50333 281.061 3.06999C281.141 2.62999 281.275 2.25333 281.461 1.93999C281.648 1.61999 281.908 1.37333 282.241 1.19999C282.575 1.01999 282.991 0.929993 283.491 0.929993C283.998 0.929993 284.415 1.01999 284.741 1.19999C285.068 1.37333 285.325 1.61999 285.511 1.93999C285.705 2.25333 285.838 2.62999 285.911 3.06999C285.991 3.50333 286.031 3.97999 286.031 4.49999C286.031 5.02666 285.991 5.50999 285.911 5.94999C285.838 6.38333 285.705 6.75999 285.511 7.07999C285.325 7.39333 285.068 7.63666 284.741 7.80999C284.415 7.98333 283.998 8.06999 283.491 8.06999C282.991 8.06999 282.575 7.98333 282.241 7.80999C281.908 7.63666 281.648 7.39333 281.461 7.07999C281.275 6.75999 281.141 6.38333 281.061 5.94999C280.981 5.50999 280.941 5.02666 280.941 4.49999ZM285.021 4.49999C285.021 4.13999 285.005 3.79666 284.971 3.46999C284.938 3.14333 284.871 2.85333 284.771 2.59999C284.678 2.34666 284.528 2.14999 284.321 2.00999C284.115 1.86333 283.838 1.78999 283.491 1.78999C283.145 1.78999 282.868 1.86333 282.661 2.00999C282.455 2.14999 282.301 2.34666 282.201 2.59999C282.101 2.85333 282.035 3.14333 282.001 3.46999C281.975 3.79666 281.961 4.13999 281.961 4.49999C281.961 4.87999 281.975 5.23333 282.001 5.55999C282.035 5.88666 282.101 6.17333 282.201 6.41999C282.301 6.66666 282.455 6.85999 282.661 6.99999C282.868 7.13999 283.145 7.20999 283.491 7.20999C283.838 7.20999 284.115 7.13999 284.321 6.99999C284.528 6.85999 284.678 6.66666 284.771 6.41999C284.871 6.17333 284.938 5.88666 284.971 5.55999C285.005 5.23333 285.021 4.87999 285.021 4.49999Z" fill="#808C98"/>
<path d="M279.241 0.999992V1.83999H275.861V3.92999C276.001 3.73666 276.204 3.57999 276.471 3.45999C276.738 3.33999 277.041 3.27999 277.381 3.27999C277.814 3.27999 278.178 3.35333 278.471 3.49999C278.764 3.64666 279.001 3.83666 279.181 4.06999C279.368 4.30333 279.501 4.55666 279.581 4.82999C279.668 5.09666 279.711 5.35333 279.711 5.59999C279.711 6.05333 279.614 6.46666 279.421 6.83999C279.234 7.21333 278.954 7.51333 278.581 7.73999C278.208 7.95999 277.754 8.06999 277.221 8.06999C276.741 8.06999 276.321 7.98666 275.961 7.81999C275.608 7.64666 275.324 7.41333 275.111 7.11999C274.904 6.81999 274.771 6.47999 274.711 6.09999H275.681C275.768 6.44666 275.944 6.71999 276.211 6.91999C276.484 7.11333 276.824 7.20999 277.231 7.20999C277.564 7.20999 277.841 7.14333 278.061 7.00999C278.281 6.87666 278.441 6.69333 278.541 6.45999C278.648 6.21999 278.701 5.93999 278.701 5.61999C278.701 5.15333 278.574 4.78999 278.321 4.52999C278.068 4.26999 277.708 4.13999 277.241 4.13999C276.888 4.13999 276.588 4.22333 276.341 4.38999C276.094 4.55666 275.918 4.78333 275.811 5.06999H274.871V0.999992H279.241Z" fill="#808C98"/>
<path d="M283.044 11H284.044V17H283.044V11Z" fill="#B3BAC2"/>
<path d="M311.144 11H312.144V17H311.144V11Z" fill="#B3BAC2"/>
<path d="M343.411 4.49999C343.411 3.97999 343.451 3.50333 343.531 3.06999C343.611 2.62999 343.744 2.25333 343.931 1.93999C344.118 1.61999 344.378 1.37333 344.711 1.19999C345.044 1.01999 345.461 0.929993 345.961 0.929993C346.468 0.929993 346.884 1.01999 347.211 1.19999C347.538 1.37333 347.794 1.61999 347.981 1.93999C348.174 2.25333 348.308 2.62999 348.381 3.06999C348.461 3.50333 348.501 3.97999 348.501 4.49999C348.501 5.02666 348.461 5.50999 348.381 5.94999C348.308 6.38333 348.174 6.75999 347.981 7.07999C347.794 7.39333 347.538 7.63666 347.211 7.80999C346.884 7.98333 346.468 8.06999 345.961 8.06999C345.461 8.06999 345.044 7.98333 344.711 7.80999C344.378 7.63666 344.118 7.39333 343.931 7.07999C343.744 6.75999 343.611 6.38333 343.531 5.94999C343.451 5.50999 343.411 5.02666 343.411 4.49999ZM347.491 4.49999C347.491 4.13999 347.474 3.79666 347.441 3.46999C347.408 3.14333 347.341 2.85333 347.241 2.59999C347.148 2.34666 346.998 2.14999 346.791 2.00999C346.584 1.86333 346.308 1.78999 345.961 1.78999C345.614 1.78999 345.338 1.86333 345.131 2.00999C344.924 2.14999 344.771 2.34666 344.671 2.59999C344.571 2.85333 344.504 3.14333 344.471 3.46999C344.444 3.79666 344.431 4.13999 344.431 4.49999C344.431 4.87999 344.444 5.23333 344.471 5.55999C344.504 5.88666 344.571 6.17333 344.671 6.41999C344.771 6.66666 344.924 6.85999 345.131 6.99999C345.338 7.13999 345.614 7.20999 345.961 7.20999C346.308 7.20999 346.584 7.13999 346.791 6.99999C346.998 6.85999 347.148 6.66666 347.241 6.41999C347.341 6.17333 347.408 5.88666 347.441 5.55999C347.474 5.23333 347.491 4.87999 347.491 4.49999Z" fill="#808C98"/>
<path d="M337.063 4.49999C337.063 3.97999 337.103 3.50333 337.183 3.06999C337.263 2.62999 337.397 2.25333 337.583 1.93999C337.77 1.61999 338.03 1.37333 338.363 1.19999C338.697 1.01999 339.113 0.929993 339.613 0.929993C340.12 0.929993 340.537 1.01999 340.863 1.19999C341.19 1.37333 341.447 1.61999 341.633 1.93999C341.827 2.25333 341.96 2.62999 342.033 3.06999C342.113 3.50333 342.153 3.97999 342.153 4.49999C342.153 5.02666 342.113 5.50999 342.033 5.94999C341.96 6.38333 341.827 6.75999 341.633 7.07999C341.447 7.39333 341.19 7.63666 340.863 7.80999C340.537 7.98333 340.12 8.06999 339.613 8.06999C339.113 8.06999 338.697 7.98333 338.363 7.80999C338.03 7.63666 337.77 7.39333 337.583 7.07999C337.397 6.75999 337.263 6.38333 337.183 5.94999C337.103 5.50999 337.063 5.02666 337.063 4.49999ZM341.143 4.49999C341.143 4.13999 341.127 3.79666 341.093 3.46999C341.06 3.14333 340.993 2.85333 340.893 2.59999C340.8 2.34666 340.65 2.14999 340.443 2.00999C340.237 1.86333 339.96 1.78999 339.613 1.78999C339.267 1.78999 338.99 1.86333 338.783 2.00999C338.577 2.14999 338.423 2.34666 338.323 2.59999C338.223 2.85333 338.157 3.14333 338.123 3.46999C338.097 3.79666 338.083 4.13999 338.083 4.49999C338.083 4.87999 338.097 5.23333 338.123 5.55999C338.157 5.88666 338.223 6.17333 338.323 6.41999C338.423 6.66666 338.577 6.85999 338.783 6.99999C338.99 7.13999 339.267 7.20999 339.613 7.20999C339.96 7.20999 340.237 7.13999 340.443 6.99999C340.65 6.85999 340.8 6.66666 340.893 6.41999C340.993 6.17333 341.06 5.88666 341.093 5.55999C341.127 5.23333 341.143 4.87999 341.143 4.49999Z" fill="#808C98"/>
<path d="M333.429 8.06999C332.936 8.06999 332.496 7.96333 332.109 7.74999C331.729 7.53666 331.432 7.24333 331.219 6.86999C331.006 6.49666 330.899 6.07666 330.899 5.60999C330.899 5.24333 330.966 4.87666 331.099 4.50999C331.239 4.14333 331.456 3.76999 331.749 3.38999L333.579 0.999992H334.659L332.579 3.69999L331.419 4.88999C331.559 4.41666 331.816 4.03333 332.189 3.73999C332.569 3.44666 333.026 3.29999 333.559 3.29999C334.026 3.29999 334.439 3.39999 334.799 3.59999C335.159 3.79333 335.439 4.06666 335.639 4.41999C335.846 4.76666 335.949 5.16999 335.949 5.62999C335.949 6.09666 335.839 6.51666 335.619 6.88999C335.406 7.25666 335.106 7.54666 334.719 7.75999C334.339 7.96666 333.909 8.06999 333.429 8.06999ZM331.909 5.62999C331.909 5.94999 331.966 6.22999 332.079 6.46999C332.199 6.70333 332.372 6.88666 332.599 7.01999C332.832 7.14666 333.109 7.20999 333.429 7.20999C333.756 7.20999 334.029 7.14666 334.249 7.01999C334.476 6.88666 334.646 6.70333 334.759 6.46999C334.879 6.22999 334.939 5.94999 334.939 5.62999C334.939 5.30333 334.879 5.02666 334.759 4.79999C334.646 4.57333 334.476 4.39999 334.249 4.27999C334.029 4.15999 333.756 4.09999 333.429 4.09999C333.109 4.09999 332.832 4.15999 332.599 4.27999C332.372 4.39999 332.199 4.57333 332.079 4.79999C331.966 5.02666 331.909 5.30333 331.909 5.62999Z" fill="#808C98"/>
<path d="M339.244 11H340.244V17H339.244V11Z" fill="#B3BAC2"/>
<path d="M367.344 11H368.344V17H367.344V11Z" fill="#B3BAC2"/>
<path d="M399.357 4.49999C399.357 3.97999 399.397 3.50333 399.477 3.06999C399.557 2.62999 399.69 2.25333 399.877 1.93999C400.064 1.61999 400.324 1.37333 400.657 1.19999C400.99 1.01999 401.407 0.929993 401.907 0.929993C402.414 0.929993 402.83 1.01999 403.157 1.19999C403.484 1.37333 403.74 1.61999 403.927 1.93999C404.12 2.25333 404.254 2.62999 404.327 3.06999C404.407 3.50333 404.447 3.97999 404.447 4.49999C404.447 5.02666 404.407 5.50999 404.327 5.94999C404.254 6.38333 404.12 6.75999 403.927 7.07999C403.74 7.39333 403.484 7.63666 403.157 7.80999C402.83 7.98333 402.414 8.06999 401.907 8.06999C401.407 8.06999 400.99 7.98333 400.657 7.80999C400.324 7.63666 400.064 7.39333 399.877 7.07999C399.69 6.75999 399.557 6.38333 399.477 5.94999C399.397 5.50999 399.357 5.02666 399.357 4.49999ZM403.437 4.49999C403.437 4.13999 403.42 3.79666 403.387 3.46999C403.354 3.14333 403.287 2.85333 403.187 2.59999C403.094 2.34666 402.944 2.14999 402.737 2.00999C402.53 1.86333 402.254 1.78999 401.907 1.78999C401.56 1.78999 401.284 1.86333 401.077 2.00999C400.87 2.14999 400.717 2.34666 400.617 2.59999C400.517 2.85333 400.45 3.14333 400.417 3.46999C400.39 3.79666 400.377 4.13999 400.377 4.49999C400.377 4.87999 400.39 5.23333 400.417 5.55999C400.45 5.88666 400.517 6.17333 400.617 6.41999C400.717 6.66666 400.87 6.85999 401.077 6.99999C401.284 7.13999 401.56 7.20999 401.907 7.20999C402.254 7.20999 402.53 7.13999 402.737 6.99999C402.944 6.85999 403.094 6.66666 403.187 6.41999C403.287 6.17333 403.354 5.88666 403.387 5.55999C403.42 5.23333 403.437 4.87999 403.437 4.49999Z" fill="#808C98"/>
<path d="M393.009 4.49999C393.009 3.97999 393.049 3.50333 393.129 3.06999C393.209 2.62999 393.343 2.25333 393.529 1.93999C393.716 1.61999 393.976 1.37333 394.309 1.19999C394.643 1.01999 395.059 0.929993 395.559 0.929993C396.066 0.929993 396.483 1.01999 396.809 1.19999C397.136 1.37333 397.393 1.61999 397.579 1.93999C397.773 2.25333 397.906 2.62999 397.979 3.06999C398.059 3.50333 398.099 3.97999 398.099 4.49999C398.099 5.02666 398.059 5.50999 397.979 5.94999C397.906 6.38333 397.773 6.75999 397.579 7.07999C397.393 7.39333 397.136 7.63666 396.809 7.80999C396.483 7.98333 396.066 8.06999 395.559 8.06999C395.059 8.06999 394.643 7.98333 394.309 7.80999C393.976 7.63666 393.716 7.39333 393.529 7.07999C393.343 6.75999 393.209 6.38333 393.129 5.94999C393.049 5.50999 393.009 5.02666 393.009 4.49999ZM397.089 4.49999C397.089 4.13999 397.073 3.79666 397.039 3.46999C397.006 3.14333 396.939 2.85333 396.839 2.59999C396.746 2.34666 396.596 2.14999 396.389 2.00999C396.183 1.86333 395.906 1.78999 395.559 1.78999C395.213 1.78999 394.936 1.86333 394.729 2.00999C394.523 2.14999 394.369 2.34666 394.269 2.59999C394.169 2.85333 394.103 3.14333 394.069 3.46999C394.043 3.79666 394.029 4.13999 394.029 4.49999C394.029 4.87999 394.043 5.23333 394.069 5.55999C394.103 5.88666 394.169 6.17333 394.269 6.41999C394.369 6.66666 394.523 6.85999 394.729 6.99999C394.936 7.13999 395.213 7.20999 395.559 7.20999C395.906 7.20999 396.183 7.13999 396.389 6.99999C396.596 6.85999 396.746 6.66666 396.839 6.41999C396.939 6.17333 397.006 5.88666 397.039 5.55999C397.073 5.23333 397.089 4.87999 397.089 4.49999Z" fill="#808C98"/>
<path d="M391.983 0.999992V1.73999L389.203 7.99999H388.203L391.013 1.83999H387.213V0.999992H391.983Z" fill="#808C98"/>
<path d="M395.444 11H396.444V17H395.444V11Z" fill="#B3BAC2"/>
<path d="M423.544 11H424.544V17H423.544V11Z" fill="#B3BAC2"/>
<path d="M455.914 4.49999C455.914 3.97999 455.954 3.50333 456.034 3.06999C456.114 2.62999 456.247 2.25333 456.434 1.93999C456.62 1.61999 456.88 1.37333 457.214 1.19999C457.547 1.01999 457.964 0.929993 458.464 0.929993C458.97 0.929993 459.387 1.01999 459.714 1.19999C460.04 1.37333 460.297 1.61999 460.484 1.93999C460.677 2.25333 460.81 2.62999 460.884 3.06999C460.964 3.50333 461.004 3.97999 461.004 4.49999C461.004 5.02666 460.964 5.50999 460.884 5.94999C460.81 6.38333 460.677 6.75999 460.484 7.07999C460.297 7.39333 460.04 7.63666 459.714 7.80999C459.387 7.98333 458.97 8.06999 458.464 8.06999C457.964 8.06999 457.547 7.98333 457.214 7.80999C456.88 7.63666 456.62 7.39333 456.434 7.07999C456.247 6.75999 456.114 6.38333 456.034 5.94999C455.954 5.50999 455.914 5.02666 455.914 4.49999ZM459.994 4.49999C459.994 4.13999 459.977 3.79666 459.944 3.46999C459.91 3.14333 459.844 2.85333 459.744 2.59999C459.65 2.34666 459.5 2.14999 459.294 2.00999C459.087 1.86333 458.81 1.78999 458.464 1.78999C458.117 1.78999 457.84 1.86333 457.634 2.00999C457.427 2.14999 457.274 2.34666 457.174 2.59999C457.074 2.85333 457.007 3.14333 456.974 3.46999C456.947 3.79666 456.934 4.13999 456.934 4.49999C456.934 4.87999 456.947 5.23333 456.974 5.55999C457.007 5.88666 457.074 6.17333 457.174 6.41999C457.274 6.66666 457.427 6.85999 457.634 6.99999C457.84 7.13999 458.117 7.20999 458.464 7.20999C458.81 7.20999 459.087 7.13999 459.294 6.99999C459.5 6.85999 459.65 6.66666 459.744 6.41999C459.844 6.17333 459.91 5.88666 459.944 5.55999C459.977 5.23333 459.994 4.87999 459.994 4.49999Z" fill="#808C98"/>
<path d="M449.566 4.49999C449.566 3.97999 449.606 3.50333 449.686 3.06999C449.766 2.62999 449.899 2.25333 450.086 1.93999C450.273 1.61999 450.533 1.37333 450.866 1.19999C451.199 1.01999 451.616 0.929993 452.116 0.929993C452.623 0.929993 453.039 1.01999 453.366 1.19999C453.693 1.37333 453.949 1.61999 454.136 1.93999C454.329 2.25333 454.463 2.62999 454.536 3.06999C454.616 3.50333 454.656 3.97999 454.656 4.49999C454.656 5.02666 454.616 5.50999 454.536 5.94999C454.463 6.38333 454.329 6.75999 454.136 7.07999C453.949 7.39333 453.693 7.63666 453.366 7.80999C453.039 7.98333 452.623 8.06999 452.116 8.06999C451.616 8.06999 451.199 7.98333 450.866 7.80999C450.533 7.63666 450.273 7.39333 450.086 7.07999C449.899 6.75999 449.766 6.38333 449.686 5.94999C449.606 5.50999 449.566 5.02666 449.566 4.49999ZM453.646 4.49999C453.646 4.13999 453.629 3.79666 453.596 3.46999C453.563 3.14333 453.496 2.85333 453.396 2.59999C453.303 2.34666 453.153 2.14999 452.946 2.00999C452.739 1.86333 452.463 1.78999 452.116 1.78999C451.769 1.78999 451.493 1.86333 451.286 2.00999C451.079 2.14999 450.926 2.34666 450.826 2.59999C450.726 2.85333 450.659 3.14333 450.626 3.46999C450.599 3.79666 450.586 4.13999 450.586 4.49999C450.586 4.87999 450.599 5.23333 450.626 5.55999C450.659 5.88666 450.726 6.17333 450.826 6.41999C450.926 6.66666 451.079 6.85999 451.286 6.99999C451.493 7.13999 451.769 7.20999 452.116 7.20999C452.463 7.20999 452.739 7.13999 452.946 6.99999C453.153 6.85999 453.303 6.66666 453.396 6.41999C453.496 6.17333 453.563 5.88666 453.596 5.55999C453.629 5.23333 453.646 4.87999 453.646 4.49999Z" fill="#808C98"/>
<path d="M444.527 4.31999C444.18 4.17999 443.907 3.98333 443.707 3.72999C443.507 3.46999 443.407 3.14666 443.407 2.75999C443.407 2.41999 443.497 2.11333 443.677 1.83999C443.857 1.56666 444.12 1.34666 444.467 1.17999C444.82 1.01333 445.263 0.929993 445.797 0.929993C446.323 0.929993 446.763 1.01333 447.117 1.17999C447.47 1.34666 447.733 1.56999 447.907 1.84999C448.087 2.12333 448.177 2.42666 448.177 2.75999C448.177 3.12666 448.073 3.44666 447.867 3.71999C447.66 3.98666 447.39 4.18666 447.057 4.31999C447.457 4.44666 447.773 4.65666 448.007 4.94999C448.247 5.24333 448.367 5.60333 448.367 6.02999C448.367 6.44999 448.257 6.81333 448.037 7.11999C447.817 7.41999 447.513 7.65333 447.127 7.81999C446.747 7.98666 446.303 8.06999 445.797 8.06999C445.29 8.06999 444.843 7.98666 444.457 7.81999C444.07 7.65333 443.767 7.41999 443.547 7.11999C443.333 6.81333 443.227 6.44999 443.227 6.02999C443.227 5.60333 443.343 5.24333 443.577 4.94999C443.817 4.64999 444.133 4.43999 444.527 4.31999ZM447.157 2.86999C447.157 2.48999 447.037 2.21666 446.797 2.04999C446.563 1.87666 446.23 1.78999 445.797 1.78999C445.37 1.78999 445.033 1.87333 444.787 2.03999C444.547 2.20666 444.427 2.48666 444.427 2.87999C444.427 3.21999 444.55 3.48999 444.797 3.68999C445.043 3.88333 445.377 3.97999 445.797 3.97999C446.217 3.97999 446.547 3.88333 446.787 3.68999C447.033 3.48999 447.157 3.21666 447.157 2.86999ZM445.797 4.75999C445.497 4.75999 445.227 4.80333 444.987 4.88999C444.753 4.97666 444.57 5.10999 444.437 5.28999C444.303 5.46999 444.237 5.70666 444.237 5.99999C444.237 6.38666 444.37 6.68666 444.637 6.89999C444.91 7.10666 445.297 7.20999 445.797 7.20999C446.29 7.20999 446.673 7.10333 446.947 6.88999C447.22 6.67666 447.357 6.37999 447.357 5.99999C447.357 5.71999 447.29 5.48999 447.157 5.30999C447.023 5.12333 446.84 4.98666 446.607 4.89999C446.373 4.80666 446.103 4.75999 445.797 4.75999Z" fill="#808C98"/>
<path d="M451.644 11H452.644V17H451.644V11Z" fill="#B3BAC2"/>
<path d="M479.744 11H480.744V17H479.744V11Z" fill="#B3BAC2"/>
<path d="M512.011 4.49999C512.011 3.97999 512.051 3.50333 512.131 3.06999C512.211 2.62999 512.344 2.25333 512.531 1.93999C512.718 1.61999 512.978 1.37333 513.311 1.19999C513.644 1.01999 514.061 0.929993 514.561 0.929993C515.068 0.929993 515.484 1.01999 515.811 1.19999C516.138 1.37333 516.394 1.61999 516.581 1.93999C516.774 2.25333 516.908 2.62999 516.981 3.06999C517.061 3.50333 517.101 3.97999 517.101 4.49999C517.101 5.02666 517.061 5.50999 516.981 5.94999C516.908 6.38333 516.774 6.75999 516.581 7.07999C516.394 7.39333 516.138 7.63666 515.811 7.80999C515.484 7.98333 515.068 8.06999 514.561 8.06999C514.061 8.06999 513.644 7.98333 513.311 7.80999C512.978 7.63666 512.718 7.39333 512.531 7.07999C512.344 6.75999 512.211 6.38333 512.131 5.94999C512.051 5.50999 512.011 5.02666 512.011 4.49999ZM516.091 4.49999C516.091 4.13999 516.074 3.79666 516.041 3.46999C516.008 3.14333 515.941 2.85333 515.841 2.59999C515.748 2.34666 515.598 2.14999 515.391 2.00999C515.184 1.86333 514.908 1.78999 514.561 1.78999C514.214 1.78999 513.938 1.86333 513.731 2.00999C513.524 2.14999 513.371 2.34666 513.271 2.59999C513.171 2.85333 513.104 3.14333 513.071 3.46999C513.044 3.79666 513.031 4.13999 513.031 4.49999C513.031 4.87999 513.044 5.23333 513.071 5.55999C513.104 5.88666 513.171 6.17333 513.271 6.41999C513.371 6.66666 513.524 6.85999 513.731 6.99999C513.938 7.13999 514.214 7.20999 514.561 7.20999C514.908 7.20999 515.184 7.13999 515.391 6.99999C515.598 6.85999 515.748 6.66666 515.841 6.41999C515.941 6.17333 516.008 5.88666 516.041 5.55999C516.074 5.23333 516.091 4.87999 516.091 4.49999Z" fill="#808C98"/>
<path d="M505.663 4.49999C505.663 3.97999 505.703 3.50333 505.783 3.06999C505.863 2.62999 505.997 2.25333 506.183 1.93999C506.37 1.61999 506.63 1.37333 506.963 1.19999C507.297 1.01999 507.713 0.929993 508.213 0.929993C508.72 0.929993 509.137 1.01999 509.463 1.19999C509.79 1.37333 510.047 1.61999 510.233 1.93999C510.427 2.25333 510.56 2.62999 510.633 3.06999C510.713 3.50333 510.753 3.97999 510.753 4.49999C510.753 5.02666 510.713 5.50999 510.633 5.94999C510.56 6.38333 510.427 6.75999 510.233 7.07999C510.047 7.39333 509.79 7.63666 509.463 7.80999C509.137 7.98333 508.72 8.06999 508.213 8.06999C507.713 8.06999 507.297 7.98333 506.963 7.80999C506.63 7.63666 506.37 7.39333 506.183 7.07999C505.997 6.75999 505.863 6.38333 505.783 5.94999C505.703 5.50999 505.663 5.02666 505.663 4.49999ZM509.743 4.49999C509.743 4.13999 509.727 3.79666 509.693 3.46999C509.66 3.14333 509.593 2.85333 509.493 2.59999C509.4 2.34666 509.25 2.14999 509.043 2.00999C508.837 1.86333 508.56 1.78999 508.213 1.78999C507.867 1.78999 507.59 1.86333 507.383 2.00999C507.177 2.14999 507.023 2.34666 506.923 2.59999C506.823 2.85333 506.757 3.14333 506.723 3.46999C506.697 3.79666 506.683 4.13999 506.683 4.49999C506.683 4.87999 506.697 5.23333 506.723 5.55999C506.757 5.88666 506.823 6.17333 506.923 6.41999C507.023 6.66666 507.177 6.85999 507.383 6.99999C507.59 7.13999 507.867 7.20999 508.213 7.20999C508.56 7.20999 508.837 7.13999 509.043 6.99999C509.25 6.85999 509.4 6.66666 509.493 6.41999C509.593 6.17333 509.66 5.88666 509.693 5.55999C509.727 5.23333 509.743 4.87999 509.743 4.49999Z" fill="#808C98"/>
<path d="M501.949 0.929993C502.442 0.929993 502.879 1.03666 503.259 1.24999C503.646 1.46333 503.946 1.75666 504.159 2.12999C504.379 2.50333 504.489 2.92333 504.489 3.38999C504.489 3.75666 504.419 4.12333 504.279 4.48999C504.139 4.85666 503.922 5.22999 503.629 5.60999L501.809 7.99999H500.729L502.809 5.29999L503.959 4.10999C503.826 4.58333 503.569 4.96666 503.189 5.25999C502.816 5.55333 502.362 5.69999 501.829 5.69999C501.356 5.69999 500.939 5.60333 500.579 5.40999C500.226 5.20999 499.946 4.93666 499.739 4.58999C499.539 4.23666 499.439 3.82999 499.439 3.36999C499.439 2.89666 499.546 2.47666 499.759 2.10999C499.979 1.74333 500.276 1.45666 500.649 1.24999C501.029 1.03666 501.462 0.929993 501.949 0.929993ZM503.479 3.36999C503.479 3.04333 503.419 2.76333 503.299 2.52999C503.179 2.29666 503.002 2.11666 502.769 1.98999C502.542 1.85666 502.269 1.78999 501.949 1.78999C501.622 1.78999 501.346 1.85666 501.119 1.98999C500.899 2.11666 500.732 2.29666 500.619 2.52999C500.506 2.76333 500.449 3.04333 500.449 3.36999C500.449 3.68999 500.506 3.96666 500.619 4.19999C500.732 4.42666 500.899 4.59999 501.119 4.71999C501.346 4.83999 501.622 4.89999 501.949 4.89999C502.269 4.89999 502.542 4.83999 502.769 4.71999C503.002 4.59999 503.179 4.42666 503.299 4.19999C503.419 3.96666 503.479 3.68999 503.479 3.36999Z" fill="#808C98"/>
<path d="M507.844 11H508.844V17H507.844V11Z" fill="#B3BAC2"/>
<path d="M535.944 11H536.944V17H535.944V11Z" fill="#B3BAC2"/>
<path d="M569.92 4.49999C569.92 3.97999 569.96 3.50333 570.04 3.06999C570.12 2.62999 570.253 2.25333 570.44 1.93999C570.627 1.61999 570.887 1.37333 571.22 1.19999C571.553 1.01999 571.97 0.929993 572.47 0.929993C572.977 0.929993 573.393 1.01999 573.72 1.19999C574.047 1.37333 574.303 1.61999 574.49 1.93999C574.683 2.25333 574.817 2.62999 574.89 3.06999C574.97 3.50333 575.01 3.97999 575.01 4.49999C575.01 5.02666 574.97 5.50999 574.89 5.94999C574.817 6.38333 574.683 6.75999 574.49 7.07999C574.303 7.39333 574.047 7.63666 573.72 7.80999C573.393 7.98333 572.977 8.06999 572.47 8.06999C571.97 8.06999 571.553 7.98333 571.22 7.80999C570.887 7.63666 570.627 7.39333 570.44 7.07999C570.253 6.75999 570.12 6.38333 570.04 5.94999C569.96 5.50999 569.92 5.02666 569.92 4.49999ZM574 4.49999C574 4.13999 573.983 3.79666 573.95 3.46999C573.917 3.14333 573.85 2.85333 573.75 2.59999C573.657 2.34666 573.507 2.14999 573.3 2.00999C573.093 1.86333 572.817 1.78999 572.47 1.78999C572.123 1.78999 571.847 1.86333 571.64 2.00999C571.433 2.14999 571.28 2.34666 571.18 2.59999C571.08 2.85333 571.013 3.14333 570.98 3.46999C570.953 3.79666 570.94 4.13999 570.94 4.49999C570.94 4.87999 570.953 5.23333 570.98 5.55999C571.013 5.88666 571.08 6.17333 571.18 6.41999C571.28 6.66666 571.433 6.85999 571.64 6.99999C571.847 7.13999 572.123 7.20999 572.47 7.20999C572.817 7.20999 573.093 7.13999 573.3 6.99999C573.507 6.85999 573.657 6.66666 573.75 6.41999C573.85 6.17333 573.917 5.88666 573.95 5.55999C573.983 5.23333 574 4.87999 574 4.49999Z" fill="#808C98"/>
<path d="M563.572 4.49999C563.572 3.97999 563.612 3.50333 563.692 3.06999C563.772 2.62999 563.906 2.25333 564.092 1.93999C564.279 1.61999 564.539 1.37333 564.872 1.19999C565.206 1.01999 565.622 0.929993 566.122 0.929993C566.629 0.929993 567.046 1.01999 567.372 1.19999C567.699 1.37333 567.956 1.61999 568.142 1.93999C568.336 2.25333 568.469 2.62999 568.542 3.06999C568.622 3.50333 568.662 3.97999 568.662 4.49999C568.662 5.02666 568.622 5.50999 568.542 5.94999C568.469 6.38333 568.336 6.75999 568.142 7.07999C567.956 7.39333 567.699 7.63666 567.372 7.80999C567.046 7.98333 566.629 8.06999 566.122 8.06999C565.622 8.06999 565.206 7.98333 564.872 7.80999C564.539 7.63666 564.279 7.39333 564.092 7.07999C563.906 6.75999 563.772 6.38333 563.692 5.94999C563.612 5.50999 563.572 5.02666 563.572 4.49999ZM567.652 4.49999C567.652 4.13999 567.636 3.79666 567.602 3.46999C567.569 3.14333 567.502 2.85333 567.402 2.59999C567.309 2.34666 567.159 2.14999 566.952 2.00999C566.746 1.86333 566.469 1.78999 566.122 1.78999C565.776 1.78999 565.499 1.86333 565.292 2.00999C565.086 2.14999 564.932 2.34666 564.832 2.59999C564.732 2.85333 564.666 3.14333 564.632 3.46999C564.606 3.79666 564.592 4.13999 564.592 4.49999C564.592 4.87999 564.606 5.23333 564.632 5.55999C564.666 5.88666 564.732 6.17333 564.832 6.41999C564.932 6.66666 565.086 6.85999 565.292 6.99999C565.499 7.13999 565.776 7.20999 566.122 7.20999C566.469 7.20999 566.746 7.13999 566.952 6.99999C567.159 6.85999 567.309 6.66666 567.402 6.41999C567.502 6.17333 567.569 5.88666 567.602 5.55999C567.636 5.23333 567.652 4.87999 567.652 4.49999Z" fill="#808C98"/>
<path d="M557.225 4.49999C557.225 3.97999 557.265 3.50333 557.345 3.06999C557.425 2.62999 557.558 2.25333 557.745 1.93999C557.931 1.61999 558.191 1.37333 558.525 1.19999C558.858 1.01999 559.275 0.929993 559.775 0.929993C560.281 0.929993 560.698 1.01999 561.025 1.19999C561.351 1.37333 561.608 1.61999 561.795 1.93999C561.988 2.25333 562.121 2.62999 562.195 3.06999C562.275 3.50333 562.315 3.97999 562.315 4.49999C562.315 5.02666 562.275 5.50999 562.195 5.94999C562.121 6.38333 561.988 6.75999 561.795 7.07999C561.608 7.39333 561.351 7.63666 561.025 7.80999C560.698 7.98333 560.281 8.06999 559.775 8.06999C559.275 8.06999 558.858 7.98333 558.525 7.80999C558.191 7.63666 557.931 7.39333 557.745 7.07999C557.558 6.75999 557.425 6.38333 557.345 5.94999C557.265 5.50999 557.225 5.02666 557.225 4.49999ZM561.305 4.49999C561.305 4.13999 561.288 3.79666 561.255 3.46999C561.221 3.14333 561.155 2.85333 561.055 2.59999C560.961 2.34666 560.811 2.14999 560.605 2.00999C560.398 1.86333 560.121 1.78999 559.775 1.78999C559.428 1.78999 559.151 1.86333 558.945 2.00999C558.738 2.14999 558.585 2.34666 558.485 2.59999C558.385 2.85333 558.318 3.14333 558.285 3.46999C558.258 3.79666 558.245 4.13999 558.245 4.49999C558.245 4.87999 558.258 5.23333 558.285 5.55999C558.318 5.88666 558.385 6.17333 558.485 6.41999C558.585 6.66666 558.738 6.85999 558.945 6.99999C559.151 7.13999 559.428 7.20999 559.775 7.20999C560.121 7.20999 560.398 7.13999 560.605 6.99999C560.811 6.85999 560.961 6.66666 561.055 6.41999C561.155 6.17333 561.221 5.88666 561.255 5.55999C561.288 5.23333 561.305 4.87999 561.305 4.49999Z" fill="#808C98"/>
<path d="M554.8 1.83999H553.85V0.999992H555.8V7.99999H554.8V1.83999Z" fill="#808C98"/>
<path d="M564.044 11H565.044V17H564.044V11Z" fill="#B3BAC2"/>
<path d="M592.144 11H593.144V17H592.144V11Z" fill="#B3BAC2"/>
<path d="M624.518 4.49999C624.518 3.97999 624.558 3.50333 624.638 3.06999C624.718 2.62999 624.852 2.25333 625.038 1.93999C625.225 1.61999 625.485 1.37333 625.818 1.19999C626.152 1.01999 626.568 0.929993 627.068 0.929993C627.575 0.929993 627.992 1.01999 628.318 1.19999C628.645 1.37333 628.902 1.61999 629.088 1.93999C629.282 2.25333 629.415 2.62999 629.488 3.06999C629.568 3.50333 629.608 3.97999 629.608 4.49999C629.608 5.02666 629.568 5.50999 629.488 5.94999C629.415 6.38333 629.282 6.75999 629.088 7.07999C628.902 7.39333 628.645 7.63666 628.318 7.80999C627.992 7.98333 627.575 8.06999 627.068 8.06999C626.568 8.06999 626.152 7.98333 625.818 7.80999C625.485 7.63666 625.225 7.39333 625.038 7.07999C624.852 6.75999 624.718 6.38333 624.638 5.94999C624.558 5.50999 624.518 5.02666 624.518 4.49999ZM628.598 4.49999C628.598 4.13999 628.582 3.79666 628.548 3.46999C628.515 3.14333 628.448 2.85333 628.348 2.59999C628.255 2.34666 628.105 2.14999 627.898 2.00999C627.692 1.86333 627.415 1.78999 627.068 1.78999C626.722 1.78999 626.445 1.86333 626.238 2.00999C626.032 2.14999 625.878 2.34666 625.778 2.59999C625.678 2.85333 625.612 3.14333 625.578 3.46999C625.552 3.79666 625.538 4.13999 625.538 4.49999C625.538 4.87999 625.552 5.23333 625.578 5.55999C625.612 5.88666 625.678 6.17333 625.778 6.41999C625.878 6.66666 626.032 6.85999 626.238 6.99999C626.445 7.13999 626.722 7.20999 627.068 7.20999C627.415 7.20999 627.692 7.13999 627.898 6.99999C628.105 6.85999 628.255 6.66666 628.348 6.41999C628.448 6.17333 628.515 5.88666 628.548 5.55999C628.582 5.23333 628.598 4.87999 628.598 4.49999Z" fill="#808C98"/>
<path d="M618.171 4.49999C618.171 3.97999 618.211 3.50333 618.291 3.06999C618.371 2.62999 618.504 2.25333 618.691 1.93999C618.877 1.61999 619.137 1.37333 619.471 1.19999C619.804 1.01999 620.221 0.929993 620.721 0.929993C621.227 0.929993 621.644 1.01999 621.971 1.19999C622.297 1.37333 622.554 1.61999 622.741 1.93999C622.934 2.25333 623.067 2.62999 623.141 3.06999C623.221 3.50333 623.261 3.97999 623.261 4.49999C623.261 5.02666 623.221 5.50999 623.141 5.94999C623.067 6.38333 622.934 6.75999 622.741 7.07999C622.554 7.39333 622.297 7.63666 621.971 7.80999C621.644 7.98333 621.227 8.06999 620.721 8.06999C620.221 8.06999 619.804 7.98333 619.471 7.80999C619.137 7.63666 618.877 7.39333 618.691 7.07999C618.504 6.75999 618.371 6.38333 618.291 5.94999C618.211 5.50999 618.171 5.02666 618.171 4.49999ZM622.251 4.49999C622.251 4.13999 622.234 3.79666 622.201 3.46999C622.167 3.14333 622.101 2.85333 622.001 2.59999C621.907 2.34666 621.757 2.14999 621.551 2.00999C621.344 1.86333 621.067 1.78999 620.721 1.78999C620.374 1.78999 620.097 1.86333 619.891 2.00999C619.684 2.14999 619.531 2.34666 619.431 2.59999C619.331 2.85333 619.264 3.14333 619.231 3.46999C619.204 3.79666 619.191 4.13999 619.191 4.49999C619.191 4.87999 619.204 5.23333 619.231 5.55999C619.264 5.88666 619.331 6.17333 619.431 6.41999C619.531 6.66666 619.684 6.85999 619.891 6.99999C620.097 7.13999 620.374 7.20999 620.721 7.20999C621.067 7.20999 621.344 7.13999 621.551 6.99999C621.757 6.85999 621.907 6.66666 622.001 6.41999C622.101 6.17333 622.167 5.88666 622.201 5.55999C622.234 5.23333 622.251 4.87999 622.251 4.49999Z" fill="#808C98"/>
<path d="M615.746 1.83999H614.796V0.999992H616.746V7.99999H615.746V1.83999Z" fill="#808C98"/>
<path d="M612.602 1.83999H611.652V0.999992H613.602V7.99999H612.602V1.83999Z" fill="#808C98"/>
<path d="M620.244 11H621.244V17H620.244V11Z" fill="#B3BAC2"/>
<path d="M648.344 11H649.344V17H648.344V11Z" fill="#B3BAC2"/>
<path d="M682.134 4.49999C682.134 3.97999 682.174 3.50333 682.254 3.06999C682.334 2.62999 682.468 2.25333 682.654 1.93999C682.841 1.61999 683.101 1.37333 683.434 1.19999C683.768 1.01999 684.184 0.929993 684.684 0.929993C685.191 0.929993 685.608 1.01999 685.934 1.19999C686.261 1.37333 686.518 1.61999 686.704 1.93999C686.898 2.25333 687.031 2.62999 687.104 3.06999C687.184 3.50333 687.224 3.97999 687.224 4.49999C687.224 5.02666 687.184 5.50999 687.104 5.94999C687.031 6.38333 686.898 6.75999 686.704 7.07999C686.518 7.39333 686.261 7.63666 685.934 7.80999C685.608 7.98333 685.191 8.06999 684.684 8.06999C684.184 8.06999 683.768 7.98333 683.434 7.80999C683.101 7.63666 682.841 7.39333 682.654 7.07999C682.468 6.75999 682.334 6.38333 682.254 5.94999C682.174 5.50999 682.134 5.02666 682.134 4.49999ZM686.214 4.49999C686.214 4.13999 686.198 3.79666 686.164 3.46999C686.131 3.14333 686.064 2.85333 685.964 2.59999C685.871 2.34666 685.721 2.14999 685.514 2.00999C685.308 1.86333 685.031 1.78999 684.684 1.78999C684.338 1.78999 684.061 1.86333 683.854 2.00999C683.648 2.14999 683.494 2.34666 683.394 2.59999C683.294 2.85333 683.228 3.14333 683.194 3.46999C683.168 3.79666 683.154 4.13999 683.154 4.49999C683.154 4.87999 683.168 5.23333 683.194 5.55999C683.228 5.88666 683.294 6.17333 683.394 6.41999C683.494 6.66666 683.648 6.85999 683.854 6.99999C684.061 7.13999 684.338 7.20999 684.684 7.20999C685.031 7.20999 685.308 7.13999 685.514 6.99999C685.721 6.85999 685.871 6.66666 685.964 6.41999C686.064 6.17333 686.131 5.88666 686.164 5.55999C686.198 5.23333 686.214 4.87999 686.214 4.49999Z" fill="#808C98"/>
<path d="M675.787 4.49999C675.787 3.97999 675.827 3.50333 675.907 3.06999C675.987 2.62999 676.12 2.25333 676.307 1.93999C676.493 1.61999 676.753 1.37333 677.087 1.19999C677.42 1.01999 677.837 0.929993 678.337 0.929993C678.843 0.929993 679.26 1.01999 679.587 1.19999C679.913 1.37333 680.17 1.61999 680.357 1.93999C680.55 2.25333 680.683 2.62999 680.757 3.06999C680.837 3.50333 680.877 3.97999 680.877 4.49999C680.877 5.02666 680.837 5.50999 680.757 5.94999C680.683 6.38333 680.55 6.75999 680.357 7.07999C680.17 7.39333 679.913 7.63666 679.587 7.80999C679.26 7.98333 678.843 8.06999 678.337 8.06999C677.837 8.06999 677.42 7.98333 677.087 7.80999C676.753 7.63666 676.493 7.39333 676.307 7.07999C676.12 6.75999 675.987 6.38333 675.907 5.94999C675.827 5.50999 675.787 5.02666 675.787 4.49999ZM679.867 4.49999C679.867 4.13999 679.85 3.79666 679.817 3.46999C679.783 3.14333 679.717 2.85333 679.617 2.59999C679.523 2.34666 679.373 2.14999 679.167 2.00999C678.96 1.86333 678.683 1.78999 678.337 1.78999C677.99 1.78999 677.713 1.86333 677.507 2.00999C677.3 2.14999 677.147 2.34666 677.047 2.59999C676.947 2.85333 676.88 3.14333 676.847 3.46999C676.82 3.79666 676.807 4.13999 676.807 4.49999C676.807 4.87999 676.82 5.23333 676.847 5.55999C676.88 5.88666 676.947 6.17333 677.047 6.41999C677.147 6.66666 677.3 6.85999 677.507 6.99999C677.713 7.13999 677.99 7.20999 678.337 7.20999C678.683 7.20999 678.96 7.13999 679.167 6.99999C679.373 6.85999 679.523 6.66666 679.617 6.41999C679.717 6.17333 679.783 5.88666 679.817 5.55999C679.85 5.23333 679.867 4.87999 679.867 4.49999Z" fill="#808C98"/>
<path d="M669.72 7.26999L671.78 5.34999C672.173 4.98999 672.483 4.67999 672.71 4.41999C672.937 4.15999 673.1 3.91999 673.2 3.69999C673.3 3.47333 673.35 3.23999 673.35 2.99999C673.35 2.64666 673.247 2.35666 673.04 2.12999C672.84 1.90333 672.513 1.78999 672.06 1.78999C671.773 1.78999 671.53 1.85333 671.33 1.97999C671.13 2.10666 670.977 2.28666 670.87 2.51999C670.763 2.74666 670.707 3.01333 670.7 3.31999H669.74C669.753 2.78666 669.863 2.34333 670.07 1.98999C670.277 1.63666 670.553 1.37333 670.9 1.19999C671.253 1.01999 671.643 0.929993 672.07 0.929993C672.55 0.929993 672.96 1.01666 673.3 1.18999C673.647 1.36333 673.91 1.60666 674.09 1.91999C674.27 2.22666 674.36 2.58666 674.36 2.99999C674.36 3.29999 674.303 3.59333 674.19 3.87999C674.083 4.15999 673.897 4.46333 673.63 4.78999C673.363 5.10999 673 5.48333 672.54 5.90999L671.18 7.15999H674.55V7.99999H669.72V7.26999Z" fill="#808C98"/>
<path d="M667.386 1.83999H666.436V0.999992H668.386V7.99999H667.386V1.83999Z" fill="#808C98"/>
<path d="M676.444 11H677.444V17H676.444V11Z" fill="#B3BAC2"/>
<path d="M704.544 11H705.544V17H704.544V11Z" fill="#B3BAC2"/>
<path d="M738.329 4.49999C738.329 3.97999 738.369 3.50333 738.449 3.06999C738.529 2.62999 738.663 2.25333 738.849 1.93999C739.036 1.61999 739.296 1.37333 739.629 1.19999C739.963 1.01999 740.379 0.929993 740.879 0.929993C741.386 0.929993 741.803 1.01999 742.129 1.19999C742.456 1.37333 742.713 1.61999 742.899 1.93999C743.093 2.25333 743.226 2.62999 743.299 3.06999C743.379 3.50333 743.419 3.97999 743.419 4.49999C743.419 5.02666 743.379 5.50999 743.299 5.94999C743.226 6.38333 743.093 6.75999 742.899 7.07999C742.713 7.39333 742.456 7.63666 742.129 7.80999C741.803 7.98333 741.386 8.06999 740.879 8.06999C740.379 8.06999 739.963 7.98333 739.629 7.80999C739.296 7.63666 739.036 7.39333 738.849 7.07999C738.663 6.75999 738.529 6.38333 738.449 5.94999C738.369 5.50999 738.329 5.02666 738.329 4.49999ZM742.409 4.49999C742.409 4.13999 742.393 3.79666 742.359 3.46999C742.326 3.14333 742.259 2.85333 742.159 2.59999C742.066 2.34666 741.916 2.14999 741.709 2.00999C741.503 1.86333 741.226 1.78999 740.879 1.78999C740.533 1.78999 740.256 1.86333 740.049 2.00999C739.843 2.14999 739.689 2.34666 739.589 2.59999C739.489 2.85333 739.423 3.14333 739.389 3.46999C739.363 3.79666 739.349 4.13999 739.349 4.49999C739.349 4.87999 739.363 5.23333 739.389 5.55999C739.423 5.88666 739.489 6.17333 739.589 6.41999C739.689 6.66666 739.843 6.85999 740.049 6.99999C740.256 7.13999 740.533 7.20999 740.879 7.20999C741.226 7.20999 741.503 7.13999 741.709 6.99999C741.916 6.85999 742.066 6.66666 742.159 6.41999C742.259 6.17333 742.326 5.88666 742.359 5.55999C742.393 5.23333 742.409 4.87999 742.409 4.49999Z" fill="#808C98"/>
<path d="M731.982 4.49999C731.982 3.97999 732.022 3.50333 732.102 3.06999C732.182 2.62999 732.315 2.25333 732.502 1.93999C732.688 1.61999 732.948 1.37333 733.282 1.19999C733.615 1.01999 734.032 0.929993 734.532 0.929993C735.038 0.929993 735.455 1.01999 735.782 1.19999C736.108 1.37333 736.365 1.61999 736.552 1.93999C736.745 2.25333 736.878 2.62999 736.952 3.06999C737.032 3.50333 737.072 3.97999 737.072 4.49999C737.072 5.02666 737.032 5.50999 736.952 5.94999C736.878 6.38333 736.745 6.75999 736.552 7.07999C736.365 7.39333 736.108 7.63666 735.782 7.80999C735.455 7.98333 735.038 8.06999 734.532 8.06999C734.032 8.06999 733.615 7.98333 733.282 7.80999C732.948 7.63666 732.688 7.39333 732.502 7.07999C732.315 6.75999 732.182 6.38333 732.102 5.94999C732.022 5.50999 731.982 5.02666 731.982 4.49999ZM736.062 4.49999C736.062 4.13999 736.045 3.79666 736.012 3.46999C735.978 3.14333 735.912 2.85333 735.812 2.59999C735.718 2.34666 735.568 2.14999 735.362 2.00999C735.155 1.86333 734.878 1.78999 734.532 1.78999C734.185 1.78999 733.908 1.86333 733.702 2.00999C733.495 2.14999 733.342 2.34666 733.242 2.59999C733.142 2.85333 733.075 3.14333 733.042 3.46999C733.015 3.79666 733.002 4.13999 733.002 4.49999C733.002 4.87999 733.015 5.23333 733.042 5.55999C733.075 5.88666 733.142 6.17333 733.242 6.41999C733.342 6.66666 733.495 6.85999 733.702 6.99999C733.908 7.13999 734.185 7.20999 734.532 7.20999C734.878 7.20999 735.155 7.13999 735.362 6.99999C735.568 6.85999 735.718 6.66666 735.812 6.41999C735.912 6.17333 735.978 5.88666 736.012 5.55999C736.045 5.23333 736.062 4.87999 736.062 4.49999Z" fill="#808C98"/>
<path d="M726.015 2.89999C726.042 2.47999 726.158 2.12333 726.365 1.82999C726.578 1.53666 726.858 1.31333 727.205 1.15999C727.552 1.00666 727.948 0.929993 728.395 0.929993C728.868 0.929993 729.268 1.01999 729.595 1.19999C729.922 1.37999 730.168 1.61999 730.335 1.91999C730.508 2.21333 730.595 2.53333 730.595 2.87999C730.595 3.13333 730.542 3.36666 730.435 3.57999C730.328 3.78666 730.182 3.96333 729.995 4.10999C729.815 4.25666 729.608 4.35999 729.375 4.41999V4.46999C729.642 4.53666 729.875 4.64333 730.075 4.78999C730.282 4.92999 730.442 5.11333 730.555 5.33999C730.668 5.55999 730.725 5.82666 730.725 6.13999C730.725 6.51999 730.638 6.85666 730.465 7.14999C730.292 7.43666 730.032 7.66333 729.685 7.82999C729.345 7.98999 728.922 8.06999 728.415 8.06999C727.928 8.06999 727.502 7.99666 727.135 7.84999C726.768 7.70333 726.478 7.47333 726.265 7.15999C726.058 6.84666 725.942 6.43999 725.915 5.93999H726.875C726.908 6.35333 727.045 6.66999 727.285 6.88999C727.525 7.10333 727.902 7.20999 728.415 7.20999C728.715 7.20999 728.962 7.16333 729.155 7.06999C729.348 6.97666 729.488 6.84666 729.575 6.67999C729.668 6.50666 729.715 6.29999 729.715 6.05999C729.715 5.60666 729.558 5.29999 729.245 5.13999C728.938 4.97333 728.472 4.88999 727.845 4.88999H727.595V4.03999H727.855C728.235 4.03333 728.552 3.99333 728.805 3.91999C729.065 3.84666 729.258 3.73666 729.385 3.58999C729.518 3.43666 729.585 3.23666 729.585 2.98999C729.585 2.65666 729.485 2.37333 729.285 2.13999C729.085 1.90666 728.778 1.78999 728.365 1.78999C728.085 1.78999 727.848 1.83999 727.655 1.93999C727.462 2.03333 727.308 2.16333 727.195 2.32999C727.082 2.49666 727.012 2.68666 726.985 2.89999H726.015Z" fill="#808C98"/>
<path d="M723.59 1.83999H722.64V0.999992H724.59V7.99999H723.59V1.83999Z" fill="#808C98"/>
<path d="M732.644 11H733.644V17H732.644V11Z" fill="#B3BAC2"/>
<path d="M760.744 11H761.744V17H760.744V11Z" fill="#B3BAC2"/>
<path d="M794.817 4.49999C794.817 3.97999 794.857 3.50333 794.937 3.06999C795.017 2.62999 795.151 2.25333 795.337 1.93999C795.524 1.61999 795.784 1.37333 796.117 1.19999C796.451 1.01999 796.867 0.929993 797.367 0.929993C797.874 0.929993 798.291 1.01999 798.617 1.19999C798.944 1.37333 799.201 1.61999 799.387 1.93999C799.581 2.25333 799.714 2.62999 799.787 3.06999C799.867 3.50333 799.907 3.97999 799.907 4.49999C799.907 5.02666 799.867 5.50999 799.787 5.94999C799.714 6.38333 799.581 6.75999 799.387 7.07999C799.201 7.39333 798.944 7.63666 798.617 7.80999C798.291 7.98333 797.874 8.06999 797.367 8.06999C796.867 8.06999 796.451 7.98333 796.117 7.80999C795.784 7.63666 795.524 7.39333 795.337 7.07999C795.151 6.75999 795.017 6.38333 794.937 5.94999C794.857 5.50999 794.817 5.02666 794.817 4.49999ZM798.897 4.49999C798.897 4.13999 798.881 3.79666 798.847 3.46999C798.814 3.14333 798.747 2.85333 798.647 2.59999C798.554 2.34666 798.404 2.14999 798.197 2.00999C797.991 1.86333 797.714 1.78999 797.367 1.78999C797.021 1.78999 796.744 1.86333 796.537 2.00999C796.331 2.14999 796.177 2.34666 796.077 2.59999C795.977 2.85333 795.911 3.14333 795.877 3.46999C795.851 3.79666 795.837 4.13999 795.837 4.49999C795.837 4.87999 795.851 5.23333 795.877 5.55999C795.911 5.88666 795.977 6.17333 796.077 6.41999C796.177 6.66666 796.331 6.85999 796.537 6.99999C796.744 7.13999 797.021 7.20999 797.367 7.20999C797.714 7.20999 797.991 7.13999 798.197 6.99999C798.404 6.85999 798.554 6.66666 798.647 6.41999C798.747 6.17333 798.814 5.88666 798.847 5.55999C798.881 5.23333 798.897 4.87999 798.897 4.49999Z" fill="#808C98"/>
<path d="M788.47 4.49999C788.47 3.97999 788.51 3.50333 788.59 3.06999C788.67 2.62999 788.803 2.25333 788.99 1.93999C789.176 1.61999 789.436 1.37333 789.77 1.19999C790.103 1.01999 790.52 0.929993 791.02 0.929993C791.526 0.929993 791.943 1.01999 792.27 1.19999C792.596 1.37333 792.853 1.61999 793.04 1.93999C793.233 2.25333 793.366 2.62999 793.44 3.06999C793.52 3.50333 793.56 3.97999 793.56 4.49999C793.56 5.02666 793.52 5.50999 793.44 5.94999C793.366 6.38333 793.233 6.75999 793.04 7.07999C792.853 7.39333 792.596 7.63666 792.27 7.80999C791.943 7.98333 791.526 8.06999 791.02 8.06999C790.52 8.06999 790.103 7.98333 789.77 7.80999C789.436 7.63666 789.176 7.39333 788.99 7.07999C788.803 6.75999 788.67 6.38333 788.59 5.94999C788.51 5.50999 788.47 5.02666 788.47 4.49999ZM792.55 4.49999C792.55 4.13999 792.533 3.79666 792.5 3.46999C792.466 3.14333 792.4 2.85333 792.3 2.59999C792.206 2.34666 792.056 2.14999 791.85 2.00999C791.643 1.86333 791.366 1.78999 791.02 1.78999C790.673 1.78999 790.396 1.86333 790.19 2.00999C789.983 2.14999 789.83 2.34666 789.73 2.59999C789.63 2.85333 789.563 3.14333 789.53 3.46999C789.503 3.79666 789.49 4.13999 789.49 4.49999C789.49 4.87999 789.503 5.23333 789.53 5.55999C789.563 5.88666 789.63 6.17333 789.73 6.41999C789.83 6.66666 789.983 6.85999 790.19 6.99999C790.396 7.13999 790.673 7.20999 791.02 7.20999C791.366 7.20999 791.643 7.13999 791.85 6.99999C792.056 6.85999 792.206 6.66666 792.3 6.41999C792.4 6.17333 792.466 5.88666 792.5 5.55999C792.533 5.23333 792.55 4.87999 792.55 4.49999Z" fill="#808C98"/>
<path d="M785.367 6.39999H781.697V5.66999L785.147 0.999992H786.357V5.54999H787.317V6.39999H786.357V7.99999H785.367V6.39999ZM785.387 5.54999V2.02999L782.837 5.54999H785.387Z" fill="#808C98"/>
<path d="M779.502 1.83999H778.552V0.999992H780.502V7.99999H779.502V1.83999Z" fill="#808C98"/>
<path d="M788.844 11H789.844V17H788.844V11Z" fill="#B3BAC2"/>
<path d="M816.944 11H817.944V17H816.944V11Z" fill="#B3BAC2"/>
<path d="M850.861 4.49999C850.861 3.97999 850.901 3.50333 850.981 3.06999C851.061 2.62999 851.194 2.25333 851.381 1.93999C851.568 1.61999 851.828 1.37333 852.161 1.19999C852.494 1.01999 852.911 0.929993 853.411 0.929993C853.918 0.929993 854.334 1.01999 854.661 1.19999C854.988 1.37333 855.244 1.61999 855.431 1.93999C855.624 2.25333 855.758 2.62999 855.831 3.06999C855.911 3.50333 855.951 3.97999 855.951 4.49999C855.951 5.02666 855.911 5.50999 855.831 5.94999C855.758 6.38333 855.624 6.75999 855.431 7.07999C855.244 7.39333 854.988 7.63666 854.661 7.80999C854.334 7.98333 853.918 8.06999 853.411 8.06999C852.911 8.06999 852.494 7.98333 852.161 7.80999C851.828 7.63666 851.568 7.39333 851.381 7.07999C851.194 6.75999 851.061 6.38333 850.981 5.94999C850.901 5.50999 850.861 5.02666 850.861 4.49999ZM854.941 4.49999C854.941 4.13999 854.925 3.79666 854.891 3.46999C854.858 3.14333 854.791 2.85333 854.691 2.59999C854.598 2.34666 854.448 2.14999 854.241 2.00999C854.034 1.86333 853.758 1.78999 853.411 1.78999C853.064 1.78999 852.788 1.86333 852.581 2.00999C852.374 2.14999 852.221 2.34666 852.121 2.59999C852.021 2.85333 851.954 3.14333 851.921 3.46999C851.894 3.79666 851.881 4.13999 851.881 4.49999C851.881 4.87999 851.894 5.23333 851.921 5.55999C851.954 5.88666 852.021 6.17333 852.121 6.41999C852.221 6.66666 852.374 6.85999 852.581 6.99999C852.788 7.13999 853.064 7.20999 853.411 7.20999C853.758 7.20999 854.034 7.13999 854.241 6.99999C854.448 6.85999 854.598 6.66666 854.691 6.41999C854.791 6.17333 854.858 5.88666 854.891 5.55999C854.925 5.23333 854.941 4.87999 854.941 4.49999Z" fill="#808C98"/>
<path d="M844.513 4.49999C844.513 3.97999 844.553 3.50333 844.633 3.06999C844.713 2.62999 844.847 2.25333 845.034 1.93999C845.22 1.61999 845.48 1.37333 845.813 1.19999C846.147 1.01999 846.563 0.929993 847.063 0.929993C847.57 0.929993 847.987 1.01999 848.313 1.19999C848.64 1.37333 848.897 1.61999 849.083 1.93999C849.277 2.25333 849.41 2.62999 849.483 3.06999C849.563 3.50333 849.604 3.97999 849.604 4.49999C849.604 5.02666 849.563 5.50999 849.483 5.94999C849.41 6.38333 849.277 6.75999 849.083 7.07999C848.897 7.39333 848.64 7.63666 848.313 7.80999C847.987 7.98333 847.57 8.06999 847.063 8.06999C846.563 8.06999 846.147 7.98333 845.813 7.80999C845.48 7.63666 845.22 7.39333 845.034 7.07999C844.847 6.75999 844.713 6.38333 844.633 5.94999C844.553 5.50999 844.513 5.02666 844.513 4.49999ZM848.594 4.49999C848.594 4.13999 848.577 3.79666 848.544 3.46999C848.51 3.14333 848.444 2.85333 848.344 2.59999C848.25 2.34666 848.1 2.14999 847.893 2.00999C847.687 1.86333 847.41 1.78999 847.063 1.78999C846.717 1.78999 846.44 1.86333 846.233 2.00999C846.027 2.14999 845.873 2.34666 845.773 2.59999C845.673 2.85333 845.607 3.14333 845.573 3.46999C845.547 3.79666 845.534 4.13999 845.534 4.49999C845.534 4.87999 845.547 5.23333 845.573 5.55999C845.607 5.88666 845.673 6.17333 845.773 6.41999C845.873 6.66666 846.027 6.85999 846.233 6.99999C846.44 7.13999 846.717 7.20999 847.063 7.20999C847.41 7.20999 847.687 7.13999 847.893 6.99999C848.1 6.85999 848.25 6.66666 848.344 6.41999C848.444 6.17333 848.51 5.88666 848.544 5.55999C848.577 5.23333 848.594 4.87999 848.594 4.49999Z" fill="#808C98"/>
<path d="M842.813 0.999992V1.83999H839.433V3.92999C839.573 3.73666 839.776 3.57999 840.043 3.45999C840.31 3.33999 840.613 3.27999 840.953 3.27999C841.386 3.27999 841.75 3.35333 842.043 3.49999C842.336 3.64666 842.573 3.83666 842.753 4.06999C842.94 4.30333 843.073 4.55666 843.153 4.82999C843.24 5.09666 843.283 5.35333 843.283 5.59999C843.283 6.05333 843.186 6.46666 842.993 6.83999C842.806 7.21333 842.526 7.51333 842.153 7.73999C841.78 7.95999 841.326 8.06999 840.793 8.06999C840.313 8.06999 839.893 7.98666 839.533 7.81999C839.18 7.64666 838.896 7.41333 838.683 7.11999C838.476 6.81999 838.343 6.47999 838.283 6.09999H839.253C839.34 6.44666 839.516 6.71999 839.783 6.91999C840.056 7.11333 840.396 7.20999 840.803 7.20999C841.136 7.20999 841.413 7.14333 841.633 7.00999C841.853 6.87666 842.013 6.69333 842.113 6.45999C842.22 6.21999 842.273 5.93999 842.273 5.61999C842.273 5.15333 842.146 4.78999 841.893 4.52999C841.64 4.26999 841.28 4.13999 840.813 4.13999C840.46 4.13999 840.16 4.22333 839.913 4.38999C839.666 4.55666 839.49 4.78333 839.383 5.06999H838.443V0.999992H842.813Z" fill="#808C98"/>
<path d="M835.858 1.83999H834.909V0.999992H836.858V7.99999H835.858V1.83999Z" fill="#808C98"/>
<path d="M845.044 11H846.044V17H845.044V11Z" fill="#B3BAC2"/>
<path d="M873.144 11H874.144V17H873.144V11Z" fill="#B3BAC2"/>
<path d="M906.983 4.49999C906.983 3.97999 907.023 3.50333 907.103 3.06999C907.183 2.62999 907.316 2.25333 907.503 1.93999C907.69 1.61999 907.95 1.37333 908.283 1.19999C908.616 1.01999 909.033 0.929993 909.533 0.929993C910.04 0.929993 910.456 1.01999 910.783 1.19999C911.11 1.37333 911.366 1.61999 911.553 1.93999C911.746 2.25333 911.88 2.62999 911.953 3.06999C912.033 3.50333 912.073 3.97999 912.073 4.49999C912.073 5.02666 912.033 5.50999 911.953 5.94999C911.88 6.38333 911.746 6.75999 911.553 7.07999C911.366 7.39333 911.11 7.63666 910.783 7.80999C910.456 7.98333 910.04 8.06999 909.533 8.06999C909.033 8.06999 908.616 7.98333 908.283 7.80999C907.95 7.63666 907.69 7.39333 907.503 7.07999C907.316 6.75999 907.183 6.38333 907.103 5.94999C907.023 5.50999 906.983 5.02666 906.983 4.49999ZM911.063 4.49999C911.063 4.13999 911.046 3.79666 911.013 3.46999C910.98 3.14333 910.913 2.85333 910.813 2.59999C910.72 2.34666 910.57 2.14999 910.363 2.00999C910.156 1.86333 909.88 1.78999 909.533 1.78999C909.186 1.78999 908.91 1.86333 908.703 2.00999C908.496 2.14999 908.343 2.34666 908.243 2.59999C908.143 2.85333 908.076 3.14333 908.043 3.46999C908.016 3.79666 908.003 4.13999 908.003 4.49999C908.003 4.87999 908.016 5.23333 908.043 5.55999C908.076 5.88666 908.143 6.17333 908.243 6.41999C908.343 6.66666 908.496 6.85999 908.703 6.99999C908.91 7.13999 909.186 7.20999 909.533 7.20999C909.88 7.20999 910.156 7.13999 910.363 6.99999C910.57 6.85999 910.72 6.66666 910.813 6.41999C910.913 6.17333 910.98 5.88666 911.013 5.55999C911.046 5.23333 911.063 4.87999 911.063 4.49999Z" fill="#808C98"/>
<path d="M900.635 4.49999C900.635 3.97999 900.675 3.50333 900.755 3.06999C900.835 2.62999 900.969 2.25333 901.155 1.93999C901.342 1.61999 901.602 1.37333 901.935 1.19999C902.269 1.01999 902.685 0.929993 903.185 0.929993C903.692 0.929993 904.109 1.01999 904.435 1.19999C904.762 1.37333 905.019 1.61999 905.205 1.93999C905.399 2.25333 905.532 2.62999 905.605 3.06999C905.685 3.50333 905.725 3.97999 905.725 4.49999C905.725 5.02666 905.685 5.50999 905.605 5.94999C905.532 6.38333 905.399 6.75999 905.205 7.07999C905.019 7.39333 904.762 7.63666 904.435 7.80999C904.109 7.98333 903.692 8.06999 903.185 8.06999C902.685 8.06999 902.269 7.98333 901.935 7.80999C901.602 7.63666 901.342 7.39333 901.155 7.07999C900.969 6.75999 900.835 6.38333 900.755 5.94999C900.675 5.50999 900.635 5.02666 900.635 4.49999ZM904.715 4.49999C904.715 4.13999 904.699 3.79666 904.665 3.46999C904.632 3.14333 904.565 2.85333 904.465 2.59999C904.372 2.34666 904.222 2.14999 904.015 2.00999C903.809 1.86333 903.532 1.78999 903.185 1.78999C902.839 1.78999 902.562 1.86333 902.355 2.00999C902.149 2.14999 901.995 2.34666 901.895 2.59999C901.795 2.85333 901.729 3.14333 901.695 3.46999C901.669 3.79666 901.655 4.13999 901.655 4.49999C901.655 4.87999 901.669 5.23333 901.695 5.55999C901.729 5.88666 901.795 6.17333 901.895 6.41999C901.995 6.66666 902.149 6.85999 902.355 6.99999C902.562 7.13999 902.839 7.20999 903.185 7.20999C903.532 7.20999 903.809 7.13999 904.015 6.99999C904.222 6.85999 904.372 6.66666 904.465 6.41999C904.565 6.17333 904.632 5.88666 904.665 5.55999C904.699 5.23333 904.715 4.87999 904.715 4.49999Z" fill="#808C98"/>
<path d="M897.001 8.06999C896.508 8.06999 896.068 7.96333 895.681 7.74999C895.301 7.53666 895.004 7.24333 894.791 6.86999C894.578 6.49666 894.471 6.07666 894.471 5.60999C894.471 5.24333 894.538 4.87666 894.671 4.50999C894.811 4.14333 895.028 3.76999 895.321 3.38999L897.151 0.999992H898.231L896.151 3.69999L894.991 4.88999C895.131 4.41666 895.388 4.03333 895.761 3.73999C896.141 3.44666 896.598 3.29999 897.131 3.29999C897.598 3.29999 898.011 3.39999 898.371 3.59999C898.731 3.79333 899.011 4.06666 899.211 4.41999C899.418 4.76666 899.521 5.16999 899.521 5.62999C899.521 6.09666 899.411 6.51666 899.191 6.88999C898.978 7.25666 898.678 7.54666 898.291 7.75999C897.911 7.96666 897.481 8.06999 897.001 8.06999ZM895.481 5.62999C895.481 5.94999 895.538 6.22999 895.651 6.46999C895.771 6.70333 895.944 6.88666 896.171 7.01999C896.404 7.14666 896.681 7.20999 897.001 7.20999C897.328 7.20999 897.601 7.14666 897.821 7.01999C898.048 6.88666 898.218 6.70333 898.331 6.46999C898.451 6.22999 898.511 5.94999 898.511 5.62999C898.511 5.30333 898.451 5.02666 898.331 4.79999C898.218 4.57333 898.048 4.39999 897.821 4.27999C897.601 4.15999 897.328 4.09999 897.001 4.09999C896.681 4.09999 896.404 4.15999 896.171 4.27999C895.944 4.39999 895.771 4.57333 895.651 4.79999C895.538 5.02666 895.481 5.30333 895.481 5.62999Z" fill="#808C98"/>
<path d="M892.137 1.83999H891.187V0.999992H893.137V7.99999H892.137V1.83999Z" fill="#808C98"/>
<path d="M901.244 11H902.244V17H901.244V11Z" fill="#B3BAC2"/>
</svg>
