<svg width="17" height="914" viewBox="0 0 17 914" fill="none" xmlns="http://www.w3.org/2000/svg">
<path d="M4.32073 897.435C3.80073 897.435 3.32406 897.395 2.89073 897.315C2.45073 897.235 2.07407 897.102 1.76073 896.915C1.44073 896.728 1.19406 896.468 1.02073 896.135C0.840732 895.802 0.750732 895.385 0.750732 894.885C0.750732 894.378 0.840731 893.962 1.02073 893.635C1.19406 893.308 1.44073 893.052 1.76073 892.865C2.07407 892.672 2.45073 892.538 2.89073 892.465C3.32406 892.385 3.80073 892.345 4.32073 892.345C4.8474 892.345 5.33073 892.385 5.77073 892.465C6.20406 892.538 6.58073 892.672 6.90073 892.865C7.21406 893.052 7.4574 893.308 7.63073 893.635C7.80407 893.962 7.89073 894.378 7.89073 894.885C7.89073 895.385 7.80407 895.802 7.63073 896.135C7.4574 896.468 7.21407 896.728 6.90073 896.915C6.58073 897.102 6.20407 897.235 5.77073 897.315C5.33073 897.395 4.8474 897.435 4.32073 897.435ZM4.32073 893.355C3.96073 893.355 3.6174 893.372 3.29073 893.405C2.96406 893.438 2.67406 893.505 2.42073 893.605C2.1674 893.698 1.97073 893.848 1.83073 894.055C1.68406 894.262 1.61073 894.538 1.61073 894.885C1.61073 895.232 1.68406 895.508 1.83073 895.715C1.97073 895.922 2.1674 896.075 2.42073 896.175C2.67406 896.275 2.96406 896.342 3.29073 896.375C3.6174 896.402 3.96073 896.415 4.32073 896.415C4.70073 896.415 5.05407 896.402 5.38073 896.375C5.7074 896.342 5.99407 896.275 6.24073 896.175C6.4874 896.075 6.68073 895.922 6.82073 895.715C6.96073 895.508 7.03073 895.232 7.03073 894.885C7.03073 894.538 6.96073 894.262 6.82073 894.055C6.68073 893.848 6.4874 893.698 6.24073 893.605C5.99407 893.505 5.7074 893.438 5.38073 893.405C5.05407 893.372 4.70073 893.355 4.32073 893.355Z" fill="#808C98"/>
<path d="M4.32073 903.783C3.80073 903.783 3.32407 903.743 2.89073 903.663C2.45073 903.583 2.07407 903.449 1.76073 903.263C1.44073 903.076 1.19407 902.816 1.02073 902.483C0.840732 902.149 0.750732 901.733 0.750732 901.233C0.750732 900.726 0.840732 900.309 1.02073 899.983C1.19406 899.656 1.44073 899.399 1.76073 899.213C2.07407 899.019 2.45073 898.886 2.89073 898.813C3.32406 898.733 3.80073 898.693 4.32073 898.693C4.8474 898.693 5.33073 898.733 5.77073 898.813C6.20407 898.886 6.58073 899.019 6.90073 899.213C7.21407 899.399 7.4574 899.656 7.63073 899.983C7.80407 900.309 7.89073 900.726 7.89073 901.233C7.89073 901.733 7.80407 902.149 7.63073 902.483C7.4574 902.816 7.21407 903.076 6.90073 903.263C6.58073 903.449 6.20407 903.583 5.77073 903.663C5.33073 903.743 4.8474 903.783 4.32073 903.783ZM4.32073 899.703C3.96073 899.703 3.6174 899.719 3.29073 899.753C2.96406 899.786 2.67407 899.853 2.42073 899.953C2.1674 900.046 1.97073 900.196 1.83073 900.403C1.68407 900.609 1.61073 900.886 1.61073 901.233C1.61073 901.579 1.68407 901.856 1.83073 902.063C1.97073 902.269 2.1674 902.423 2.42073 902.523C2.67407 902.623 2.96407 902.689 3.29073 902.723C3.6174 902.749 3.96073 902.763 4.32073 902.763C4.70073 902.763 5.05407 902.749 5.38073 902.723C5.7074 902.689 5.99407 902.623 6.24073 902.523C6.4874 902.423 6.68073 902.269 6.82073 902.063C6.96073 901.856 7.03073 901.579 7.03073 901.233C7.03073 900.886 6.96073 900.609 6.82073 900.403C6.68073 900.196 6.4874 900.046 6.24073 899.953C5.99407 899.853 5.7074 899.786 5.38073 899.753C5.05407 899.719 4.70073 899.703 4.32073 899.703Z" fill="#808C98"/>
<path d="M7.89073 907.417C7.89073 907.91 7.78407 908.35 7.57073 908.737C7.3574 909.117 7.06407 909.414 6.69073 909.627C6.3174 909.84 5.8974 909.947 5.43073 909.947C5.06407 909.947 4.6974 909.88 4.33073 909.747C3.96407 909.607 3.59073 909.39 3.21073 909.097L0.820732 907.267L0.820732 906.187L3.52073 908.267L4.71073 909.427C4.2374 909.287 3.85407 909.03 3.56073 908.657C3.2674 908.277 3.12073 907.82 3.12073 907.287C3.12073 906.82 3.22073 906.407 3.42073 906.047C3.61407 905.687 3.8874 905.407 4.24073 905.207C4.5874 905 4.99073 904.897 5.45073 904.897C5.9174 904.897 6.3374 905.007 6.71073 905.227C7.0774 905.44 7.3674 905.74 7.58073 906.127C7.7874 906.507 7.89073 906.937 7.89073 907.417ZM5.45073 908.937C5.77073 908.937 6.05073 908.88 6.29073 908.767C6.52407 908.647 6.7074 908.474 6.84073 908.247C6.9674 908.014 7.03073 907.737 7.03073 907.417C7.03073 907.09 6.9674 906.817 6.84073 906.597C6.7074 906.37 6.52407 906.2 6.29073 906.087C6.05073 905.967 5.77073 905.907 5.45073 905.907C5.12407 905.907 4.8474 905.967 4.62073 906.087C4.39407 906.2 4.22073 906.37 4.10073 906.597C3.98073 906.817 3.92073 907.09 3.92073 907.417C3.92073 907.737 3.98073 908.014 4.10073 908.247C4.22073 908.474 4.39407 908.647 4.62073 908.767C4.8474 908.88 5.12407 908.937 5.45073 908.937Z" fill="#808C98"/>
<path d="M1.66073 912.281L1.66073 913.231L0.820732 913.231L0.820732 911.281L7.82073 911.281L7.82073 912.281L1.66073 912.281Z" fill="#808C98"/>
<path d="M10.8207 903.174L10.8207 902.174L16.8207 902.174L16.8207 903.174L10.8207 903.174Z" fill="#B3BAC2"/>
<path d="M10.8207 875.074L10.8207 874.074L16.8207 874.074L16.8207 875.074L10.8207 875.074Z" fill="#B3BAC2"/>
<path d="M4.32073 841.157C3.80073 841.157 3.32406 841.117 2.89073 841.037C2.45073 840.957 2.07406 840.824 1.76073 840.637C1.44073 840.45 1.19406 840.19 1.02073 839.857C0.840729 839.524 0.750729 839.107 0.750729 838.607C0.750729 838.1 0.840729 837.684 1.02073 837.357C1.19406 837.03 1.44073 836.774 1.76073 836.587C2.07406 836.394 2.45073 836.26 2.89073 836.187C3.32406 836.107 3.80073 836.067 4.32073 836.067C4.8474 836.067 5.33073 836.107 5.77073 836.187C6.20406 836.26 6.58073 836.394 6.90073 836.587C7.21406 836.774 7.4574 837.03 7.63073 837.357C7.80406 837.684 7.89073 838.1 7.89073 838.607C7.89073 839.107 7.80406 839.524 7.63073 839.857C7.4574 840.19 7.21406 840.45 6.90073 840.637C6.58073 840.824 6.20406 840.957 5.77073 841.037C5.33073 841.117 4.8474 841.157 4.32073 841.157ZM4.32073 837.077C3.96073 837.077 3.6174 837.094 3.29073 837.127C2.96406 837.16 2.67406 837.227 2.42073 837.327C2.1674 837.42 1.97073 837.57 1.83073 837.777C1.68406 837.984 1.61073 838.26 1.61073 838.607C1.61073 838.954 1.68406 839.23 1.83073 839.437C1.97073 839.644 2.1674 839.797 2.42073 839.897C2.67406 839.997 2.96406 840.064 3.29073 840.097C3.6174 840.124 3.96073 840.137 4.32073 840.137C4.70073 840.137 5.05406 840.124 5.38073 840.097C5.7074 840.064 5.99406 839.997 6.24073 839.897C6.4874 839.797 6.68073 839.644 6.82073 839.437C6.96073 839.23 7.03073 838.954 7.03073 838.607C7.03073 838.26 6.96073 837.984 6.82073 837.777C6.68073 837.57 6.4874 837.42 6.24073 837.327C5.99406 837.227 5.7074 837.16 5.38073 837.127C5.05406 837.094 4.70073 837.077 4.32073 837.077Z" fill="#808C98"/>
<path d="M4.32073 847.505C3.80073 847.505 3.32406 847.465 2.89073 847.385C2.45073 847.305 2.07406 847.171 1.76073 846.985C1.44073 846.798 1.19406 846.538 1.02073 846.205C0.840729 845.871 0.750729 845.455 0.750729 844.955C0.750729 844.448 0.840729 844.031 1.02073 843.705C1.19406 843.378 1.44073 843.121 1.76073 842.935C2.07406 842.741 2.45073 842.608 2.89073 842.535C3.32406 842.455 3.80073 842.415 4.32073 842.415C4.8474 842.415 5.33073 842.455 5.77073 842.535C6.20406 842.608 6.58073 842.741 6.90073 842.935C7.21406 843.121 7.4574 843.378 7.63073 843.705C7.80406 844.031 7.89073 844.448 7.89073 844.955C7.89073 845.455 7.80406 845.871 7.63073 846.205C7.4574 846.538 7.21406 846.798 6.90073 846.985C6.58073 847.171 6.20406 847.305 5.77073 847.385C5.33073 847.465 4.8474 847.505 4.32073 847.505ZM4.32073 843.425C3.96073 843.425 3.6174 843.441 3.29073 843.475C2.96406 843.508 2.67406 843.575 2.42073 843.675C2.1674 843.768 1.97073 843.918 1.83073 844.125C1.68406 844.331 1.61073 844.608 1.61073 844.955C1.61073 845.301 1.68406 845.578 1.83073 845.785C1.97073 845.991 2.1674 846.145 2.42073 846.245C2.67406 846.345 2.96406 846.411 3.29073 846.445C3.6174 846.471 3.96073 846.485 4.32073 846.485C4.70073 846.485 5.05406 846.471 5.38073 846.445C5.7074 846.411 5.99406 846.345 6.24073 846.245C6.4874 846.145 6.68073 845.991 6.82073 845.785C6.96073 845.578 7.03073 845.301 7.03073 844.955C7.03073 844.608 6.96073 844.331 6.82073 844.125C6.68073 843.918 6.4874 843.768 6.24073 843.675C5.99406 843.575 5.7074 843.508 5.38073 843.475C5.05406 843.441 4.70073 843.425 4.32073 843.425Z" fill="#808C98"/>
<path d="M0.820729 849.205L1.66073 849.205L1.66073 852.585L3.75073 852.585C3.5574 852.445 3.40073 852.242 3.28073 851.975C3.16073 851.708 3.10073 851.405 3.10073 851.065C3.10073 850.632 3.17406 850.268 3.32073 849.975C3.4674 849.682 3.6574 849.445 3.89073 849.265C4.12406 849.078 4.3774 848.945 4.65073 848.865C4.9174 848.778 5.17406 848.735 5.42073 848.735C5.87406 848.735 6.2874 848.832 6.66073 849.025C7.03406 849.212 7.33406 849.492 7.56073 849.865C7.78073 850.238 7.89073 850.692 7.89073 851.225C7.89073 851.705 7.8074 852.125 7.64073 852.485C7.4674 852.838 7.23406 853.122 6.94073 853.335C6.64073 853.542 6.30073 853.675 5.92073 853.735L5.92073 852.765C6.2674 852.678 6.54073 852.502 6.74073 852.235C6.93406 851.962 7.03073 851.622 7.03073 851.215C7.03073 850.882 6.96406 850.605 6.83073 850.385C6.6974 850.165 6.51406 850.005 6.28073 849.905C6.04073 849.798 5.76073 849.745 5.44073 849.745C4.97406 849.745 4.61073 849.872 4.35073 850.125C4.09073 850.378 3.96073 850.738 3.96073 851.205C3.96073 851.558 4.04406 851.858 4.21073 852.105C4.3774 852.352 4.60406 852.528 4.89073 852.635L4.89073 853.575L0.82073 853.575L0.820729 849.205Z" fill="#808C98"/>
<path d="M1.66073 856.16L1.66073 857.11L0.82073 857.11L0.82073 855.16L7.82073 855.16L7.82073 856.16L1.66073 856.16Z" fill="#808C98"/>
<path d="M10.8207 846.974L10.8207 845.974L16.8207 845.974L16.8207 846.974L10.8207 846.974Z" fill="#B3BAC2"/>
<path d="M10.8207 818.874L10.8207 817.874L16.8207 817.874L16.8207 818.874L10.8207 818.874Z" fill="#B3BAC2"/>
<path d="M4.32073 784.801C3.80073 784.801 3.32406 784.761 2.89073 784.681C2.45073 784.601 2.07406 784.467 1.76073 784.281C1.44073 784.094 1.19406 783.834 1.02073 783.501C0.840727 783.167 0.750727 782.751 0.750727 782.251C0.750727 781.744 0.840727 781.327 1.02073 781.001C1.19406 780.674 1.44073 780.417 1.76073 780.231C2.07406 780.037 2.45073 779.904 2.89073 779.831C3.32406 779.751 3.80073 779.711 4.32073 779.711C4.84739 779.711 5.33073 779.751 5.77073 779.831C6.20406 779.904 6.58073 780.037 6.90073 780.231C7.21406 780.417 7.45739 780.674 7.63073 781.001C7.80406 781.327 7.89073 781.744 7.89073 782.251C7.89073 782.751 7.80406 783.167 7.63073 783.501C7.45739 783.834 7.21406 784.094 6.90073 784.281C6.58073 784.467 6.20406 784.601 5.77073 784.681C5.33073 784.761 4.84739 784.801 4.32073 784.801ZM4.32073 780.721C3.96073 780.721 3.61739 780.737 3.29073 780.771C2.96406 780.804 2.67406 780.871 2.42073 780.971C2.16739 781.064 1.97073 781.214 1.83073 781.421C1.68406 781.627 1.61073 781.904 1.61073 782.251C1.61073 782.597 1.68406 782.874 1.83073 783.081C1.97073 783.287 2.16739 783.441 2.42073 783.541C2.67406 783.641 2.96406 783.707 3.29073 783.741C3.61739 783.767 3.96073 783.781 4.32073 783.781C4.70073 783.781 5.05406 783.767 5.38073 783.741C5.70739 783.707 5.99406 783.641 6.24073 783.541C6.48739 783.441 6.68073 783.287 6.82073 783.081C6.96073 782.874 7.03073 782.597 7.03073 782.251C7.03073 781.904 6.96073 781.627 6.82073 781.421C6.68073 781.214 6.48739 781.064 6.24073 780.971C5.99406 780.871 5.70739 780.804 5.38073 780.771C5.05406 780.737 4.70073 780.721 4.32073 780.721Z" fill="#808C98"/>
<path d="M4.32073 791.148C3.80073 791.148 3.32406 791.108 2.89073 791.028C2.45073 790.948 2.07406 790.815 1.76073 790.628C1.44073 790.442 1.19406 790.182 1.02073 789.848C0.840727 789.515 0.750727 789.098 0.750727 788.598C0.750727 788.092 0.840727 787.675 1.02073 787.348C1.19406 787.022 1.44073 786.765 1.76073 786.578C2.07406 786.385 2.45073 786.252 2.89073 786.178C3.32406 786.098 3.80073 786.058 4.32073 786.058C4.84739 786.058 5.33073 786.098 5.77073 786.178C6.20406 786.252 6.58073 786.385 6.90073 786.578C7.21406 786.765 7.45739 787.022 7.63073 787.348C7.80406 787.675 7.89073 788.092 7.89073 788.598C7.89073 789.098 7.80406 789.515 7.63073 789.848C7.45739 790.182 7.21406 790.442 6.90073 790.628C6.58073 790.815 6.20406 790.948 5.77073 791.028C5.33073 791.108 4.84739 791.148 4.32073 791.148ZM4.32073 787.068C3.96073 787.068 3.61739 787.085 3.29073 787.118C2.96406 787.152 2.67406 787.218 2.42073 787.318C2.16739 787.412 1.97073 787.562 1.83073 787.768C1.68406 787.975 1.61073 788.252 1.61073 788.598C1.61073 788.945 1.68406 789.222 1.83073 789.428C1.97073 789.635 2.16739 789.788 2.42073 789.888C2.67406 789.988 2.96406 790.055 3.29073 790.088C3.61739 790.115 3.96073 790.128 4.32073 790.128C4.70073 790.128 5.05406 790.115 5.38073 790.088C5.70739 790.055 5.99406 789.988 6.24073 789.888C6.48739 789.788 6.68073 789.635 6.82073 789.428C6.96073 789.222 7.03073 788.945 7.03073 788.598C7.03073 788.252 6.96073 787.975 6.82073 787.768C6.68073 787.562 6.48739 787.412 6.24073 787.318C5.99406 787.218 5.70739 787.152 5.38073 787.118C5.05406 787.085 4.70073 787.068 4.32073 787.068Z" fill="#808C98"/>
<path d="M6.22073 794.251L6.22073 797.921L5.49073 797.921L0.820727 794.471L0.820727 793.261L5.37073 793.261L5.37073 792.301L6.22073 792.301L6.22073 793.261L7.82073 793.261L7.82073 794.251L6.22073 794.251ZM5.37073 794.231L1.85073 794.231L5.37073 796.781L5.37073 794.231Z" fill="#808C98"/>
<path d="M1.66073 800.116L1.66073 801.066L0.820727 801.066L0.820727 799.116L7.82073 799.116L7.82073 800.116L1.66073 800.116Z" fill="#808C98"/>
<path d="M10.8207 790.774L10.8207 789.774L16.8207 789.774L16.8207 790.774L10.8207 790.774Z" fill="#B3BAC2"/>
<path d="M10.8207 762.674L10.8207 761.674L16.8207 761.674L16.8207 762.674L10.8207 762.674Z" fill="#B3BAC2"/>
<path d="M4.32072 728.889C3.80072 728.889 3.32406 728.849 2.89072 728.769C2.45072 728.689 2.07406 728.555 1.76072 728.369C1.44072 728.182 1.19406 727.922 1.02072 727.589C0.840724 727.255 0.750724 726.839 0.750724 726.339C0.750724 725.832 0.840724 725.415 1.02072 725.089C1.19406 724.762 1.44072 724.505 1.76072 724.319C2.07406 724.125 2.45072 723.992 2.89072 723.919C3.32406 723.839 3.80072 723.799 4.32072 723.799C4.84739 723.799 5.33072 723.839 5.77072 723.919C6.20406 723.992 6.58072 724.125 6.90072 724.319C7.21406 724.505 7.45739 724.762 7.63072 725.089C7.80406 725.415 7.89072 725.832 7.89072 726.339C7.89072 726.839 7.80406 727.255 7.63072 727.589C7.45739 727.922 7.21406 728.182 6.90072 728.369C6.58072 728.555 6.20406 728.689 5.77072 728.769C5.33072 728.849 4.84739 728.889 4.32072 728.889ZM4.32072 724.809C3.96072 724.809 3.61739 724.825 3.29072 724.859C2.96406 724.892 2.67406 724.959 2.42072 725.059C2.16739 725.152 1.97072 725.302 1.83072 725.509C1.68406 725.715 1.61072 725.992 1.61072 726.339C1.61072 726.685 1.68406 726.962 1.83072 727.169C1.97072 727.375 2.16739 727.529 2.42072 727.629C2.67406 727.729 2.96406 727.795 3.29072 727.829C3.61739 727.855 3.96072 727.869 4.32072 727.869C4.70072 727.869 5.05406 727.855 5.38072 727.829C5.70739 727.795 5.99406 727.729 6.24072 727.629C6.48739 727.529 6.68072 727.375 6.82072 727.169C6.96072 726.962 7.03072 726.685 7.03072 726.339C7.03072 725.992 6.96072 725.715 6.82072 725.509C6.68072 725.302 6.48739 725.152 6.24072 725.059C5.99406 724.959 5.70739 724.892 5.38072 724.859C5.05406 724.825 4.70072 724.809 4.32072 724.809Z" fill="#808C98"/>
<path d="M4.32072 735.236C3.80072 735.236 3.32406 735.196 2.89072 735.116C2.45072 735.036 2.07406 734.903 1.76072 734.716C1.44072 734.53 1.19406 734.27 1.02072 733.936C0.840724 733.603 0.750725 733.186 0.750725 732.686C0.750725 732.18 0.840724 731.763 1.02072 731.436C1.19406 731.11 1.44072 730.853 1.76072 730.666C2.07406 730.473 2.45072 730.34 2.89072 730.266C3.32406 730.186 3.80072 730.146 4.32072 730.146C4.84739 730.146 5.33072 730.186 5.77072 730.266C6.20406 730.34 6.58072 730.473 6.90072 730.666C7.21406 730.853 7.45739 731.11 7.63073 731.436C7.80406 731.763 7.89072 732.18 7.89072 732.686C7.89072 733.186 7.80406 733.603 7.63073 733.936C7.45739 734.27 7.21406 734.53 6.90072 734.716C6.58072 734.903 6.20406 735.036 5.77072 735.116C5.33072 735.196 4.84739 735.236 4.32072 735.236ZM4.32072 731.156C3.96072 731.156 3.61739 731.173 3.29072 731.206C2.96406 731.24 2.67406 731.306 2.42072 731.406C2.16739 731.5 1.97072 731.65 1.83072 731.856C1.68406 732.063 1.61072 732.34 1.61072 732.686C1.61072 733.033 1.68406 733.31 1.83072 733.516C1.97072 733.723 2.16739 733.876 2.42072 733.976C2.67406 734.076 2.96406 734.143 3.29072 734.176C3.61739 734.203 3.96072 734.216 4.32072 734.216C4.70072 734.216 5.05406 734.203 5.38072 734.176C5.70739 734.143 5.99406 734.076 6.24072 733.976C6.48739 733.876 6.68072 733.723 6.82072 733.516C6.96072 733.31 7.03072 733.033 7.03072 732.686C7.03072 732.34 6.96072 732.063 6.82072 731.856C6.68072 731.65 6.48739 731.5 6.24072 731.406C5.99406 731.306 5.70739 731.24 5.38072 731.206C5.05406 731.173 4.70072 731.156 4.32072 731.156Z" fill="#808C98"/>
<path d="M2.72072 741.203C2.30072 741.177 1.94406 741.06 1.65072 740.853C1.35739 740.64 1.13406 740.36 0.980725 740.013C0.827392 739.667 0.750725 739.27 0.750725 738.823C0.750725 738.35 0.840725 737.95 1.02072 737.623C1.20072 737.297 1.44072 737.05 1.74072 736.883C2.03406 736.71 2.35406 736.623 2.70072 736.623C2.95406 736.623 3.18739 736.677 3.40072 736.783C3.60739 736.89 3.78406 737.037 3.93072 737.223C4.07739 737.403 4.18072 737.61 4.24073 737.843L4.29072 737.843C4.35739 737.577 4.46406 737.343 4.61072 737.143C4.75072 736.937 4.93406 736.777 5.16073 736.663C5.38072 736.55 5.64739 736.493 5.96073 736.493C6.34073 736.493 6.67739 736.58 6.97072 736.753C7.25739 736.927 7.48406 737.187 7.65072 737.533C7.81072 737.873 7.89072 738.297 7.89072 738.803C7.89072 739.29 7.81739 739.717 7.67073 740.083C7.52406 740.45 7.29406 740.74 6.98072 740.953C6.66739 741.16 6.26073 741.277 5.76073 741.303L5.76073 740.343C6.17406 740.31 6.49073 740.173 6.71073 739.933C6.92406 739.693 7.03073 739.317 7.03073 738.803C7.03072 738.503 6.98406 738.257 6.89072 738.063C6.79739 737.87 6.66739 737.73 6.50073 737.643C6.32739 737.55 6.12072 737.503 5.88072 737.503C5.42739 737.503 5.12072 737.66 4.96072 737.973C4.79406 738.28 4.71072 738.747 4.71072 739.373L4.71072 739.623L3.86072 739.623L3.86072 739.363C3.85406 738.983 3.81406 738.667 3.74072 738.413C3.66739 738.153 3.55739 737.96 3.41072 737.833C3.25739 737.7 3.05739 737.633 2.81072 737.633C2.47739 737.633 2.19406 737.733 1.96072 737.933C1.72739 738.133 1.61072 738.44 1.61072 738.853C1.61072 739.133 1.66072 739.37 1.76073 739.563C1.85406 739.757 1.98406 739.91 2.15072 740.023C2.31739 740.137 2.50739 740.207 2.72072 740.233L2.72072 741.203Z" fill="#808C98"/>
<path d="M1.66072 743.628L1.66072 744.578L0.820725 744.578L0.820725 742.628L7.82073 742.628L7.82073 743.628L1.66072 743.628Z" fill="#808C98"/>
<path d="M10.8207 734.574L10.8207 733.574L16.8207 733.574L16.8207 734.574L10.8207 734.574Z" fill="#B3BAC2"/>
<path d="M10.8207 706.474L10.8207 705.474L16.8207 705.474L16.8207 706.474L10.8207 706.474Z" fill="#B3BAC2"/>
<path d="M4.32072 672.684C3.80072 672.684 3.32406 672.644 2.89072 672.564C2.45072 672.484 2.07406 672.351 1.76072 672.164C1.44072 671.977 1.19405 671.717 1.02072 671.384C0.840722 671.051 0.750722 670.634 0.750722 670.134C0.750722 669.627 0.840722 669.211 1.02072 668.884C1.19405 668.557 1.44072 668.301 1.76072 668.114C2.07406 667.921 2.45072 667.787 2.89072 667.714C3.32405 667.634 3.80072 667.594 4.32072 667.594C4.84739 667.594 5.33072 667.634 5.77072 667.714C6.20406 667.787 6.58072 667.921 6.90072 668.114C7.21406 668.301 7.45739 668.557 7.63072 668.884C7.80406 669.211 7.89072 669.627 7.89072 670.134C7.89072 670.634 7.80406 671.051 7.63072 671.384C7.45739 671.717 7.21406 671.977 6.90072 672.164C6.58072 672.351 6.20406 672.484 5.77072 672.564C5.33072 672.644 4.84739 672.684 4.32072 672.684ZM4.32072 668.604C3.96072 668.604 3.61739 668.621 3.29072 668.654C2.96405 668.687 2.67406 668.754 2.42072 668.854C2.16739 668.947 1.97072 669.097 1.83072 669.304C1.68405 669.511 1.61072 669.787 1.61072 670.134C1.61072 670.481 1.68405 670.757 1.83072 670.964C1.97072 671.171 2.16739 671.324 2.42072 671.424C2.67406 671.524 2.96405 671.591 3.29072 671.624C3.61739 671.651 3.96072 671.664 4.32072 671.664C4.70072 671.664 5.05406 671.651 5.38072 671.624C5.70739 671.591 5.99406 671.524 6.24072 671.424C6.48739 671.324 6.68072 671.171 6.82072 670.964C6.96072 670.757 7.03072 670.481 7.03072 670.134C7.03072 669.787 6.96072 669.511 6.82072 669.304C6.68072 669.097 6.48739 668.947 6.24072 668.854C5.99406 668.754 5.70739 668.687 5.38072 668.654C5.05406 668.621 4.70072 668.604 4.32072 668.604Z" fill="#808C98"/>
<path d="M4.32072 679.032C3.80072 679.032 3.32406 678.991 2.89072 678.911C2.45072 678.831 2.07406 678.698 1.76072 678.512C1.44072 678.325 1.19406 678.065 1.02072 677.732C0.840722 677.398 0.750722 676.982 0.750722 676.482C0.750722 675.975 0.840722 675.558 1.02072 675.232C1.19406 674.905 1.44072 674.648 1.76072 674.462C2.07406 674.268 2.45072 674.135 2.89072 674.062C3.32406 673.982 3.80072 673.941 4.32072 673.941C4.84739 673.941 5.33072 673.982 5.77072 674.062C6.20406 674.135 6.58072 674.268 6.90072 674.462C7.21406 674.648 7.45739 674.905 7.63072 675.232C7.80406 675.558 7.89072 675.975 7.89072 676.482C7.89072 676.982 7.80406 677.398 7.63072 677.732C7.45739 678.065 7.21406 678.325 6.90072 678.512C6.58072 678.698 6.20406 678.831 5.77072 678.911C5.33072 678.991 4.84739 679.032 4.32072 679.032ZM4.32072 674.952C3.96072 674.952 3.61739 674.968 3.29072 675.002C2.96406 675.035 2.67406 675.102 2.42072 675.202C2.16739 675.295 1.97072 675.445 1.83072 675.652C1.68406 675.858 1.61072 676.135 1.61072 676.482C1.61072 676.828 1.68406 677.105 1.83072 677.312C1.97072 677.518 2.16739 677.671 2.42072 677.771C2.67406 677.871 2.96406 677.938 3.29072 677.972C3.61739 677.998 3.96072 678.012 4.32072 678.012C4.70072 678.012 5.05406 677.998 5.38072 677.972C5.70739 677.938 5.99406 677.871 6.24072 677.771C6.48739 677.671 6.68072 677.518 6.82072 677.312C6.96072 677.105 7.03072 676.828 7.03072 676.482C7.03072 676.135 6.96072 675.858 6.82072 675.652C6.68072 675.445 6.48739 675.295 6.24072 675.202C5.99406 675.102 5.70739 675.035 5.38072 675.002C5.05406 674.968 4.70072 674.952 4.32072 674.952Z" fill="#808C98"/>
<path d="M7.09072 685.098L5.17072 683.038C4.81072 682.645 4.50072 682.335 4.24072 682.108C3.98072 681.881 3.74072 681.718 3.52072 681.618C3.29406 681.518 3.06072 681.468 2.82072 681.468C2.46739 681.468 2.17739 681.571 1.95072 681.778C1.72406 681.978 1.61072 682.305 1.61072 682.758C1.61072 683.045 1.67406 683.288 1.80072 683.488C1.92739 683.688 2.10739 683.841 2.34072 683.948C2.56739 684.055 2.83406 684.111 3.14072 684.118L3.14072 685.078C2.60739 685.065 2.16406 684.955 1.81072 684.748C1.45739 684.541 1.19406 684.265 1.02072 683.918C0.840722 683.565 0.750722 683.175 0.750722 682.748C0.750722 682.268 0.837389 681.858 1.01072 681.518C1.18406 681.171 1.42739 680.908 1.74072 680.728C2.04739 680.548 2.40739 680.458 2.82072 680.458C3.12072 680.458 3.41406 680.515 3.70072 680.628C3.98072 680.735 4.28406 680.921 4.61072 681.188C4.93072 681.455 5.30406 681.818 5.73072 682.278L6.98072 683.638L6.98072 680.268L7.82072 680.268L7.82072 685.098L7.09072 685.098Z" fill="#808C98"/>
<path d="M1.66072 687.433L1.66072 688.383L0.820722 688.383L0.820722 686.433L7.82072 686.433L7.82072 687.433L1.66072 687.433Z" fill="#808C98"/>
<path d="M10.8207 678.374L10.8207 677.374L16.8207 677.374L16.8207 678.374L10.8207 678.374Z" fill="#B3BAC2"/>
<path d="M10.8207 650.274L10.8207 649.274L16.8207 649.274L16.8207 650.274L10.8207 650.274Z" fill="#B3BAC2"/>
<path d="M4.32072 617.9C3.80072 617.9 3.32405 617.86 2.89072 617.78C2.45072 617.7 2.07405 617.567 1.76072 617.38C1.44072 617.193 1.19405 616.933 1.02072 616.6C0.840719 616.267 0.750719 615.85 0.750719 615.35C0.750719 614.843 0.840719 614.427 1.02072 614.1C1.19405 613.773 1.44072 613.517 1.76072 613.33C2.07405 613.137 2.45072 613.003 2.89072 612.93C3.32405 612.85 3.80072 612.81 4.32072 612.81C4.84739 612.81 5.33072 612.85 5.77072 612.93C6.20405 613.003 6.58072 613.137 6.90072 613.33C7.21405 613.517 7.45739 613.773 7.63072 614.1C7.80405 614.427 7.89072 614.843 7.89072 615.35C7.89072 615.85 7.80405 616.267 7.63072 616.6C7.45739 616.933 7.21405 617.193 6.90072 617.38C6.58072 617.567 6.20405 617.7 5.77072 617.78C5.33072 617.86 4.84739 617.9 4.32072 617.9ZM4.32072 613.82C3.96072 613.82 3.61739 613.837 3.29072 613.87C2.96405 613.903 2.67405 613.97 2.42072 614.07C2.16739 614.163 1.97072 614.313 1.83072 614.52C1.68405 614.727 1.61072 615.003 1.61072 615.35C1.61072 615.697 1.68405 615.973 1.83072 616.18C1.97072 616.387 2.16739 616.54 2.42072 616.64C2.67405 616.74 2.96405 616.807 3.29072 616.84C3.61739 616.867 3.96072 616.88 4.32072 616.88C4.70072 616.88 5.05405 616.867 5.38072 616.84C5.70739 616.807 5.99405 616.74 6.24072 616.64C6.48739 616.54 6.68072 616.387 6.82072 616.18C6.96072 615.973 7.03072 615.697 7.03072 615.35C7.03072 615.003 6.96072 614.727 6.82072 614.52C6.68072 614.313 6.48739 614.163 6.24072 614.07C5.99405 613.97 5.70739 613.903 5.38072 613.87C5.05405 613.837 4.70072 613.82 4.32072 613.82Z" fill="#808C98"/>
<path d="M4.32072 624.247C3.80072 624.247 3.32405 624.208 2.89072 624.128C2.45072 624.048 2.07405 623.914 1.76072 623.728C1.44072 623.541 1.19405 623.281 1.02072 622.948C0.84072 622.614 0.75072 622.198 0.75072 621.698C0.75072 621.191 0.84072 620.774 1.02072 620.448C1.19405 620.121 1.44072 619.864 1.76072 619.678C2.07405 619.484 2.45072 619.351 2.89072 619.277C3.32405 619.197 3.80072 619.158 4.32072 619.158C4.84739 619.158 5.33072 619.197 5.77072 619.277C6.20405 619.351 6.58072 619.484 6.90072 619.678C7.21405 619.864 7.45739 620.121 7.63072 620.448C7.80405 620.774 7.89072 621.191 7.89072 621.698C7.89072 622.198 7.80405 622.614 7.63072 622.948C7.45739 623.281 7.21405 623.541 6.90072 623.728C6.58072 623.914 6.20405 624.048 5.77072 624.128C5.33072 624.208 4.84739 624.247 4.32072 624.247ZM4.32072 620.168C3.96072 620.168 3.61739 620.184 3.29072 620.217C2.96405 620.251 2.67405 620.318 2.42072 620.418C2.16739 620.511 1.97072 620.661 1.83072 620.868C1.68405 621.074 1.61072 621.351 1.61072 621.698C1.61072 622.044 1.68405 622.321 1.83072 622.527C1.97072 622.734 2.16739 622.888 2.42072 622.988C2.67405 623.088 2.96405 623.154 3.29072 623.187C3.61739 623.214 3.96072 623.228 4.32072 623.228C4.70072 623.228 5.05405 623.214 5.38072 623.187C5.70739 623.154 5.99405 623.088 6.24072 622.988C6.48739 622.888 6.68072 622.734 6.82072 622.527C6.96072 622.321 7.03072 622.044 7.03072 621.698C7.03072 621.351 6.96072 621.074 6.82072 620.868C6.68072 620.661 6.48739 620.511 6.24072 620.418C5.99405 620.318 5.70739 620.251 5.38072 620.217C5.05405 620.184 4.70072 620.168 4.32072 620.168Z" fill="#808C98"/>
<path d="M1.66072 626.672L1.66072 627.622L0.82072 627.622L0.82072 625.672L7.82072 625.672L7.82072 626.672L1.66072 626.672Z" fill="#808C98"/>
<path d="M1.66072 629.817L1.66072 630.767L0.82072 630.767L0.82072 628.817L7.82072 628.817L7.82072 629.817L1.66072 629.817Z" fill="#808C98"/>
<path d="M10.8207 622.174L10.8207 621.174L16.8207 621.174L16.8207 622.174L10.8207 622.174Z" fill="#B3BAC2"/>
<path d="M10.8207 594.074L10.8207 593.074L16.8207 593.074L16.8207 594.074L10.8207 594.074Z" fill="#B3BAC2"/>
<path d="M4.32072 560.098C3.80072 560.098 3.32405 560.058 2.89072 559.978C2.45072 559.898 2.07405 559.765 1.76072 559.578C1.44072 559.392 1.19405 559.132 1.02072 558.798C0.840717 558.465 0.750717 558.048 0.750717 557.548C0.750717 557.042 0.840717 556.625 1.02072 556.298C1.19405 555.972 1.44072 555.715 1.76072 555.528C2.07405 555.335 2.45072 555.202 2.89072 555.128C3.32405 555.048 3.80072 555.008 4.32072 555.008C4.84738 555.008 5.33072 555.048 5.77072 555.128C6.20405 555.202 6.58072 555.335 6.90072 555.528C7.21405 555.715 7.45738 555.972 7.63072 556.298C7.80405 556.625 7.89072 557.042 7.89072 557.548C7.89072 558.048 7.80405 558.465 7.63072 558.798C7.45738 559.132 7.21405 559.392 6.90072 559.578C6.58072 559.765 6.20405 559.898 5.77072 559.978C5.33072 560.058 4.84738 560.098 4.32072 560.098ZM4.32072 556.018C3.96072 556.018 3.61738 556.035 3.29072 556.068C2.96405 556.102 2.67405 556.168 2.42072 556.268C2.16738 556.362 1.97072 556.512 1.83072 556.718C1.68405 556.925 1.61072 557.202 1.61072 557.548C1.61072 557.895 1.68405 558.172 1.83072 558.378C1.97072 558.585 2.16738 558.738 2.42072 558.838C2.67405 558.938 2.96405 559.005 3.29072 559.038C3.61738 559.065 3.96072 559.078 4.32072 559.078C4.70072 559.078 5.05405 559.065 5.38072 559.038C5.70738 559.005 5.99405 558.938 6.24072 558.838C6.48738 558.738 6.68072 558.585 6.82072 558.378C6.96072 558.172 7.03072 557.895 7.03072 557.548C7.03072 557.202 6.96072 556.925 6.82072 556.718C6.68072 556.512 6.48738 556.362 6.24072 556.268C5.99405 556.168 5.70738 556.102 5.38072 556.068C5.05405 556.035 4.70072 556.018 4.32072 556.018Z" fill="#808C98"/>
<path d="M4.32072 566.446C3.80072 566.446 3.32405 566.406 2.89072 566.326C2.45072 566.246 2.07405 566.113 1.76072 565.926C1.44072 565.739 1.19405 565.479 1.02072 565.146C0.840717 564.813 0.750717 564.396 0.750717 563.896C0.750717 563.389 0.840717 562.973 1.02072 562.646C1.19405 562.319 1.44072 562.063 1.76072 561.876C2.07405 561.683 2.45072 561.549 2.89072 561.476C3.32405 561.396 3.80072 561.356 4.32072 561.356C4.84738 561.356 5.33072 561.396 5.77072 561.476C6.20405 561.549 6.58072 561.683 6.90072 561.876C7.21405 562.063 7.45738 562.319 7.63072 562.646C7.80405 562.973 7.89072 563.389 7.89072 563.896C7.89072 564.396 7.80405 564.813 7.63072 565.146C7.45738 565.479 7.21405 565.739 6.90072 565.926C6.58072 566.113 6.20405 566.246 5.77072 566.326C5.33072 566.406 4.84738 566.446 4.32072 566.446ZM4.32072 562.366C3.96072 562.366 3.61738 562.383 3.29072 562.416C2.96405 562.449 2.67405 562.516 2.42072 562.616C2.16738 562.709 1.97072 562.859 1.83072 563.066C1.68405 563.273 1.61072 563.549 1.61072 563.896C1.61072 564.243 1.68405 564.519 1.83072 564.726C1.97072 564.933 2.16738 565.086 2.42072 565.186C2.67405 565.286 2.96405 565.353 3.29072 565.386C3.61738 565.413 3.96072 565.426 4.32072 565.426C4.70072 565.426 5.05405 565.413 5.38072 565.386C5.70738 565.353 5.99405 565.286 6.24072 565.186C6.48738 565.086 6.68072 564.933 6.82072 564.726C6.96072 564.519 7.03072 564.243 7.03072 563.896C7.03072 563.549 6.96072 563.273 6.82072 563.066C6.68072 562.859 6.48738 562.709 6.24072 562.616C5.99405 562.516 5.70738 562.449 5.38072 562.416C5.05405 562.383 4.70072 562.366 4.32072 562.366Z" fill="#808C98"/>
<path d="M4.32072 572.794C3.80072 572.794 3.32405 572.754 2.89072 572.674C2.45072 572.594 2.07405 572.46 1.76072 572.274C1.44072 572.087 1.19405 571.827 1.02072 571.494C0.840717 571.16 0.750717 570.744 0.750717 570.244C0.750717 569.737 0.840717 569.32 1.02072 568.994C1.19405 568.667 1.44072 568.41 1.76072 568.224C2.07405 568.03 2.45072 567.897 2.89072 567.824C3.32405 567.744 3.80072 567.704 4.32072 567.704C4.84738 567.704 5.33072 567.744 5.77072 567.824C6.20405 567.897 6.58072 568.03 6.90072 568.224C7.21405 568.41 7.45738 568.667 7.63072 568.994C7.80405 569.32 7.89072 569.737 7.89072 570.244C7.89072 570.744 7.80405 571.16 7.63072 571.494C7.45738 571.827 7.21405 572.087 6.90072 572.274C6.58072 572.46 6.20405 572.594 5.77072 572.674C5.33072 572.754 4.84738 572.794 4.32072 572.794ZM4.32072 568.714C3.96072 568.714 3.61738 568.73 3.29072 568.764C2.96405 568.797 2.67405 568.864 2.42072 568.964C2.16738 569.057 1.97072 569.207 1.83072 569.414C1.68405 569.62 1.61072 569.897 1.61072 570.244C1.61072 570.59 1.68405 570.867 1.83072 571.074C1.97072 571.28 2.16738 571.434 2.42072 571.534C2.67405 571.634 2.96405 571.7 3.29072 571.734C3.61738 571.76 3.96072 571.774 4.32072 571.774C4.70072 571.774 5.05405 571.76 5.38072 571.734C5.70738 571.7 5.99405 571.634 6.24072 571.534C6.48738 571.434 6.68072 571.28 6.82072 571.074C6.96072 570.867 7.03072 570.59 7.03072 570.244C7.03072 569.897 6.96072 569.62 6.82072 569.414C6.68072 569.207 6.48738 569.057 6.24072 568.964C5.99405 568.864 5.70738 568.797 5.38072 568.764C5.05405 568.73 4.70072 568.714 4.32072 568.714Z" fill="#808C98"/>
<path d="M1.66072 575.218L1.66072 576.168L0.820717 576.168L0.820717 574.218L7.82072 574.218L7.82072 575.218L1.66072 575.218Z" fill="#808C98"/>
<path d="M10.8207 565.974L10.8207 564.974L16.8207 564.974L16.8207 565.974L10.8207 565.974Z" fill="#B3BAC2"/>
<path d="M10.8207 537.874L10.8207 536.874L16.8207 536.874L16.8207 537.874L10.8207 537.874Z" fill="#B3BAC2"/>
<path d="M4.32071 505.607C3.80071 505.607 3.32405 505.567 2.89071 505.487C2.45071 505.407 2.07405 505.274 1.76071 505.087C1.44071 504.901 1.19405 504.641 1.02071 504.307C0.840714 503.974 0.750715 503.557 0.750714 503.057C0.750714 502.551 0.840714 502.134 1.02071 501.807C1.19405 501.481 1.44071 501.224 1.76071 501.037C2.07405 500.844 2.45071 500.711 2.89071 500.637C3.32405 500.557 3.80071 500.517 4.32071 500.517C4.84738 500.517 5.33071 500.557 5.77071 500.637C6.20405 500.711 6.58071 500.844 6.90071 501.037C7.21405 501.224 7.45738 501.481 7.63072 501.807C7.80405 502.134 7.89071 502.551 7.89071 503.057C7.89071 503.557 7.80405 503.974 7.63072 504.307C7.45738 504.641 7.21405 504.901 6.90071 505.087C6.58071 505.274 6.20405 505.407 5.77071 505.487C5.33071 505.567 4.84738 505.607 4.32071 505.607ZM4.32071 501.527C3.96071 501.527 3.61738 501.544 3.29071 501.577C2.96405 501.611 2.67405 501.677 2.42071 501.777C2.16738 501.871 1.97071 502.021 1.83071 502.227C1.68405 502.434 1.61071 502.711 1.61071 503.057C1.61071 503.404 1.68405 503.681 1.83071 503.887C1.97071 504.094 2.16738 504.247 2.42071 504.347C2.67405 504.447 2.96405 504.514 3.29071 504.547C3.61738 504.574 3.96071 504.587 4.32071 504.587C4.70071 504.587 5.05405 504.574 5.38071 504.547C5.70738 504.514 5.99405 504.447 6.24071 504.347C6.48738 504.247 6.68071 504.094 6.82071 503.887C6.96071 503.681 7.03071 503.404 7.03071 503.057C7.03071 502.711 6.96071 502.434 6.82071 502.227C6.68071 502.021 6.48738 501.871 6.24071 501.777C5.99405 501.677 5.70738 501.611 5.38071 501.577C5.05405 501.544 4.70071 501.527 4.32071 501.527Z" fill="#808C98"/>
<path d="M4.32072 511.955C3.80072 511.955 3.32405 511.915 2.89071 511.835C2.45071 511.755 2.07405 511.622 1.76072 511.435C1.44071 511.248 1.19405 510.988 1.02071 510.655C0.840715 510.322 0.750715 509.905 0.750715 509.405C0.750715 508.898 0.840715 508.482 1.02071 508.155C1.19405 507.828 1.44071 507.572 1.76071 507.385C2.07405 507.192 2.45071 507.058 2.89071 506.985C3.32405 506.905 3.80071 506.865 4.32071 506.865C4.84738 506.865 5.33071 506.905 5.77071 506.985C6.20405 507.058 6.58071 507.192 6.90071 507.385C7.21405 507.572 7.45738 507.828 7.63072 508.155C7.80405 508.482 7.89071 508.898 7.89071 509.405C7.89071 509.905 7.80405 510.322 7.63072 510.655C7.45738 510.988 7.21405 511.248 6.90071 511.435C6.58071 511.622 6.20405 511.755 5.77071 511.835C5.33071 511.915 4.84738 511.955 4.32072 511.955ZM4.32071 507.875C3.96071 507.875 3.61738 507.892 3.29071 507.925C2.96405 507.958 2.67405 508.025 2.42071 508.125C2.16738 508.218 1.97071 508.368 1.83071 508.575C1.68405 508.782 1.61071 509.058 1.61071 509.405C1.61071 509.752 1.68405 510.028 1.83071 510.235C1.97071 510.442 2.16738 510.595 2.42071 510.695C2.67405 510.795 2.96405 510.862 3.29071 510.895C3.61738 510.922 3.96072 510.935 4.32072 510.935C4.70072 510.935 5.05405 510.922 5.38071 510.895C5.70738 510.862 5.99405 510.795 6.24072 510.695C6.48738 510.595 6.68071 510.442 6.82071 510.235C6.96071 510.028 7.03071 509.752 7.03071 509.405C7.03071 509.058 6.96071 508.782 6.82071 508.575C6.68071 508.368 6.48738 508.218 6.24071 508.125C5.99405 508.025 5.70738 507.958 5.38071 507.925C5.05405 507.892 4.70071 507.875 4.32071 507.875Z" fill="#808C98"/>
<path d="M0.750715 515.669C0.750715 515.176 0.857382 514.739 1.07072 514.359C1.28405 513.972 1.57738 513.672 1.95072 513.459C2.32405 513.239 2.74405 513.129 3.21071 513.129C3.57738 513.129 3.94405 513.199 4.31071 513.339C4.67738 513.479 5.05072 513.696 5.43072 513.989L7.82072 515.809L7.82072 516.889L5.12071 514.809L3.93071 513.659C4.40405 513.792 4.78738 514.049 5.08071 514.429C5.37405 514.802 5.52072 515.256 5.52072 515.789C5.52072 516.262 5.42405 516.679 5.23072 517.039C5.03072 517.392 4.75738 517.672 4.41071 517.879C4.05738 518.079 3.65072 518.179 3.19072 518.179C2.71738 518.179 2.29738 518.072 1.93071 517.859C1.56405 517.639 1.27738 517.342 1.07072 516.969C0.857382 516.589 0.750715 516.156 0.750715 515.669ZM3.19072 514.139C2.86405 514.139 2.58405 514.199 2.35071 514.319C2.11738 514.439 1.93738 514.616 1.81071 514.849C1.67738 515.076 1.61071 515.349 1.61071 515.669C1.61071 515.996 1.67738 516.272 1.81072 516.499C1.93738 516.719 2.11738 516.886 2.35072 516.999C2.58405 517.112 2.86405 517.169 3.19072 517.169C3.51072 517.169 3.78738 517.112 4.02072 516.999C4.24738 516.886 4.42072 516.719 4.54072 516.499C4.66072 516.272 4.72072 515.996 4.72072 515.669C4.72072 515.349 4.66072 515.076 4.54071 514.849C4.42071 514.616 4.24738 514.439 4.02071 514.319C3.78738 514.199 3.51072 514.139 3.19072 514.139Z" fill="#808C98"/>
<path d="M10.8207 509.774L10.8207 508.774L16.8207 508.774L16.8207 509.774L10.8207 509.774Z" fill="#B3BAC2"/>
<path d="M10.8207 481.674L10.8207 480.674L16.8207 480.674L16.8207 481.674L10.8207 481.674Z" fill="#B3BAC2"/>
<path d="M4.32071 449.305C3.80071 449.305 3.32405 449.265 2.89071 449.185C2.45071 449.105 2.07405 448.971 1.76071 448.785C1.44071 448.598 1.19405 448.338 1.02071 448.005C0.840712 447.671 0.750712 447.255 0.750712 446.755C0.750712 446.248 0.840712 445.831 1.02071 445.505C1.19405 445.178 1.44071 444.921 1.76071 444.735C2.07405 444.541 2.45071 444.408 2.89071 444.335C3.32405 444.255 3.80071 444.215 4.32071 444.215C4.84738 444.215 5.33071 444.255 5.77071 444.335C6.20405 444.408 6.58071 444.541 6.90071 444.735C7.21405 444.921 7.45738 445.178 7.63071 445.505C7.80405 445.831 7.89071 446.248 7.89071 446.755C7.89071 447.255 7.80405 447.671 7.63071 448.005C7.45738 448.338 7.21405 448.598 6.90071 448.785C6.58071 448.971 6.20405 449.105 5.77071 449.185C5.33071 449.265 4.84738 449.305 4.32071 449.305ZM4.32071 445.225C3.96071 445.225 3.61738 445.241 3.29071 445.275C2.96405 445.308 2.67405 445.375 2.42071 445.475C2.16738 445.568 1.97071 445.718 1.83071 445.925C1.68405 446.131 1.61071 446.408 1.61071 446.755C1.61071 447.101 1.68405 447.378 1.83071 447.585C1.97071 447.791 2.16738 447.945 2.42071 448.045C2.67405 448.145 2.96405 448.211 3.29071 448.245C3.61738 448.271 3.96071 448.285 4.32071 448.285C4.70071 448.285 5.05405 448.271 5.38071 448.245C5.70738 448.211 5.99405 448.145 6.24071 448.045C6.48738 447.945 6.68071 447.791 6.82071 447.585C6.96071 447.378 7.03071 447.101 7.03071 446.755C7.03071 446.408 6.96071 446.131 6.82071 445.925C6.68071 445.718 6.48738 445.568 6.24071 445.475C5.99405 445.375 5.70738 445.308 5.38071 445.275C5.05405 445.241 4.70071 445.225 4.32071 445.225Z" fill="#808C98"/>
<path d="M4.32071 455.652C3.80071 455.652 3.32405 455.612 2.89071 455.532C2.45071 455.452 2.07405 455.319 1.76071 455.132C1.44071 454.946 1.19405 454.686 1.02071 454.352C0.840712 454.019 0.750712 453.602 0.750712 453.102C0.750712 452.596 0.840712 452.179 1.02071 451.852C1.19405 451.526 1.44071 451.269 1.76071 451.082C2.07405 450.889 2.45071 450.756 2.89071 450.682C3.32405 450.602 3.80071 450.562 4.32071 450.562C4.84738 450.562 5.33071 450.602 5.77071 450.682C6.20405 450.756 6.58071 450.889 6.90071 451.082C7.21405 451.269 7.45738 451.526 7.63071 451.852C7.80405 452.179 7.89071 452.596 7.89071 453.102C7.89071 453.602 7.80405 454.019 7.63071 454.352C7.45738 454.686 7.21405 454.946 6.90071 455.132C6.58071 455.319 6.20405 455.452 5.77071 455.532C5.33071 455.612 4.84738 455.652 4.32071 455.652ZM4.32071 451.572C3.96071 451.572 3.61738 451.589 3.29071 451.622C2.96405 451.656 2.67405 451.722 2.42071 451.822C2.16738 451.916 1.97071 452.066 1.83071 452.272C1.68405 452.479 1.61071 452.756 1.61071 453.102C1.61071 453.449 1.68405 453.726 1.83071 453.932C1.97071 454.139 2.16738 454.292 2.42071 454.392C2.67405 454.492 2.96405 454.559 3.29071 454.592C3.61738 454.619 3.96071 454.632 4.32071 454.632C4.70071 454.632 5.05405 454.619 5.38071 454.592C5.70738 454.559 5.99405 454.492 6.24071 454.392C6.48738 454.292 6.68071 454.139 6.82071 453.932C6.96071 453.726 7.03071 453.449 7.03071 453.102C7.03071 452.756 6.96071 452.479 6.82071 452.272C6.68071 452.066 6.48738 451.916 6.24071 451.822C5.99405 451.722 5.70738 451.656 5.38071 451.622C5.05405 451.589 4.70071 451.572 4.32071 451.572Z" fill="#808C98"/>
<path d="M4.14071 460.692C4.00071 461.038 3.80405 461.312 3.55071 461.512C3.29071 461.712 2.96738 461.812 2.58071 461.812C2.24071 461.812 1.93405 461.722 1.66071 461.542C1.38738 461.362 1.16738 461.098 1.00071 460.752C0.834046 460.398 0.750713 459.955 0.750713 459.422C0.750713 458.895 0.834046 458.455 1.00071 458.102C1.16738 457.748 1.39071 457.485 1.67071 457.312C1.94405 457.132 2.24738 457.042 2.58071 457.042C2.94738 457.042 3.26738 457.145 3.54071 457.352C3.80738 457.558 4.00738 457.828 4.14071 458.162C4.26738 457.762 4.47738 457.445 4.77071 457.212C5.06405 456.972 5.42405 456.852 5.85071 456.852C6.27071 456.852 6.63405 456.962 6.94071 457.182C7.24071 457.402 7.47405 457.705 7.64071 458.092C7.80738 458.472 7.89071 458.915 7.89071 459.422C7.89071 459.928 7.80738 460.375 7.64071 460.762C7.47405 461.148 7.24071 461.452 6.94071 461.672C6.63405 461.885 6.27071 461.992 5.85071 461.992C5.42405 461.992 5.06405 461.875 4.77071 461.642C4.47071 461.402 4.26071 461.085 4.14071 460.692ZM2.69071 458.062C2.31071 458.062 2.03738 458.182 1.87071 458.422C1.69738 458.655 1.61071 458.988 1.61071 459.422C1.61071 459.848 1.69405 460.185 1.86071 460.432C2.02738 460.672 2.30738 460.792 2.70071 460.792C3.04071 460.792 3.31071 460.668 3.51071 460.422C3.70405 460.175 3.80071 459.842 3.80071 459.422C3.80071 459.002 3.70405 458.672 3.51071 458.432C3.31071 458.185 3.03738 458.062 2.69071 458.062ZM4.58071 459.422C4.58071 459.722 4.62405 459.992 4.71071 460.232C4.79738 460.465 4.93071 460.648 5.11071 460.782C5.29071 460.915 5.52738 460.982 5.82071 460.982C6.20738 460.982 6.50738 460.848 6.72071 460.582C6.92738 460.308 7.03071 459.922 7.03071 459.422C7.03071 458.928 6.92405 458.545 6.71071 458.272C6.49738 457.998 6.20071 457.862 5.82071 457.862C5.54071 457.862 5.31071 457.928 5.13071 458.062C4.94405 458.195 4.80738 458.378 4.72071 458.612C4.62738 458.845 4.58071 459.115 4.58071 459.422Z" fill="#808C98"/>
<path d="M10.8207 453.574L10.8207 452.574L16.8207 452.574L16.8207 453.574L10.8207 453.574Z" fill="#B3BAC2"/>
<path d="M10.8207 425.474L10.8207 424.474L16.8207 424.474L16.8207 425.474L10.8207 425.474Z" fill="#B3BAC2"/>
<path d="M4.32071 393.461C3.80071 393.461 3.32404 393.421 2.89071 393.341C2.45071 393.261 2.07404 393.128 1.76071 392.941C1.44071 392.754 1.19404 392.494 1.02071 392.161C0.84071 391.828 0.75071 391.411 0.75071 390.911C0.75071 390.404 0.840709 389.988 1.02071 389.661C1.19404 389.334 1.44071 389.078 1.76071 388.891C2.07404 388.698 2.45071 388.564 2.89071 388.491C3.32404 388.411 3.80071 388.371 4.32071 388.371C4.84738 388.371 5.33071 388.411 5.77071 388.491C6.20404 388.564 6.58071 388.698 6.90071 388.891C7.21404 389.078 7.45738 389.334 7.63071 389.661C7.80404 389.988 7.89071 390.404 7.89071 390.911C7.89071 391.411 7.80404 391.828 7.63071 392.161C7.45738 392.494 7.21404 392.754 6.90071 392.941C6.58071 393.128 6.20404 393.261 5.77071 393.341C5.33071 393.421 4.84738 393.461 4.32071 393.461ZM4.32071 389.381C3.96071 389.381 3.61738 389.398 3.29071 389.431C2.96404 389.464 2.67404 389.531 2.42071 389.631C2.16738 389.724 1.97071 389.874 1.83071 390.081C1.68404 390.288 1.61071 390.564 1.61071 390.911C1.61071 391.258 1.68404 391.534 1.83071 391.741C1.97071 391.948 2.16738 392.101 2.42071 392.201C2.67404 392.301 2.96404 392.368 3.29071 392.401C3.61738 392.428 3.96071 392.441 4.32071 392.441C4.70071 392.441 5.05404 392.428 5.38071 392.401C5.70738 392.368 5.99404 392.301 6.24071 392.201C6.48738 392.101 6.68071 391.948 6.82071 391.741C6.96071 391.534 7.03071 391.258 7.03071 390.911C7.03071 390.564 6.96071 390.288 6.82071 390.081C6.68071 389.874 6.48738 389.724 6.24071 389.631C5.99404 389.531 5.70738 389.464 5.38071 389.431C5.05404 389.398 4.70071 389.381 4.32071 389.381Z" fill="#808C98"/>
<path d="M4.32071 399.809C3.80071 399.809 3.32404 399.769 2.89071 399.689C2.45071 399.609 2.07404 399.475 1.76071 399.289C1.44071 399.102 1.19404 398.842 1.02071 398.509C0.84071 398.175 0.75071 397.759 0.75071 397.259C0.75071 396.752 0.84071 396.335 1.02071 396.009C1.19404 395.682 1.44071 395.425 1.76071 395.239C2.07404 395.045 2.45071 394.912 2.89071 394.839C3.32404 394.759 3.80071 394.719 4.32071 394.719C4.84738 394.719 5.33071 394.759 5.77071 394.839C6.20404 394.912 6.58071 395.045 6.90071 395.239C7.21404 395.425 7.45738 395.682 7.63071 396.009C7.80404 396.335 7.89071 396.752 7.89071 397.259C7.89071 397.759 7.80404 398.175 7.63071 398.509C7.45738 398.842 7.21404 399.102 6.90071 399.289C6.58071 399.475 6.20404 399.609 5.77071 399.689C5.33071 399.769 4.84738 399.809 4.32071 399.809ZM4.32071 395.729C3.96071 395.729 3.61738 395.745 3.29071 395.779C2.96404 395.812 2.67404 395.879 2.42071 395.979C2.16738 396.072 1.97071 396.222 1.83071 396.429C1.68404 396.635 1.61071 396.912 1.61071 397.259C1.61071 397.605 1.68404 397.882 1.83071 398.089C1.97071 398.295 2.16738 398.449 2.42071 398.549C2.67404 398.649 2.96404 398.715 3.29071 398.749C3.61738 398.775 3.96071 398.789 4.32071 398.789C4.70071 398.789 5.05404 398.775 5.38071 398.749C5.70738 398.715 5.99404 398.649 6.24071 398.549C6.48738 398.449 6.68071 398.295 6.82071 398.089C6.96071 397.882 7.03071 397.605 7.03071 397.259C7.03071 396.912 6.96071 396.635 6.82071 396.429C6.68071 396.222 6.48738 396.072 6.24071 395.979C5.99404 395.879 5.70738 395.812 5.38071 395.779C5.05404 395.745 4.70071 395.729 4.32071 395.729Z" fill="#808C98"/>
<path d="M0.82071 400.835L1.56071 400.835L7.82071 403.615L7.82071 404.615L1.66071 401.805L1.66071 405.605L0.82071 405.605L0.82071 400.835Z" fill="#808C98"/>
<path d="M10.8207 397.374L10.8207 396.374L16.8207 396.374L16.8207 397.374L10.8207 397.374Z" fill="#B3BAC2"/>
<path d="M10.8207 369.274L10.8207 368.274L16.8207 368.274L16.8207 369.274L10.8207 369.274Z" fill="#B3BAC2"/>
<path d="M4.32071 337.007C3.80071 337.007 3.32404 336.967 2.89071 336.887C2.45071 336.807 2.07404 336.674 1.76071 336.487C1.44071 336.301 1.19404 336.041 1.02071 335.707C0.840707 335.374 0.750707 334.957 0.750707 334.457C0.750707 333.951 0.840707 333.534 1.02071 333.207C1.19404 332.881 1.44071 332.624 1.76071 332.437C2.07404 332.244 2.45071 332.111 2.89071 332.037C3.32404 331.957 3.80071 331.917 4.32071 331.917C4.84737 331.917 5.33071 331.957 5.77071 332.037C6.20404 332.111 6.58071 332.244 6.90071 332.437C7.21404 332.624 7.45737 332.881 7.63071 333.207C7.80404 333.534 7.89071 333.951 7.89071 334.457C7.89071 334.957 7.80404 335.374 7.63071 335.707C7.45737 336.041 7.21404 336.301 6.90071 336.487C6.58071 336.674 6.20404 336.807 5.77071 336.887C5.33071 336.967 4.84737 337.007 4.32071 337.007ZM4.32071 332.927C3.96071 332.927 3.61737 332.944 3.29071 332.977C2.96404 333.011 2.67404 333.077 2.42071 333.177C2.16737 333.271 1.97071 333.421 1.83071 333.627C1.68404 333.834 1.61071 334.111 1.61071 334.457C1.61071 334.804 1.68404 335.081 1.83071 335.287C1.97071 335.494 2.16737 335.647 2.42071 335.747C2.67404 335.847 2.96404 335.914 3.29071 335.947C3.61737 335.974 3.96071 335.987 4.32071 335.987C4.70071 335.987 5.05404 335.974 5.38071 335.947C5.70737 335.914 5.99404 335.847 6.24071 335.747C6.48737 335.647 6.68071 335.494 6.82071 335.287C6.96071 335.081 7.03071 334.804 7.03071 334.457C7.03071 334.111 6.96071 333.834 6.82071 333.627C6.68071 333.421 6.48737 333.271 6.24071 333.177C5.99404 333.077 5.70737 333.011 5.38071 332.977C5.05404 332.944 4.70071 332.927 4.32071 332.927Z" fill="#808C98"/>
<path d="M4.32071 343.355C3.80071 343.355 3.32404 343.315 2.89071 343.235C2.45071 343.155 2.07404 343.022 1.76071 342.835C1.44071 342.648 1.19404 342.388 1.02071 342.055C0.840707 341.722 0.750707 341.305 0.750707 340.805C0.750707 340.298 0.840707 339.882 1.02071 339.555C1.19404 339.228 1.44071 338.972 1.76071 338.785C2.07404 338.592 2.45071 338.458 2.89071 338.385C3.32404 338.305 3.80071 338.265 4.32071 338.265C4.84737 338.265 5.33071 338.305 5.77071 338.385C6.20404 338.458 6.58071 338.592 6.90071 338.785C7.21404 338.972 7.45737 339.228 7.63071 339.555C7.80404 339.882 7.89071 340.298 7.89071 340.805C7.89071 341.305 7.80404 341.722 7.63071 342.055C7.45737 342.388 7.21404 342.648 6.90071 342.835C6.58071 343.022 6.20404 343.155 5.77071 343.235C5.33071 343.315 4.84737 343.355 4.32071 343.355ZM4.32071 339.275C3.96071 339.275 3.61737 339.292 3.29071 339.325C2.96404 339.358 2.67404 339.425 2.42071 339.525C2.16737 339.618 1.97071 339.768 1.83071 339.975C1.68404 340.182 1.61071 340.458 1.61071 340.805C1.61071 341.152 1.68404 341.428 1.83071 341.635C1.97071 341.842 2.16737 341.995 2.42071 342.095C2.67404 342.195 2.96404 342.262 3.29071 342.295C3.61737 342.322 3.96071 342.335 4.32071 342.335C4.70071 342.335 5.05404 342.322 5.38071 342.295C5.70737 342.262 5.99404 342.195 6.24071 342.095C6.48737 341.995 6.68071 341.842 6.82071 341.635C6.96071 341.428 7.03071 341.152 7.03071 340.805C7.03071 340.458 6.96071 340.182 6.82071 339.975C6.68071 339.768 6.48737 339.618 6.24071 339.525C5.99404 339.425 5.70737 339.358 5.38071 339.325C5.05404 339.292 4.70071 339.275 4.32071 339.275Z" fill="#808C98"/>
<path d="M7.89071 346.989C7.89071 347.482 7.78404 347.922 7.57071 348.309C7.35737 348.689 7.06404 348.986 6.69071 349.199C6.31737 349.412 5.89737 349.519 5.43071 349.519C5.06404 349.519 4.69737 349.452 4.33071 349.319C3.96404 349.179 3.59071 348.962 3.21071 348.669L0.820707 346.839L0.820707 345.759L3.52071 347.839L4.71071 348.999C4.23737 348.859 3.85404 348.602 3.56071 348.229C3.26737 347.849 3.12071 347.392 3.12071 346.859C3.12071 346.392 3.22071 345.979 3.42071 345.619C3.61404 345.259 3.88737 344.979 4.24071 344.779C4.58737 344.572 4.99071 344.469 5.45071 344.469C5.91737 344.469 6.33737 344.579 6.71071 344.799C7.07737 345.012 7.36737 345.312 7.58071 345.699C7.78737 346.079 7.89071 346.509 7.89071 346.989ZM5.45071 348.509C5.77071 348.509 6.05071 348.452 6.29071 348.339C6.52404 348.219 6.70737 348.046 6.84071 347.819C6.96737 347.586 7.03071 347.309 7.03071 346.989C7.03071 346.662 6.96737 346.389 6.84071 346.169C6.70737 345.942 6.52404 345.772 6.29071 345.659C6.05071 345.539 5.77071 345.479 5.45071 345.479C5.12404 345.479 4.84737 345.539 4.62071 345.659C4.39404 345.772 4.22071 345.942 4.10071 346.169C3.98071 346.389 3.92071 346.662 3.92071 346.989C3.92071 347.309 3.98071 347.586 4.10071 347.819C4.22071 348.046 4.39404 348.219 4.62071 348.339C4.84737 348.452 5.12404 348.509 5.45071 348.509Z" fill="#808C98"/>
<path d="M10.8207 341.174L10.8207 340.174L16.8207 340.174L16.8207 341.174L10.8207 341.174Z" fill="#B3BAC2"/>
<path d="M10.8207 313.074L10.8207 312.074L16.8207 312.074L16.8207 313.074L10.8207 313.074Z" fill="#B3BAC2"/>
<path d="M4.3207 280.729C3.8007 280.729 3.32404 280.689 2.8907 280.609C2.4507 280.529 2.07404 280.396 1.7607 280.209C1.4407 280.023 1.19404 279.762 1.0207 279.429C0.840705 279.096 0.750705 278.679 0.750705 278.179C0.750705 277.672 0.840705 277.256 1.0207 276.929C1.19404 276.602 1.4407 276.346 1.7607 276.159C2.07404 275.966 2.4507 275.832 2.8907 275.759C3.32404 275.679 3.8007 275.639 4.3207 275.639C4.84737 275.639 5.3307 275.679 5.7707 275.759C6.20404 275.832 6.5807 275.966 6.9007 276.159C7.21404 276.346 7.45737 276.602 7.63071 276.929C7.80404 277.256 7.8907 277.672 7.8907 278.179C7.8907 278.679 7.80404 279.096 7.63071 279.429C7.45737 279.762 7.21404 280.023 6.9007 280.209C6.5807 280.396 6.20404 280.529 5.7707 280.609C5.3307 280.689 4.84737 280.729 4.3207 280.729ZM4.3207 276.649C3.9607 276.649 3.61737 276.666 3.2907 276.699C2.96404 276.732 2.67404 276.799 2.4207 276.899C2.16737 276.993 1.9707 277.143 1.8307 277.349C1.68404 277.556 1.6107 277.832 1.6107 278.179C1.6107 278.526 1.68404 278.802 1.8307 279.009C1.9707 279.216 2.16737 279.369 2.4207 279.469C2.67404 279.569 2.96404 279.636 3.2907 279.669C3.61737 279.696 3.9607 279.709 4.3207 279.709C4.7007 279.709 5.05404 279.696 5.3807 279.669C5.70737 279.636 5.99404 279.569 6.2407 279.469C6.48737 279.369 6.6807 279.216 6.8207 279.009C6.9607 278.802 7.0307 278.526 7.0307 278.179C7.0307 277.832 6.9607 277.556 6.8207 277.349C6.6807 277.143 6.48737 276.993 6.2407 276.899C5.99404 276.799 5.70737 276.732 5.3807 276.699C5.05404 276.666 4.7007 276.649 4.3207 276.649Z" fill="#808C98"/>
<path d="M4.32071 287.077C3.80071 287.077 3.32404 287.037 2.8907 286.957C2.45071 286.877 2.07404 286.743 1.76071 286.557C1.4407 286.37 1.19404 286.11 1.0207 285.777C0.840705 285.443 0.750705 285.027 0.750705 284.527C0.750705 284.02 0.840705 283.603 1.0207 283.277C1.19404 282.95 1.4407 282.694 1.76071 282.507C2.07404 282.314 2.4507 282.18 2.8907 282.107C3.32404 282.027 3.8007 281.987 4.32071 281.987C4.84737 281.987 5.3307 282.027 5.7707 282.107C6.20404 282.18 6.5807 282.314 6.9007 282.507C7.21404 282.694 7.45737 282.95 7.63071 283.277C7.80404 283.603 7.8907 284.02 7.8907 284.527C7.8907 285.027 7.80404 285.443 7.63071 285.777C7.45737 286.11 7.21404 286.37 6.90071 286.557C6.58071 286.743 6.20404 286.877 5.77071 286.957C5.3307 287.037 4.84737 287.077 4.32071 287.077ZM4.32071 282.997C3.96071 282.997 3.61737 283.013 3.2907 283.047C2.96404 283.08 2.67404 283.147 2.4207 283.247C2.16737 283.34 1.9707 283.49 1.8307 283.697C1.68404 283.904 1.6107 284.18 1.6107 284.527C1.6107 284.873 1.68404 285.15 1.8307 285.357C1.97071 285.563 2.16737 285.717 2.42071 285.817C2.67404 285.917 2.96404 285.984 3.2907 286.017C3.61737 286.044 3.96071 286.057 4.32071 286.057C4.70071 286.057 5.05404 286.044 5.38071 286.017C5.70737 285.984 5.99404 285.917 6.24071 285.817C6.48737 285.717 6.68071 285.563 6.82071 285.357C6.96071 285.15 7.03071 284.873 7.03071 284.527C7.03071 284.18 6.96071 283.904 6.82071 283.697C6.68071 283.49 6.48737 283.34 6.24071 283.247C5.99404 283.147 5.70737 283.08 5.3807 283.047C5.05404 283.013 4.70071 282.997 4.32071 282.997Z" fill="#808C98"/>
<path d="M0.820705 288.777L1.6607 288.777L1.6607 292.157L3.75071 292.157C3.55737 292.017 3.40071 291.814 3.2807 291.547C3.1607 291.281 3.10071 290.977 3.10071 290.637C3.10071 290.204 3.17404 289.841 3.32071 289.547C3.46737 289.254 3.65737 289.017 3.8907 288.837C4.12404 288.651 4.37737 288.517 4.65071 288.437C4.91737 288.351 5.17404 288.307 5.42071 288.307C5.87404 288.307 6.28737 288.404 6.66071 288.597C7.03404 288.784 7.33404 289.064 7.56071 289.437C7.78071 289.811 7.89071 290.264 7.89071 290.797C7.89071 291.277 7.80737 291.697 7.64071 292.057C7.46737 292.411 7.23404 292.694 6.94071 292.907C6.64071 293.114 6.30071 293.247 5.9207 293.307L5.9207 292.337C6.26737 292.251 6.54071 292.074 6.74071 291.807C6.93404 291.534 7.03071 291.194 7.03071 290.787C7.03071 290.454 6.96404 290.177 6.83071 289.957C6.69737 289.737 6.51404 289.577 6.28071 289.477C6.04071 289.371 5.76071 289.317 5.44071 289.317C4.97404 289.317 4.6107 289.444 4.35071 289.697C4.09071 289.951 3.96071 290.311 3.96071 290.777C3.96071 291.131 4.04404 291.431 4.21071 291.677C4.37737 291.924 4.60404 292.101 4.89071 292.207L4.89071 293.147L0.820705 293.147L0.820705 288.777Z" fill="#808C98"/>
<path d="M10.8207 284.974L10.8207 283.974L16.8207 283.974L16.8207 284.974L10.8207 284.974Z" fill="#B3BAC2"/>
<path d="M10.8207 256.874L10.8207 255.874L16.8207 255.874L16.8207 256.874L10.8207 256.874Z" fill="#B3BAC2"/>
<path d="M4.3207 224.373C3.8007 224.373 3.32404 224.333 2.8907 224.253C2.4507 224.173 2.07404 224.04 1.7607 223.853C1.4407 223.666 1.19404 223.406 1.0207 223.073C0.840702 222.74 0.750702 222.323 0.750702 221.823C0.750702 221.316 0.840702 220.9 1.0207 220.573C1.19404 220.246 1.4407 219.99 1.7607 219.803C2.07404 219.61 2.4507 219.476 2.8907 219.403C3.32404 219.323 3.8007 219.283 4.3207 219.283C4.84737 219.283 5.3307 219.323 5.7707 219.403C6.20404 219.476 6.5807 219.61 6.9007 219.803C7.21404 219.99 7.45737 220.246 7.6307 220.573C7.80404 220.9 7.8907 221.316 7.8907 221.823C7.8907 222.323 7.80404 222.74 7.6307 223.073C7.45737 223.406 7.21404 223.666 6.9007 223.853C6.5807 224.04 6.20404 224.173 5.7707 224.253C5.3307 224.333 4.84737 224.373 4.3207 224.373ZM4.3207 220.293C3.9607 220.293 3.61737 220.31 3.2907 220.343C2.96404 220.376 2.67404 220.443 2.4207 220.543C2.16737 220.636 1.9707 220.786 1.8307 220.993C1.68404 221.2 1.6107 221.476 1.6107 221.823C1.6107 222.17 1.68404 222.446 1.8307 222.653C1.9707 222.86 2.16737 223.013 2.4207 223.113C2.67404 223.213 2.96404 223.28 3.2907 223.313C3.61737 223.34 3.9607 223.353 4.3207 223.353C4.7007 223.353 5.05404 223.34 5.3807 223.313C5.70737 223.28 5.99404 223.213 6.2407 223.113C6.48737 223.013 6.6807 222.86 6.8207 222.653C6.9607 222.446 7.0307 222.17 7.0307 221.823C7.0307 221.476 6.9607 221.2 6.8207 220.993C6.6807 220.786 6.48737 220.636 6.2407 220.543C5.99404 220.443 5.70737 220.376 5.3807 220.343C5.05404 220.31 4.7007 220.293 4.3207 220.293Z" fill="#808C98"/>
<path d="M4.3207 230.721C3.8007 230.721 3.32404 230.681 2.8907 230.601C2.4507 230.521 2.07404 230.387 1.7607 230.201C1.4407 230.014 1.19404 229.754 1.0207 229.421C0.840702 229.087 0.750702 228.671 0.750702 228.171C0.750702 227.664 0.840702 227.247 1.0207 226.921C1.19404 226.594 1.4407 226.337 1.7607 226.151C2.07404 225.957 2.4507 225.824 2.8907 225.751C3.32404 225.671 3.8007 225.631 4.3207 225.631C4.84737 225.631 5.3307 225.671 5.7707 225.751C6.20404 225.824 6.5807 225.957 6.9007 226.151C7.21404 226.337 7.45737 226.594 7.6307 226.921C7.80404 227.247 7.8907 227.664 7.8907 228.171C7.8907 228.671 7.80404 229.087 7.6307 229.421C7.45737 229.754 7.21404 230.014 6.9007 230.201C6.5807 230.387 6.20404 230.521 5.7707 230.601C5.3307 230.681 4.84737 230.721 4.3207 230.721ZM4.3207 226.641C3.9607 226.641 3.61737 226.657 3.2907 226.691C2.96404 226.724 2.67404 226.791 2.4207 226.891C2.16737 226.984 1.9707 227.134 1.8307 227.341C1.68404 227.547 1.6107 227.824 1.6107 228.171C1.6107 228.517 1.68404 228.794 1.8307 229.001C1.9707 229.207 2.16737 229.361 2.4207 229.461C2.67404 229.561 2.96404 229.627 3.2907 229.661C3.61737 229.687 3.9607 229.701 4.3207 229.701C4.7007 229.701 5.05404 229.687 5.3807 229.661C5.70737 229.627 5.99404 229.561 6.2407 229.461C6.48737 229.361 6.6807 229.207 6.8207 229.001C6.9607 228.794 7.0307 228.517 7.0307 228.171C7.0307 227.824 6.9607 227.547 6.8207 227.341C6.6807 227.134 6.48737 226.984 6.2407 226.891C5.99404 226.791 5.70737 226.724 5.3807 226.691C5.05404 226.657 4.7007 226.641 4.3207 226.641Z" fill="#808C98"/>
<path d="M6.2207 233.824L6.2207 237.494L5.4907 237.494L0.820702 234.044L0.820702 232.834L5.3707 232.834L5.3707 231.874L6.2207 231.874L6.2207 232.834L7.8207 232.834L7.8207 233.824L6.2207 233.824ZM5.3707 233.804L1.8507 233.804L5.3707 236.354L5.3707 233.804Z" fill="#808C98"/>
<path d="M10.8207 228.774L10.8207 227.774L16.8207 227.774L16.8207 228.774L10.8207 228.774Z" fill="#B3BAC2"/>
<path d="M10.8207 200.674L10.8207 199.674L16.8207 199.674L16.8207 200.674L10.8207 200.674Z" fill="#B3BAC2"/>
<path d="M4.3207 168.461C3.8007 168.461 3.32403 168.421 2.8907 168.341C2.4507 168.261 2.07403 168.128 1.7607 167.941C1.4407 167.754 1.19403 167.494 1.0207 167.161C0.8407 166.828 0.7507 166.411 0.7507 165.911C0.7507 165.404 0.8407 164.988 1.0207 164.661C1.19403 164.334 1.4407 164.078 1.7607 163.891C2.07403 163.698 2.4507 163.564 2.8907 163.491C3.32403 163.411 3.8007 163.371 4.3207 163.371C4.84737 163.371 5.3307 163.411 5.7707 163.491C6.20403 163.564 6.5807 163.698 6.9007 163.891C7.21403 164.078 7.45737 164.334 7.6307 164.661C7.80403 164.988 7.8907 165.404 7.8907 165.911C7.8907 166.411 7.80403 166.828 7.6307 167.161C7.45737 167.494 7.21403 167.754 6.9007 167.941C6.5807 168.128 6.20403 168.261 5.7707 168.341C5.3307 168.421 4.84737 168.461 4.3207 168.461ZM4.3207 164.381C3.9607 164.381 3.61737 164.398 3.2907 164.431C2.96403 164.464 2.67403 164.531 2.4207 164.631C2.16737 164.724 1.9707 164.874 1.8307 165.081C1.68403 165.288 1.6107 165.564 1.6107 165.911C1.6107 166.258 1.68403 166.534 1.8307 166.741C1.9707 166.948 2.16737 167.101 2.4207 167.201C2.67403 167.301 2.96403 167.368 3.2907 167.401C3.61737 167.428 3.9607 167.441 4.3207 167.441C4.7007 167.441 5.05403 167.428 5.3807 167.401C5.70737 167.368 5.99403 167.301 6.2407 167.201C6.48737 167.101 6.6807 166.948 6.8207 166.741C6.9607 166.534 7.0307 166.258 7.0307 165.911C7.0307 165.564 6.9607 165.288 6.8207 165.081C6.6807 164.874 6.48737 164.724 6.2407 164.631C5.99403 164.531 5.70737 164.464 5.3807 164.431C5.05403 164.398 4.7007 164.381 4.3207 164.381Z" fill="#808C98"/>
<path d="M4.3207 174.809C3.8007 174.809 3.32403 174.769 2.8907 174.689C2.4507 174.609 2.07403 174.475 1.7607 174.289C1.4407 174.102 1.19403 173.842 1.0207 173.509C0.8407 173.175 0.7507 172.759 0.7507 172.259C0.7507 171.752 0.8407 171.335 1.0207 171.009C1.19403 170.682 1.4407 170.425 1.7607 170.239C2.07403 170.045 2.4507 169.912 2.8907 169.839C3.32403 169.759 3.8007 169.719 4.3207 169.719C4.84737 169.719 5.3307 169.759 5.7707 169.839C6.20403 169.912 6.5807 170.045 6.9007 170.239C7.21403 170.425 7.45737 170.682 7.6307 171.009C7.80403 171.335 7.8907 171.752 7.8907 172.259C7.8907 172.759 7.80403 173.175 7.6307 173.509C7.45737 173.842 7.21403 174.102 6.9007 174.289C6.5807 174.475 6.20403 174.609 5.7707 174.689C5.3307 174.769 4.84737 174.809 4.3207 174.809ZM4.3207 170.729C3.9607 170.729 3.61737 170.745 3.2907 170.779C2.96403 170.812 2.67403 170.879 2.4207 170.979C2.16737 171.072 1.9707 171.222 1.8307 171.429C1.68403 171.635 1.6107 171.912 1.6107 172.259C1.6107 172.605 1.68403 172.882 1.8307 173.089C1.9707 173.295 2.16737 173.449 2.4207 173.549C2.67403 173.649 2.96403 173.715 3.2907 173.749C3.61737 173.775 3.9607 173.789 4.3207 173.789C4.7007 173.789 5.05403 173.775 5.3807 173.749C5.70737 173.715 5.99403 173.649 6.2407 173.549C6.48737 173.449 6.6807 173.295 6.8207 173.089C6.9607 172.882 7.0307 172.605 7.0307 172.259C7.0307 171.912 6.9607 171.635 6.8207 171.429C6.6807 171.222 6.48737 171.072 6.2407 170.979C5.99403 170.879 5.70737 170.812 5.3807 170.779C5.05403 170.745 4.7007 170.729 4.3207 170.729Z" fill="#808C98"/>
<path d="M2.7207 180.776C2.3007 180.749 1.94403 180.632 1.6507 180.426C1.35737 180.212 1.13403 179.932 0.9807 179.586C0.827367 179.239 0.7507 178.842 0.7507 178.396C0.7507 177.922 0.8407 177.522 1.0207 177.196C1.2007 176.869 1.4407 176.622 1.7407 176.456C2.03403 176.282 2.35403 176.196 2.7007 176.196C2.95403 176.196 3.18737 176.249 3.4007 176.356C3.60737 176.462 3.78403 176.609 3.9307 176.796C4.07737 176.976 4.1807 177.182 4.2407 177.416L4.2907 177.416C4.35737 177.149 4.46403 176.916 4.6107 176.716C4.7507 176.509 4.93403 176.349 5.1607 176.236C5.3807 176.122 5.64737 176.066 5.9607 176.066C6.3407 176.066 6.67737 176.152 6.9707 176.326C7.25737 176.499 7.48403 176.759 7.6507 177.106C7.8107 177.446 7.8907 177.869 7.8907 178.376C7.8907 178.862 7.81737 179.289 7.6707 179.656C7.52403 180.022 7.29403 180.312 6.9807 180.526C6.66737 180.732 6.2607 180.849 5.7607 180.876L5.7607 179.916C6.17403 179.882 6.4907 179.746 6.7107 179.506C6.92403 179.266 7.0307 178.889 7.0307 178.376C7.0307 178.076 6.98403 177.829 6.8907 177.636C6.79737 177.442 6.66737 177.302 6.5007 177.216C6.32737 177.122 6.1207 177.076 5.8807 177.076C5.42737 177.076 5.1207 177.232 4.9607 177.546C4.79403 177.852 4.7107 178.319 4.7107 178.946L4.7107 179.196L3.8607 179.196L3.8607 178.936C3.85403 178.556 3.81403 178.239 3.7407 177.986C3.66737 177.726 3.55737 177.532 3.4107 177.406C3.25737 177.272 3.05737 177.206 2.8107 177.206C2.47737 177.206 2.19403 177.306 1.9607 177.506C1.72737 177.706 1.6107 178.012 1.6107 178.426C1.6107 178.706 1.6607 178.942 1.7607 179.136C1.85403 179.329 1.98403 179.482 2.1507 179.596C2.31737 179.709 2.50737 179.779 2.7207 179.806L2.7207 180.776Z" fill="#808C98"/>
<path d="M10.8207 172.575L10.8207 171.575L16.8207 171.575L16.8207 172.575L10.8207 172.575Z" fill="#B3BAC2"/>
<path d="M10.8207 144.475L10.8207 143.475L16.8207 143.475L16.8207 144.475L10.8207 144.475Z" fill="#B3BAC2"/>
<path d="M4.3207 112.256C3.8007 112.256 3.32403 112.216 2.8907 112.136C2.4507 112.056 2.07403 111.923 1.7607 111.736C1.4407 111.55 1.19403 111.29 1.0207 110.956C0.840697 110.623 0.750697 110.206 0.750697 109.706C0.750697 109.2 0.840697 108.783 1.0207 108.456C1.19403 108.13 1.4407 107.873 1.7607 107.686C2.07403 107.493 2.4507 107.36 2.8907 107.286C3.32403 107.206 3.8007 107.166 4.3207 107.166C4.84736 107.166 5.3307 107.206 5.7707 107.286C6.20403 107.36 6.5807 107.493 6.9007 107.686C7.21403 107.873 7.45736 108.13 7.6307 108.456C7.80403 108.783 7.8907 109.2 7.8907 109.706C7.8907 110.206 7.80403 110.623 7.6307 110.956C7.45736 111.29 7.21403 111.55 6.9007 111.736C6.5807 111.923 6.20403 112.056 5.7707 112.136C5.3307 112.216 4.84736 112.256 4.3207 112.256ZM4.3207 108.176C3.9607 108.176 3.61736 108.193 3.2907 108.226C2.96403 108.26 2.67403 108.326 2.4207 108.426C2.16736 108.52 1.9707 108.67 1.8307 108.876C1.68403 109.083 1.6107 109.36 1.6107 109.706C1.6107 110.053 1.68403 110.33 1.8307 110.536C1.9707 110.743 2.16736 110.896 2.4207 110.996C2.67403 111.096 2.96403 111.163 3.2907 111.196C3.61736 111.223 3.9607 111.236 4.3207 111.236C4.7007 111.236 5.05403 111.223 5.3807 111.196C5.70736 111.163 5.99403 111.096 6.2407 110.996C6.48736 110.896 6.6807 110.743 6.8207 110.536C6.9607 110.33 7.0307 110.053 7.0307 109.706C7.0307 109.36 6.9607 109.083 6.8207 108.876C6.6807 108.67 6.48736 108.52 6.2407 108.426C5.99403 108.326 5.70736 108.26 5.3807 108.226C5.05403 108.193 4.7007 108.176 4.3207 108.176Z" fill="#808C98"/>
<path d="M4.3207 118.604C3.8007 118.604 3.32403 118.564 2.8907 118.484C2.4507 118.404 2.07403 118.271 1.7607 118.084C1.4407 117.897 1.19403 117.637 1.0207 117.304C0.840698 116.971 0.750698 116.554 0.750698 116.054C0.750698 115.547 0.840697 115.131 1.0207 114.804C1.19403 114.477 1.4407 114.221 1.7607 114.034C2.07403 113.841 2.4507 113.707 2.8907 113.634C3.32403 113.554 3.8007 113.514 4.3207 113.514C4.84736 113.514 5.3307 113.554 5.7707 113.634C6.20403 113.707 6.5807 113.841 6.9007 114.034C7.21403 114.221 7.45736 114.477 7.6307 114.804C7.80403 115.131 7.8907 115.547 7.8907 116.054C7.8907 116.554 7.80403 116.971 7.6307 117.304C7.45736 117.637 7.21403 117.897 6.9007 118.084C6.5807 118.271 6.20403 118.404 5.7707 118.484C5.3307 118.564 4.84736 118.604 4.3207 118.604ZM4.3207 114.524C3.9607 114.524 3.61736 114.541 3.2907 114.574C2.96403 114.607 2.67403 114.674 2.4207 114.774C2.16736 114.867 1.9707 115.017 1.8307 115.224C1.68403 115.431 1.6107 115.707 1.6107 116.054C1.6107 116.401 1.68403 116.677 1.8307 116.884C1.9707 117.091 2.16736 117.244 2.4207 117.344C2.67403 117.444 2.96403 117.511 3.2907 117.544C3.61736 117.571 3.9607 117.584 4.3207 117.584C4.7007 117.584 5.05403 117.571 5.3807 117.544C5.70736 117.511 5.99403 117.444 6.2407 117.344C6.48736 117.244 6.6807 117.091 6.8207 116.884C6.9607 116.677 7.0307 116.401 7.0307 116.054C7.0307 115.707 6.9607 115.431 6.8207 115.224C6.6807 115.017 6.48736 114.867 6.2407 114.774C5.99403 114.674 5.70736 114.607 5.3807 114.574C5.05403 114.541 4.7007 114.524 4.3207 114.524Z" fill="#808C98"/>
<path d="M7.0907 124.67L5.1707 122.61C4.8107 122.217 4.5007 121.907 4.2407 121.68C3.9807 121.454 3.7407 121.29 3.5207 121.19C3.29403 121.09 3.0607 121.04 2.8207 121.04C2.46736 121.04 2.17736 121.144 1.9507 121.35C1.72403 121.55 1.6107 121.877 1.6107 122.331C1.6107 122.617 1.67403 122.86 1.8007 123.06C1.92736 123.26 2.10736 123.414 2.3407 123.521C2.56736 123.627 2.83403 123.684 3.1407 123.69L3.1407 124.651C2.60736 124.637 2.16403 124.527 1.8107 124.32C1.45736 124.114 1.19403 123.837 1.0207 123.49C0.840698 123.137 0.750698 122.747 0.750698 122.32C0.750698 121.84 0.837364 121.431 1.0107 121.091C1.18403 120.744 1.42736 120.48 1.7407 120.3C2.04736 120.12 2.40736 120.03 2.8207 120.03C3.1207 120.03 3.41403 120.087 3.7007 120.201C3.9807 120.307 4.28403 120.494 4.6107 120.76C4.9307 121.027 5.30403 121.39 5.7307 121.85L6.9807 123.211L6.9807 119.841L7.8207 119.841L7.8207 124.67L7.0907 124.67Z" fill="#808C98"/>
<path d="M10.8207 116.375L10.8207 115.375L16.8207 115.375L16.8207 116.375L10.8207 116.375Z" fill="#B3BAC2"/>
<path d="M10.8207 88.2746L10.8207 87.2746L16.8207 87.2746L16.8207 88.2746L10.8207 88.2746Z" fill="#B3BAC2"/>
<path d="M4.3207 57.4724C3.8007 57.4724 3.32403 57.4324 2.89069 57.3524C2.45069 57.2724 2.07403 57.139 1.7607 56.9523C1.44069 56.7657 1.19403 56.5056 1.02069 56.1723C0.840695 55.839 0.750695 55.4223 0.750695 54.9223C0.750695 54.4156 0.840695 53.999 1.02069 53.6723C1.19403 53.3456 1.44069 53.089 1.7607 52.9023C2.07403 52.709 2.45069 52.5757 2.89069 52.5023C3.32403 52.4223 3.80069 52.3823 4.32069 52.3823C4.84736 52.3823 5.33069 52.4223 5.77069 52.5023C6.20403 52.5757 6.58069 52.709 6.90069 52.9023C7.21403 53.089 7.45736 53.3456 7.6307 53.6723C7.80403 53.999 7.89069 54.4156 7.89069 54.9223C7.89069 55.4223 7.80403 55.839 7.6307 56.1723C7.45736 56.5056 7.21403 56.7657 6.9007 56.9523C6.5807 57.139 6.20403 57.2724 5.77069 57.3524C5.33069 57.4324 4.84736 57.4724 4.3207 57.4724ZM4.3207 53.3923C3.9607 53.3923 3.61736 53.409 3.29069 53.4423C2.96403 53.4757 2.67403 53.5423 2.42069 53.6423C2.16736 53.7357 1.97069 53.8857 1.83069 54.0923C1.68403 54.299 1.61069 54.5756 1.61069 54.9223C1.61069 55.269 1.68403 55.5457 1.83069 55.7523C1.9707 55.959 2.16736 56.1123 2.4207 56.2123C2.67403 56.3123 2.96403 56.379 3.29069 56.4124C3.61736 56.439 3.9607 56.4523 4.3207 56.4523C4.7007 56.4523 5.05403 56.439 5.3807 56.4124C5.70736 56.379 5.99403 56.3123 6.2407 56.2123C6.48736 56.1123 6.6807 55.959 6.8207 55.7523C6.9607 55.5457 7.0307 55.269 7.0307 54.9223C7.0307 54.5756 6.9607 54.299 6.8207 54.0923C6.68069 53.8857 6.48736 53.7357 6.2407 53.6423C5.99403 53.5423 5.70736 53.4757 5.38069 53.4423C5.05403 53.409 4.7007 53.3923 4.3207 53.3923Z" fill="#808C98"/>
<path d="M4.3207 63.82C3.8007 63.82 3.32403 63.78 2.8907 63.7C2.4507 63.62 2.07403 63.4867 1.7607 63.3C1.4407 63.1133 1.19403 62.8533 1.0207 62.52C0.840695 62.1866 0.750695 61.77 0.750695 61.27C0.750695 60.7633 0.840695 60.3466 1.0207 60.02C1.19403 59.6933 1.4407 59.4367 1.7607 59.25C2.07403 59.0567 2.4507 58.9233 2.89069 58.85C3.32403 58.77 3.8007 58.73 4.3207 58.73C4.84736 58.73 5.33069 58.77 5.7707 58.85C6.20403 58.9233 6.5807 59.0567 6.9007 59.25C7.21403 59.4367 7.45736 59.6933 7.6307 60.02C7.80403 60.3466 7.8907 60.7633 7.8907 61.27C7.8907 61.77 7.80403 62.1866 7.6307 62.52C7.45736 62.8533 7.21403 63.1133 6.9007 63.3C6.5807 63.4867 6.20403 63.62 5.7707 63.7C5.3307 63.78 4.84736 63.82 4.3207 63.82ZM4.3207 59.74C3.9607 59.74 3.61736 59.7566 3.2907 59.79C2.96403 59.8233 2.67403 59.89 2.4207 59.99C2.16736 60.0833 1.9707 60.2333 1.8307 60.44C1.68403 60.6467 1.61069 60.9233 1.61069 61.27C1.61069 61.6166 1.68403 61.8933 1.8307 62.1C1.9707 62.3066 2.16736 62.46 2.4207 62.56C2.67403 62.66 2.96403 62.7267 3.2907 62.76C3.61736 62.7867 3.9607 62.8 4.3207 62.8C4.7007 62.8 5.05403 62.7867 5.3807 62.76C5.70736 62.7267 5.99403 62.66 6.2407 62.56C6.48736 62.46 6.6807 62.3066 6.8207 62.1C6.9607 61.8933 7.0307 61.6166 7.0307 61.27C7.0307 60.9233 6.9607 60.6467 6.8207 60.44C6.6807 60.2333 6.48736 60.0833 6.2407 59.99C5.99403 59.89 5.70736 59.8233 5.3807 59.79C5.05403 59.7566 4.7007 59.74 4.3207 59.74Z" fill="#808C98"/>
<path d="M1.6607 66.2445L1.6607 67.1945L0.820695 67.1945L0.820695 65.2445L7.8207 65.2445L7.8207 66.2445L1.6607 66.2445Z" fill="#808C98"/>
<path d="M10.8207 60.1746L10.8207 59.1746L16.8207 59.1746L16.8207 60.1746L10.8207 60.1746Z" fill="#B3BAC2"/>
<path d="M10.8207 32.0746L10.8207 31.0746L16.8207 31.0746L16.8207 32.0746L10.8207 32.0746Z" fill="#B3BAC2"/>
<path d="M4.32069 6.01849C3.80069 6.01849 3.32403 5.9785 2.89069 5.8985C2.45069 5.8185 2.07403 5.68514 1.76069 5.49847C1.44069 5.31181 1.19403 5.05178 1.02069 4.71844C0.840693 4.38511 0.750693 3.96844 0.750693 3.46844C0.750693 2.96178 0.840693 2.54511 1.02069 2.21844C1.19403 1.89178 1.44069 1.63515 1.76069 1.44849C2.07403 1.25515 2.45069 1.1218 2.89069 1.04846C3.32403 0.968462 3.80069 0.928467 4.32069 0.928467C4.84736 0.928467 5.33069 0.968462 5.77069 1.04846C6.20403 1.12179 6.58069 1.25515 6.90069 1.44849C7.21403 1.63515 7.45736 1.89178 7.63069 2.21844C7.80403 2.54511 7.89069 2.96178 7.89069 3.46844C7.89069 3.96844 7.80403 4.38511 7.63069 4.71844C7.45736 5.05178 7.21403 5.31181 6.90069 5.49847C6.58069 5.68514 6.20403 5.8185 5.77069 5.8985C5.33069 5.9785 4.84736 6.01849 4.32069 6.01849ZM4.32069 1.93848C3.96069 1.93848 3.61736 1.95513 3.29069 1.98846C2.96403 2.0218 2.67403 2.08848 2.42069 2.18848C2.16736 2.28181 1.97069 2.43182 1.83069 2.63849C1.68403 2.84516 1.61069 3.12178 1.61069 3.46844C1.61069 3.81511 1.68403 4.0918 1.83069 4.29846C1.97069 4.50513 2.16736 4.65848 2.42069 4.75848C2.67403 4.85848 2.96403 4.92516 3.29069 4.9585C3.61736 4.98516 3.96069 4.99847 4.32069 4.99847C4.70069 4.99847 5.05403 4.98516 5.38069 4.9585C5.70736 4.92516 5.99403 4.85848 6.24069 4.75848C6.48736 4.65848 6.68069 4.50513 6.82069 4.29846C6.96069 4.0918 7.03069 3.81511 7.03069 3.46844C7.03069 3.12178 6.96069 2.84516 6.82069 2.63849C6.68069 2.43182 6.48736 2.28181 6.24069 2.18848C5.99403 2.08848 5.70736 2.0218 5.38069 1.98846C5.05403 1.95513 4.70069 1.93848 4.32069 1.93848Z" fill="#808C98"/>
<path d="M10.8207 3.97467L10.8207 2.97467L16.8207 2.97467L16.8207 3.97467L10.8207 3.97467Z" fill="#B3BAC2"/>
</svg>
