<svg width="594" height="17" viewBox="0 0 594 17" fill="none" xmlns="http://www.w3.org/2000/svg">
<path d="M0.456055 4.5C0.456055 3.98 0.496055 3.50333 0.576055 3.07C0.656055 2.63 0.789388 2.25333 0.976054 1.94C1.16272 1.62 1.42272 1.37333 1.75605 1.2C2.08939 1.02 2.50605 0.93 3.00605 0.93C3.51272 0.93 3.92939 1.02 4.25605 1.2C4.58272 1.37333 4.83939 1.62 5.02606 1.94C5.21939 2.25333 5.35272 2.63 5.42605 3.07C5.50606 3.50333 5.54605 3.98 5.54605 4.5C5.54605 5.02667 5.50606 5.51 5.42605 5.95C5.35272 6.38333 5.21939 6.76 5.02606 7.08C4.83939 7.39333 4.58272 7.63667 4.25605 7.81C3.92939 7.98333 3.51272 8.07 3.00605 8.07C2.50605 8.07 2.08939 7.98333 1.75605 7.81C1.42272 7.63667 1.16272 7.39333 0.976054 7.08C0.789388 6.76 0.656055 6.38333 0.576055 5.95C0.496055 5.51 0.456055 5.02667 0.456055 4.5ZM4.53605 4.5C4.53605 4.14 4.51939 3.79667 4.48605 3.47C4.45272 3.14333 4.38605 2.85333 4.28605 2.6C4.19272 2.34667 4.04272 2.15 3.83605 2.01C3.62939 1.86333 3.35272 1.79 3.00605 1.79C2.65939 1.79 2.38272 1.86333 2.17605 2.01C1.96939 2.15 1.81605 2.34667 1.71605 2.6C1.61605 2.85333 1.54939 3.14333 1.51606 3.47C1.48939 3.79667 1.47605 4.14 1.47605 4.5C1.47605 4.88 1.48939 5.23333 1.51606 5.56C1.54939 5.88667 1.61605 6.17333 1.71605 6.42C1.81605 6.66667 1.96939 6.86 2.17605 7C2.38272 7.14 2.65939 7.21 3.00605 7.21C3.35272 7.21 3.62939 7.14 3.83605 7C4.04272 6.86 4.19272 6.66667 4.28605 6.42C4.38605 6.17333 4.45272 5.88667 4.48605 5.56C4.51939 5.23333 4.53605 4.88 4.53605 4.5Z" fill="#808C98"/>
<path d="M2.49988 11H3.49988V17H2.49988V11Z" fill="#B3BAC2"/>
<path d="M30.5999 11H31.5999V17H30.5999V11Z" fill="#B3BAC2"/>
<path d="M61.4021 4.5C61.4021 3.98 61.4421 3.50333 61.5221 3.07C61.6021 2.63 61.7355 2.25333 61.9221 1.94C62.1088 1.62 62.3688 1.37333 62.7021 1.2C63.0355 1.02 63.4521 0.93 63.9521 0.93C64.4588 0.93 64.8755 1.02 65.2021 1.2C65.5288 1.37333 65.7855 1.62 65.9721 1.94C66.1655 2.25333 66.2988 2.63 66.3721 3.07C66.4521 3.50333 66.4921 3.98 66.4921 4.5C66.4921 5.02667 66.4521 5.51 66.3721 5.95C66.2988 6.38333 66.1655 6.76 65.9721 7.08C65.7855 7.39333 65.5288 7.63667 65.2021 7.81C64.8755 7.98333 64.4588 8.07 63.9521 8.07C63.4521 8.07 63.0355 7.98333 62.7021 7.81C62.3688 7.63667 62.1088 7.39333 61.9221 7.08C61.7355 6.76 61.6021 6.38333 61.5221 5.95C61.4421 5.51 61.4021 5.02667 61.4021 4.5ZM65.4821 4.5C65.4821 4.14 65.4655 3.79667 65.4321 3.47C65.3988 3.14333 65.3321 2.85333 65.2321 2.6C65.1388 2.34667 64.9888 2.15 64.7821 2.01C64.5755 1.86333 64.2988 1.79 63.9521 1.79C63.6055 1.79 63.3288 1.86333 63.1221 2.01C62.9155 2.15 62.7621 2.34667 62.6621 2.6C62.5621 2.85333 62.4955 3.14333 62.4621 3.47C62.4355 3.79667 62.4221 4.14 62.4221 4.5C62.4221 4.88 62.4355 5.23333 62.4621 5.56C62.4955 5.88667 62.5621 6.17333 62.6621 6.42C62.7621 6.66667 62.9155 6.86 63.1221 7C63.3288 7.14 63.6055 7.21 63.9521 7.21C64.2988 7.21 64.5755 7.14 64.7821 7C64.9888 6.86 65.1388 6.66667 65.2321 6.42C65.3321 6.17333 65.3988 5.88667 65.4321 5.56C65.4655 5.23333 65.4821 4.88 65.4821 4.5Z" fill="#808C98"/>
<path d="M55.0545 4.5C55.0545 3.98 55.0945 3.50333 55.1745 3.07C55.2545 2.63 55.3878 2.25333 55.5745 1.94C55.7612 1.62 56.0212 1.37333 56.3545 1.2C56.6878 1.02 57.1045 0.93 57.6045 0.93C58.1112 0.93 58.5278 1.02 58.8545 1.2C59.1812 1.37333 59.4378 1.62 59.6245 1.94C59.8178 2.25333 59.9512 2.63 60.0245 3.07C60.1045 3.50333 60.1445 3.98 60.1445 4.5C60.1445 5.02667 60.1045 5.51 60.0245 5.95C59.9512 6.38333 59.8178 6.76 59.6245 7.08C59.4378 7.39333 59.1812 7.63667 58.8545 7.81C58.5278 7.98333 58.1112 8.07 57.6045 8.07C57.1045 8.07 56.6878 7.98333 56.3545 7.81C56.0212 7.63667 55.7612 7.39333 55.5745 7.08C55.3878 6.76 55.2545 6.38333 55.1745 5.95C55.0945 5.51 55.0545 5.02667 55.0545 4.5ZM59.1345 4.5C59.1345 4.14 59.1178 3.79667 59.0845 3.47C59.0512 3.14333 58.9845 2.85333 58.8845 2.6C58.7912 2.34667 58.6412 2.15 58.4345 2.01C58.2278 1.86333 57.9512 1.79 57.6045 1.79C57.2578 1.79 56.9812 1.86333 56.7745 2.01C56.5678 2.15 56.4145 2.34667 56.3145 2.6C56.2145 2.85333 56.1478 3.14333 56.1145 3.47C56.0878 3.79667 56.0745 4.14 56.0745 4.5C56.0745 4.88 56.0878 5.23333 56.1145 5.56C56.1478 5.88667 56.2145 6.17333 56.3145 6.42C56.4145 6.66667 56.5678 6.86 56.7745 7C56.9812 7.14 57.2578 7.21 57.6045 7.21C57.9512 7.21 58.2278 7.14 58.4345 7C58.6412 6.86 58.7912 6.66667 58.8845 6.42C58.9845 6.17333 59.0512 5.88667 59.0845 5.56C59.1178 5.23333 59.1345 4.88 59.1345 4.5Z" fill="#808C98"/>
<path d="M52.63 1.84H51.68V1H53.63V8H52.63V1.84Z" fill="#808C98"/>
<path d="M58.6999 11H59.6999V17H58.6999V11Z" fill="#B3BAC2"/>
<path d="M86.7999 11H87.7999V17H86.7999V11Z" fill="#B3BAC2"/>
<path d="M119.018 4.5C119.018 3.98 119.058 3.50333 119.138 3.07C119.218 2.63 119.351 2.25333 119.538 1.94C119.725 1.62 119.985 1.37333 120.318 1.2C120.651 1.02 121.068 0.93 121.568 0.93C122.075 0.93 122.491 1.02 122.818 1.2C123.145 1.37333 123.401 1.62 123.588 1.94C123.781 2.25333 123.915 2.63 123.988 3.07C124.068 3.50333 124.108 3.98 124.108 4.5C124.108 5.02667 124.068 5.51 123.988 5.95C123.915 6.38333 123.781 6.76 123.588 7.08C123.401 7.39333 123.145 7.63667 122.818 7.81C122.491 7.98333 122.075 8.07 121.568 8.07C121.068 8.07 120.651 7.98333 120.318 7.81C119.985 7.63667 119.725 7.39333 119.538 7.08C119.351 6.76 119.218 6.38333 119.138 5.95C119.058 5.51 119.018 5.02667 119.018 4.5ZM123.098 4.5C123.098 4.14 123.081 3.79667 123.048 3.47C123.015 3.14333 122.948 2.85333 122.848 2.6C122.755 2.34667 122.605 2.15 122.398 2.01C122.191 1.86333 121.915 1.79 121.568 1.79C121.221 1.79 120.945 1.86333 120.738 2.01C120.531 2.15 120.378 2.34667 120.278 2.6C120.178 2.85333 120.111 3.14333 120.078 3.47C120.051 3.79667 120.038 4.14 120.038 4.5C120.038 4.88 120.051 5.23333 120.078 5.56C120.111 5.88667 120.178 6.17333 120.278 6.42C120.378 6.66667 120.531 6.86 120.738 7C120.945 7.14 121.221 7.21 121.568 7.21C121.915 7.21 122.191 7.14 122.398 7C122.605 6.86 122.755 6.66667 122.848 6.42C122.948 6.17333 123.015 5.88667 123.048 5.56C123.081 5.23333 123.098 4.88 123.098 4.5Z" fill="#808C98"/>
<path d="M112.671 4.5C112.671 3.98 112.711 3.50333 112.791 3.07C112.871 2.63 113.004 2.25333 113.19 1.94C113.377 1.62 113.637 1.37333 113.971 1.2C114.304 1.02 114.721 0.93 115.221 0.93C115.727 0.93 116.144 1.02 116.471 1.2C116.797 1.37333 117.054 1.62 117.241 1.94C117.434 2.25333 117.567 2.63 117.641 3.07C117.721 3.50333 117.76 3.98 117.76 4.5C117.76 5.02667 117.721 5.51 117.641 5.95C117.567 6.38333 117.434 6.76 117.241 7.08C117.054 7.39333 116.797 7.63667 116.471 7.81C116.144 7.98333 115.727 8.07 115.221 8.07C114.721 8.07 114.304 7.98333 113.971 7.81C113.637 7.63667 113.377 7.39333 113.19 7.08C113.004 6.76 112.871 6.38333 112.791 5.95C112.711 5.51 112.671 5.02667 112.671 4.5ZM116.751 4.5C116.751 4.14 116.734 3.79667 116.701 3.47C116.667 3.14333 116.601 2.85333 116.501 2.6C116.407 2.34667 116.257 2.15 116.05 2.01C115.844 1.86333 115.567 1.79 115.221 1.79C114.874 1.79 114.597 1.86333 114.391 2.01C114.184 2.15 114.031 2.34667 113.931 2.6C113.831 2.85333 113.764 3.14333 113.73 3.47C113.704 3.79667 113.69 4.14 113.69 4.5C113.69 4.88 113.704 5.23333 113.73 5.56C113.764 5.88667 113.831 6.17333 113.931 6.42C114.031 6.66667 114.184 6.86 114.391 7C114.597 7.14 114.874 7.21 115.221 7.21C115.567 7.21 115.844 7.14 116.05 7C116.257 6.86 116.407 6.66667 116.501 6.42C116.601 6.17333 116.667 5.88667 116.701 5.56C116.734 5.23333 116.751 4.88 116.751 4.5Z" fill="#808C98"/>
<path d="M106.604 7.27L108.664 5.35C109.057 4.99 109.367 4.68 109.594 4.42C109.821 4.16 109.984 3.92 110.084 3.7C110.184 3.47333 110.234 3.24 110.234 3C110.234 2.64667 110.131 2.35667 109.924 2.13C109.724 1.90333 109.397 1.79 108.944 1.79C108.657 1.79 108.414 1.85333 108.214 1.98C108.014 2.10667 107.861 2.28667 107.754 2.52C107.647 2.74667 107.591 3.01333 107.584 3.32H106.624C106.637 2.78667 106.747 2.34333 106.954 1.99C107.161 1.63667 107.437 1.37333 107.784 1.2C108.137 1.02 108.527 0.93 108.954 0.93C109.434 0.93 109.844 1.01667 110.184 1.19C110.531 1.36333 110.794 1.60667 110.974 1.92C111.154 2.22667 111.244 2.58667 111.244 3C111.244 3.3 111.187 3.59333 111.074 3.88C110.967 4.16 110.781 4.46333 110.514 4.79C110.247 5.11 109.884 5.48333 109.424 5.91L108.064 7.16H111.434V8H106.604V7.27Z" fill="#808C98"/>
<path d="M114.9 11H115.9V17H114.9V11Z" fill="#B3BAC2"/>
<path d="M143 11H144V17H143V11Z" fill="#B3BAC2"/>
<path d="M175.213 4.5C175.213 3.98 175.253 3.50333 175.333 3.07C175.413 2.63 175.547 2.25333 175.733 1.94C175.92 1.62 176.18 1.37333 176.513 1.2C176.847 1.02 177.263 0.93 177.763 0.93C178.27 0.93 178.687 1.02 179.013 1.2C179.34 1.37333 179.597 1.62 179.783 1.94C179.977 2.25333 180.11 2.63 180.183 3.07C180.263 3.50333 180.303 3.98 180.303 4.5C180.303 5.02667 180.263 5.51 180.183 5.95C180.11 6.38333 179.977 6.76 179.783 7.08C179.597 7.39333 179.34 7.63667 179.013 7.81C178.687 7.98333 178.27 8.07 177.763 8.07C177.263 8.07 176.847 7.98333 176.513 7.81C176.18 7.63667 175.92 7.39333 175.733 7.08C175.547 6.76 175.413 6.38333 175.333 5.95C175.253 5.51 175.213 5.02667 175.213 4.5ZM179.293 4.5C179.293 4.14 179.277 3.79667 179.243 3.47C179.21 3.14333 179.143 2.85333 179.043 2.6C178.95 2.34667 178.8 2.15 178.593 2.01C178.387 1.86333 178.11 1.79 177.763 1.79C177.417 1.79 177.14 1.86333 176.933 2.01C176.727 2.15 176.573 2.34667 176.473 2.6C176.373 2.85333 176.307 3.14333 176.273 3.47C176.247 3.79667 176.233 4.14 176.233 4.5C176.233 4.88 176.247 5.23333 176.273 5.56C176.307 5.88667 176.373 6.17333 176.473 6.42C176.573 6.66667 176.727 6.86 176.933 7C177.14 7.14 177.417 7.21 177.763 7.21C178.11 7.21 178.387 7.14 178.593 7C178.8 6.86 178.95 6.66667 179.043 6.42C179.143 6.17333 179.21 5.88667 179.243 5.56C179.277 5.23333 179.293 4.88 179.293 4.5Z" fill="#808C98"/>
<path d="M168.866 4.5C168.866 3.98 168.906 3.50333 168.986 3.07C169.066 2.63 169.199 2.25333 169.386 1.94C169.572 1.62 169.832 1.37333 170.166 1.2C170.499 1.02 170.916 0.93 171.416 0.93C171.922 0.93 172.339 1.02 172.666 1.2C172.992 1.37333 173.249 1.62 173.436 1.94C173.629 2.25333 173.762 2.63 173.836 3.07C173.916 3.50333 173.956 3.98 173.956 4.5C173.956 5.02667 173.916 5.51 173.836 5.95C173.762 6.38333 173.629 6.76 173.436 7.08C173.249 7.39333 172.992 7.63667 172.666 7.81C172.339 7.98333 171.922 8.07 171.416 8.07C170.916 8.07 170.499 7.98333 170.166 7.81C169.832 7.63667 169.572 7.39333 169.386 7.08C169.199 6.76 169.066 6.38333 168.986 5.95C168.906 5.51 168.866 5.02667 168.866 4.5ZM172.946 4.5C172.946 4.14 172.929 3.79667 172.896 3.47C172.862 3.14333 172.796 2.85333 172.696 2.6C172.602 2.34667 172.452 2.15 172.246 2.01C172.039 1.86333 171.762 1.79 171.416 1.79C171.069 1.79 170.792 1.86333 170.586 2.01C170.379 2.15 170.226 2.34667 170.126 2.6C170.026 2.85333 169.959 3.14333 169.926 3.47C169.899 3.79667 169.886 4.14 169.886 4.5C169.886 4.88 169.899 5.23333 169.926 5.56C169.959 5.88667 170.026 6.17333 170.126 6.42C170.226 6.66667 170.379 6.86 170.586 7C170.792 7.14 171.069 7.21 171.416 7.21C171.762 7.21 172.039 7.14 172.246 7C172.452 6.86 172.602 6.66667 172.696 6.42C172.796 6.17333 172.862 5.88667 172.896 5.56C172.929 5.23333 172.946 4.88 172.946 4.5Z" fill="#808C98"/>
<path d="M162.899 2.9C162.926 2.48 163.042 2.12333 163.249 1.83C163.462 1.53667 163.742 1.31333 164.089 1.16C164.436 1.00667 164.832 0.93 165.279 0.93C165.752 0.93 166.152 1.02 166.479 1.2C166.806 1.38 167.052 1.62 167.219 1.92C167.392 2.21333 167.479 2.53333 167.479 2.88C167.479 3.13333 167.425 3.36667 167.319 3.58C167.212 3.78667 167.065 3.96333 166.879 4.11C166.699 4.25667 166.492 4.36 166.259 4.42V4.47C166.526 4.53667 166.759 4.64333 166.959 4.79C167.165 4.93 167.325 5.11333 167.439 5.34C167.552 5.56 167.609 5.82667 167.609 6.14C167.609 6.52 167.522 6.85667 167.349 7.15C167.175 7.43667 166.915 7.66333 166.569 7.83C166.229 7.99 165.805 8.07 165.299 8.07C164.812 8.07 164.385 7.99667 164.019 7.85C163.652 7.70333 163.362 7.47333 163.149 7.16C162.942 6.84667 162.825 6.44 162.799 5.94H163.759C163.792 6.35333 163.929 6.67 164.169 6.89C164.409 7.10333 164.785 7.21 165.299 7.21C165.599 7.21 165.846 7.16333 166.039 7.07C166.232 6.97667 166.372 6.84667 166.459 6.68C166.552 6.50667 166.599 6.3 166.599 6.06C166.599 5.60667 166.442 5.3 166.129 5.14C165.822 4.97333 165.356 4.89 164.729 4.89H164.479V4.04H164.739C165.119 4.03333 165.435 3.99333 165.689 3.92C165.949 3.84667 166.142 3.73667 166.269 3.59C166.402 3.43667 166.469 3.23667 166.469 2.99C166.469 2.65667 166.369 2.37333 166.169 2.14C165.969 1.90667 165.662 1.79 165.249 1.79C164.969 1.79 164.732 1.84 164.539 1.94C164.346 2.03333 164.192 2.16333 164.079 2.33C163.965 2.49667 163.896 2.68667 163.869 2.9H162.899Z" fill="#808C98"/>
<path d="M171.1 11H172.1V17H171.1V11Z" fill="#B3BAC2"/>
<path d="M199.2 11H200.2V17H199.2V11Z" fill="#B3BAC2"/>
<path d="M231.701 4.5C231.701 3.98 231.741 3.50333 231.821 3.07C231.901 2.63 232.035 2.25333 232.221 1.94C232.408 1.62 232.668 1.37333 233.001 1.2C233.335 1.02 233.751 0.93 234.251 0.93C234.758 0.93 235.175 1.02 235.501 1.2C235.828 1.37333 236.085 1.62 236.271 1.94C236.465 2.25333 236.598 2.63 236.671 3.07C236.751 3.50333 236.791 3.98 236.791 4.5C236.791 5.02667 236.751 5.51 236.671 5.95C236.598 6.38333 236.465 6.76 236.271 7.08C236.085 7.39333 235.828 7.63667 235.501 7.81C235.175 7.98333 234.758 8.07 234.251 8.07C233.751 8.07 233.335 7.98333 233.001 7.81C232.668 7.63667 232.408 7.39333 232.221 7.08C232.035 6.76 231.901 6.38333 231.821 5.95C231.741 5.51 231.701 5.02667 231.701 4.5ZM235.781 4.5C235.781 4.14 235.765 3.79667 235.731 3.47C235.698 3.14333 235.631 2.85333 235.531 2.6C235.438 2.34667 235.288 2.15 235.081 2.01C234.875 1.86333 234.598 1.79 234.251 1.79C233.905 1.79 233.628 1.86333 233.421 2.01C233.215 2.15 233.061 2.34667 232.961 2.6C232.861 2.85333 232.795 3.14333 232.761 3.47C232.735 3.79667 232.721 4.14 232.721 4.5C232.721 4.88 232.735 5.23333 232.761 5.56C232.795 5.88667 232.861 6.17333 232.961 6.42C233.061 6.66667 233.215 6.86 233.421 7C233.628 7.14 233.905 7.21 234.251 7.21C234.598 7.21 234.875 7.14 235.081 7C235.288 6.86 235.438 6.66667 235.531 6.42C235.631 6.17333 235.698 5.88667 235.731 5.56C235.765 5.23333 235.781 4.88 235.781 4.5Z" fill="#808C98"/>
<path d="M225.354 4.5C225.354 3.98 225.394 3.50333 225.474 3.07C225.554 2.63 225.687 2.25333 225.874 1.94C226.06 1.62 226.32 1.37333 226.654 1.2C226.987 1.02 227.404 0.93 227.904 0.93C228.41 0.93 228.827 1.02 229.154 1.2C229.48 1.37333 229.737 1.62 229.924 1.94C230.117 2.25333 230.25 2.63 230.324 3.07C230.404 3.50333 230.444 3.98 230.444 4.5C230.444 5.02667 230.404 5.51 230.324 5.95C230.25 6.38333 230.117 6.76 229.924 7.08C229.737 7.39333 229.48 7.63667 229.154 7.81C228.827 7.98333 228.41 8.07 227.904 8.07C227.404 8.07 226.987 7.98333 226.654 7.81C226.32 7.63667 226.06 7.39333 225.874 7.08C225.687 6.76 225.554 6.38333 225.474 5.95C225.394 5.51 225.354 5.02667 225.354 4.5ZM229.434 4.5C229.434 4.14 229.417 3.79667 229.384 3.47C229.35 3.14333 229.284 2.85333 229.184 2.6C229.09 2.34667 228.94 2.15 228.734 2.01C228.527 1.86333 228.25 1.79 227.904 1.79C227.557 1.79 227.28 1.86333 227.074 2.01C226.867 2.15 226.714 2.34667 226.614 2.6C226.514 2.85333 226.447 3.14333 226.414 3.47C226.387 3.79667 226.374 4.14 226.374 4.5C226.374 4.88 226.387 5.23333 226.414 5.56C226.447 5.88667 226.514 6.17333 226.614 6.42C226.714 6.66667 226.867 6.86 227.074 7C227.28 7.14 227.557 7.21 227.904 7.21C228.25 7.21 228.527 7.14 228.734 7C228.94 6.86 229.09 6.66667 229.184 6.42C229.284 6.17333 229.35 5.88667 229.384 5.56C229.417 5.23333 229.434 4.88 229.434 4.5Z" fill="#808C98"/>
<path d="M222.251 6.4H218.581V5.67L222.031 1H223.241V5.55H224.201V6.4H223.241V8H222.251V6.4ZM222.271 5.55V2.03L219.721 5.55H222.271Z" fill="#808C98"/>
<path d="M227.3 11H228.3V17H227.3V11Z" fill="#B3BAC2"/>
<path d="M255.4 11H256.4V17H255.4V11Z" fill="#B3BAC2"/>
<path d="M287.745 4.5C287.745 3.98 287.785 3.50333 287.865 3.07C287.945 2.63 288.078 2.25333 288.265 1.94C288.452 1.62 288.712 1.37333 289.045 1.2C289.378 1.02 289.795 0.93 290.295 0.93C290.802 0.93 291.218 1.02 291.545 1.2C291.872 1.37333 292.128 1.62 292.315 1.94C292.508 2.25333 292.642 2.63 292.715 3.07C292.795 3.50333 292.835 3.98 292.835 4.5C292.835 5.02667 292.795 5.51 292.715 5.95C292.642 6.38333 292.508 6.76 292.315 7.08C292.128 7.39333 291.872 7.63667 291.545 7.81C291.218 7.98333 290.802 8.07 290.295 8.07C289.795 8.07 289.378 7.98333 289.045 7.81C288.712 7.63667 288.452 7.39333 288.265 7.08C288.078 6.76 287.945 6.38333 287.865 5.95C287.785 5.51 287.745 5.02667 287.745 4.5ZM291.825 4.5C291.825 4.14 291.808 3.79667 291.775 3.47C291.742 3.14333 291.675 2.85333 291.575 2.6C291.482 2.34667 291.332 2.15 291.125 2.01C290.918 1.86333 290.642 1.79 290.295 1.79C289.948 1.79 289.672 1.86333 289.465 2.01C289.258 2.15 289.105 2.34667 289.005 2.6C288.905 2.85333 288.838 3.14333 288.805 3.47C288.778 3.79667 288.765 4.14 288.765 4.5C288.765 4.88 288.778 5.23333 288.805 5.56C288.838 5.88667 288.905 6.17333 289.005 6.42C289.105 6.66667 289.258 6.86 289.465 7C289.672 7.14 289.948 7.21 290.295 7.21C290.642 7.21 290.918 7.14 291.125 7C291.332 6.86 291.482 6.66667 291.575 6.42C291.675 6.17333 291.742 5.88667 291.775 5.56C291.808 5.23333 291.825 4.88 291.825 4.5Z" fill="#808C98"/>
<path d="M281.397 4.5C281.397 3.98 281.437 3.50333 281.517 3.07C281.597 2.63 281.731 2.25333 281.917 1.94C282.104 1.62 282.364 1.37333 282.697 1.2C283.031 1.02 283.447 0.93 283.947 0.93C284.454 0.93 284.871 1.02 285.197 1.2C285.524 1.37333 285.781 1.62 285.967 1.94C286.161 2.25333 286.294 2.63 286.367 3.07C286.447 3.50333 286.487 3.98 286.487 4.5C286.487 5.02667 286.447 5.51 286.367 5.95C286.294 6.38333 286.161 6.76 285.967 7.08C285.781 7.39333 285.524 7.63667 285.197 7.81C284.871 7.98333 284.454 8.07 283.947 8.07C283.447 8.07 283.031 7.98333 282.697 7.81C282.364 7.63667 282.104 7.39333 281.917 7.08C281.731 6.76 281.597 6.38333 281.517 5.95C281.437 5.51 281.397 5.02667 281.397 4.5ZM285.477 4.5C285.477 4.14 285.461 3.79667 285.427 3.47C285.394 3.14333 285.327 2.85333 285.227 2.6C285.134 2.34667 284.984 2.15 284.777 2.01C284.571 1.86333 284.294 1.79 283.947 1.79C283.601 1.79 283.324 1.86333 283.117 2.01C282.911 2.15 282.758 2.34667 282.658 2.6C282.558 2.85333 282.491 3.14333 282.457 3.47C282.431 3.79667 282.417 4.14 282.417 4.5C282.417 4.88 282.431 5.23333 282.457 5.56C282.491 5.88667 282.558 6.17333 282.658 6.42C282.758 6.66667 282.911 6.86 283.117 7C283.324 7.14 283.601 7.21 283.947 7.21C284.294 7.21 284.571 7.14 284.777 7C284.984 6.86 285.134 6.66667 285.227 6.42C285.327 6.17333 285.394 5.88667 285.427 5.56C285.461 5.23333 285.477 4.88 285.477 4.5Z" fill="#808C98"/>
<path d="M279.697 1V1.84H276.317V3.93C276.457 3.73667 276.66 3.58 276.927 3.46C277.194 3.34 277.497 3.28 277.837 3.28C278.27 3.28 278.634 3.35333 278.927 3.5C279.22 3.64667 279.457 3.83667 279.637 4.07C279.824 4.30333 279.957 4.55667 280.037 4.83C280.124 5.09667 280.167 5.35333 280.167 5.6C280.167 6.05333 280.07 6.46667 279.877 6.84C279.69 7.21333 279.41 7.51333 279.037 7.74C278.664 7.96 278.21 8.07 277.677 8.07C277.197 8.07 276.777 7.98667 276.417 7.82C276.064 7.64667 275.78 7.41333 275.567 7.12C275.36 6.82 275.227 6.48 275.167 6.1H276.137C276.224 6.44667 276.4 6.72 276.667 6.92C276.94 7.11333 277.28 7.21 277.687 7.21C278.02 7.21 278.297 7.14333 278.517 7.01C278.737 6.87667 278.897 6.69333 278.997 6.46C279.104 6.22 279.157 5.94 279.157 5.62C279.157 5.15333 279.03 4.79 278.777 4.53C278.524 4.27 278.164 4.14 277.697 4.14C277.344 4.14 277.044 4.22333 276.797 4.39C276.55 4.55667 276.374 4.78333 276.267 5.07H275.327V1H279.697Z" fill="#808C98"/>
<path d="M283.5 11H284.5V17H283.5V11Z" fill="#B3BAC2"/>
<path d="M311.6 11H312.6V17H311.6V11Z" fill="#B3BAC2"/>
<path d="M343.867 4.5C343.867 3.98 343.907 3.50333 343.987 3.07C344.067 2.63 344.2 2.25333 344.387 1.94C344.574 1.62 344.834 1.37333 345.167 1.2C345.5 1.02 345.917 0.93 346.417 0.93C346.924 0.93 347.34 1.02 347.667 1.2C347.994 1.37333 348.25 1.62 348.437 1.94C348.63 2.25333 348.764 2.63 348.837 3.07C348.917 3.50333 348.957 3.98 348.957 4.5C348.957 5.02667 348.917 5.51 348.837 5.95C348.764 6.38333 348.63 6.76 348.437 7.08C348.25 7.39333 347.994 7.63667 347.667 7.81C347.34 7.98333 346.924 8.07 346.417 8.07C345.917 8.07 345.5 7.98333 345.167 7.81C344.834 7.63667 344.574 7.39333 344.387 7.08C344.2 6.76 344.067 6.38333 343.987 5.95C343.907 5.51 343.867 5.02667 343.867 4.5ZM347.947 4.5C347.947 4.14 347.93 3.79667 347.897 3.47C347.864 3.14333 347.797 2.85333 347.697 2.6C347.604 2.34667 347.454 2.15 347.247 2.01C347.04 1.86333 346.764 1.79 346.417 1.79C346.07 1.79 345.794 1.86333 345.587 2.01C345.38 2.15 345.227 2.34667 345.127 2.6C345.027 2.85333 344.96 3.14333 344.927 3.47C344.9 3.79667 344.887 4.14 344.887 4.5C344.887 4.88 344.9 5.23333 344.927 5.56C344.96 5.88667 345.027 6.17333 345.127 6.42C345.227 6.66667 345.38 6.86 345.587 7C345.794 7.14 346.07 7.21 346.417 7.21C346.764 7.21 347.04 7.14 347.247 7C347.454 6.86 347.604 6.66667 347.697 6.42C347.797 6.17333 347.864 5.88667 347.897 5.56C347.93 5.23333 347.947 4.88 347.947 4.5Z" fill="#808C98"/>
<path d="M337.519 4.5C337.519 3.98 337.559 3.50333 337.639 3.07C337.719 2.63 337.853 2.25333 338.039 1.94C338.226 1.62 338.486 1.37333 338.819 1.2C339.153 1.02 339.569 0.93 340.069 0.93C340.576 0.93 340.993 1.02 341.319 1.2C341.646 1.37333 341.903 1.62 342.089 1.94C342.283 2.25333 342.416 2.63 342.489 3.07C342.569 3.50333 342.609 3.98 342.609 4.5C342.609 5.02667 342.569 5.51 342.489 5.95C342.416 6.38333 342.283 6.76 342.089 7.08C341.903 7.39333 341.646 7.63667 341.319 7.81C340.993 7.98333 340.576 8.07 340.069 8.07C339.569 8.07 339.153 7.98333 338.819 7.81C338.486 7.63667 338.226 7.39333 338.039 7.08C337.853 6.76 337.719 6.38333 337.639 5.95C337.559 5.51 337.519 5.02667 337.519 4.5ZM341.599 4.5C341.599 4.14 341.583 3.79667 341.549 3.47C341.516 3.14333 341.449 2.85333 341.349 2.6C341.256 2.34667 341.106 2.15 340.899 2.01C340.693 1.86333 340.416 1.79 340.069 1.79C339.723 1.79 339.446 1.86333 339.239 2.01C339.033 2.15 338.879 2.34667 338.779 2.6C338.679 2.85333 338.613 3.14333 338.579 3.47C338.553 3.79667 338.539 4.14 338.539 4.5C338.539 4.88 338.553 5.23333 338.579 5.56C338.613 5.88667 338.679 6.17333 338.779 6.42C338.879 6.66667 339.033 6.86 339.239 7C339.446 7.14 339.723 7.21 340.069 7.21C340.416 7.21 340.693 7.14 340.899 7C341.106 6.86 341.256 6.66667 341.349 6.42C341.449 6.17333 341.516 5.88667 341.549 5.56C341.583 5.23333 341.599 4.88 341.599 4.5Z" fill="#808C98"/>
<path d="M333.885 8.07C333.392 8.07 332.952 7.96333 332.565 7.75C332.185 7.53667 331.889 7.24333 331.675 6.87C331.462 6.49667 331.355 6.07667 331.355 5.61C331.355 5.24333 331.422 4.87667 331.555 4.51C331.695 4.14333 331.912 3.77 332.205 3.39L334.035 1H335.115L333.035 3.7L331.875 4.89C332.015 4.41667 332.272 4.03333 332.645 3.74C333.025 3.44667 333.482 3.3 334.015 3.3C334.482 3.3 334.895 3.4 335.255 3.6C335.615 3.79333 335.895 4.06667 336.095 4.42C336.302 4.76667 336.405 5.17 336.405 5.63C336.405 6.09667 336.295 6.51667 336.075 6.89C335.862 7.25667 335.562 7.54667 335.175 7.76C334.795 7.96667 334.365 8.07 333.885 8.07ZM332.365 5.63C332.365 5.95 332.422 6.23 332.535 6.47C332.655 6.70333 332.828 6.88667 333.055 7.02C333.288 7.14667 333.565 7.21 333.885 7.21C334.212 7.21 334.485 7.14667 334.705 7.02C334.932 6.88667 335.102 6.70333 335.215 6.47C335.335 6.23 335.395 5.95 335.395 5.63C335.395 5.30333 335.335 5.02667 335.215 4.8C335.102 4.57333 334.932 4.4 334.705 4.28C334.485 4.16 334.212 4.1 333.885 4.1C333.565 4.1 333.288 4.16 333.055 4.28C332.828 4.4 332.655 4.57333 332.535 4.8C332.422 5.02667 332.365 5.30333 332.365 5.63Z" fill="#808C98"/>
<path d="M339.7 11H340.7V17H339.7V11Z" fill="#B3BAC2"/>
<path d="M367.8 11H368.8V17H367.8V11Z" fill="#B3BAC2"/>
<path d="M399.813 4.5C399.813 3.98 399.853 3.50333 399.933 3.07C400.013 2.63 400.146 2.25333 400.333 1.94C400.52 1.62 400.78 1.37333 401.113 1.2C401.446 1.02 401.863 0.93 402.363 0.93C402.87 0.93 403.286 1.02 403.613 1.2C403.94 1.37333 404.196 1.62 404.383 1.94C404.576 2.25333 404.71 2.63 404.783 3.07C404.863 3.50333 404.903 3.98 404.903 4.5C404.903 5.02667 404.863 5.51 404.783 5.95C404.71 6.38333 404.576 6.76 404.383 7.08C404.196 7.39333 403.94 7.63667 403.613 7.81C403.286 7.98333 402.87 8.07 402.363 8.07C401.863 8.07 401.446 7.98333 401.113 7.81C400.78 7.63667 400.52 7.39333 400.333 7.08C400.146 6.76 400.013 6.38333 399.933 5.95C399.853 5.51 399.813 5.02667 399.813 4.5ZM403.893 4.5C403.893 4.14 403.876 3.79667 403.843 3.47C403.81 3.14333 403.743 2.85333 403.643 2.6C403.55 2.34667 403.4 2.15 403.193 2.01C402.986 1.86333 402.71 1.79 402.363 1.79C402.016 1.79 401.74 1.86333 401.533 2.01C401.326 2.15 401.173 2.34667 401.073 2.6C400.973 2.85333 400.906 3.14333 400.873 3.47C400.846 3.79667 400.833 4.14 400.833 4.5C400.833 4.88 400.846 5.23333 400.873 5.56C400.906 5.88667 400.973 6.17333 401.073 6.42C401.173 6.66667 401.326 6.86 401.533 7C401.74 7.14 402.016 7.21 402.363 7.21C402.71 7.21 402.986 7.14 403.193 7C403.4 6.86 403.55 6.66667 403.643 6.42C403.743 6.17333 403.81 5.88667 403.843 5.56C403.876 5.23333 403.893 4.88 403.893 4.5Z" fill="#808C98"/>
<path d="M393.465 4.5C393.465 3.98 393.505 3.50333 393.585 3.07C393.665 2.63 393.799 2.25333 393.985 1.94C394.172 1.62 394.432 1.37333 394.765 1.2C395.099 1.02 395.515 0.93 396.015 0.93C396.522 0.93 396.939 1.02 397.265 1.2C397.592 1.37333 397.849 1.62 398.035 1.94C398.229 2.25333 398.362 2.63 398.435 3.07C398.515 3.50333 398.555 3.98 398.555 4.5C398.555 5.02667 398.515 5.51 398.435 5.95C398.362 6.38333 398.229 6.76 398.035 7.08C397.849 7.39333 397.592 7.63667 397.265 7.81C396.939 7.98333 396.522 8.07 396.015 8.07C395.515 8.07 395.099 7.98333 394.765 7.81C394.432 7.63667 394.172 7.39333 393.985 7.08C393.799 6.76 393.665 6.38333 393.585 5.95C393.505 5.51 393.465 5.02667 393.465 4.5ZM397.545 4.5C397.545 4.14 397.529 3.79667 397.495 3.47C397.462 3.14333 397.395 2.85333 397.295 2.6C397.202 2.34667 397.052 2.15 396.845 2.01C396.639 1.86333 396.362 1.79 396.015 1.79C395.669 1.79 395.392 1.86333 395.185 2.01C394.979 2.15 394.825 2.34667 394.725 2.6C394.625 2.85333 394.559 3.14333 394.525 3.47C394.499 3.79667 394.485 4.14 394.485 4.5C394.485 4.88 394.499 5.23333 394.525 5.56C394.559 5.88667 394.625 6.17333 394.725 6.42C394.825 6.66667 394.979 6.86 395.185 7C395.392 7.14 395.669 7.21 396.015 7.21C396.362 7.21 396.639 7.14 396.845 7C397.052 6.86 397.202 6.66667 397.295 6.42C397.395 6.17333 397.462 5.88667 397.495 5.56C397.529 5.23333 397.545 4.88 397.545 4.5Z" fill="#808C98"/>
<path d="M392.439 1V1.74L389.659 8H388.659L391.469 1.84H387.669V1H392.439Z" fill="#808C98"/>
<path d="M395.9 11H396.9V17H395.9V11Z" fill="#B3BAC2"/>
<path d="M424 11H425V17H424V11Z" fill="#B3BAC2"/>
<path d="M456.37 4.5C456.37 3.98 456.41 3.50333 456.49 3.07C456.57 2.63 456.703 2.25333 456.89 1.94C457.076 1.62 457.336 1.37333 457.67 1.2C458.003 1.02 458.42 0.93 458.92 0.93C459.426 0.93 459.843 1.02 460.17 1.2C460.496 1.37333 460.753 1.62 460.94 1.94C461.133 2.25333 461.266 2.63 461.34 3.07C461.42 3.50333 461.46 3.98 461.46 4.5C461.46 5.02667 461.42 5.51 461.34 5.95C461.266 6.38333 461.133 6.76 460.94 7.08C460.753 7.39333 460.496 7.63667 460.17 7.81C459.843 7.98333 459.426 8.07 458.92 8.07C458.42 8.07 458.003 7.98333 457.67 7.81C457.336 7.63667 457.076 7.39333 456.89 7.08C456.703 6.76 456.57 6.38333 456.49 5.95C456.41 5.51 456.37 5.02667 456.37 4.5ZM460.45 4.5C460.45 4.14 460.433 3.79667 460.4 3.47C460.366 3.14333 460.3 2.85333 460.2 2.6C460.106 2.34667 459.956 2.15 459.75 2.01C459.543 1.86333 459.266 1.79 458.92 1.79C458.573 1.79 458.296 1.86333 458.09 2.01C457.883 2.15 457.73 2.34667 457.63 2.6C457.53 2.85333 457.463 3.14333 457.43 3.47C457.403 3.79667 457.39 4.14 457.39 4.5C457.39 4.88 457.403 5.23333 457.43 5.56C457.463 5.88667 457.53 6.17333 457.63 6.42C457.73 6.66667 457.883 6.86 458.09 7C458.296 7.14 458.573 7.21 458.92 7.21C459.266 7.21 459.543 7.14 459.75 7C459.956 6.86 460.106 6.66667 460.2 6.42C460.3 6.17333 460.366 5.88667 460.4 5.56C460.433 5.23333 460.45 4.88 460.45 4.5Z" fill="#808C98"/>
<path d="M450.022 4.5C450.022 3.98 450.062 3.50333 450.142 3.07C450.222 2.63 450.355 2.25333 450.542 1.94C450.729 1.62 450.989 1.37333 451.322 1.2C451.655 1.02 452.072 0.93 452.572 0.93C453.079 0.93 453.495 1.02 453.822 1.2C454.149 1.37333 454.405 1.62 454.592 1.94C454.785 2.25333 454.919 2.63 454.992 3.07C455.072 3.50333 455.112 3.98 455.112 4.5C455.112 5.02667 455.072 5.51 454.992 5.95C454.919 6.38333 454.785 6.76 454.592 7.08C454.405 7.39333 454.149 7.63667 453.822 7.81C453.495 7.98333 453.079 8.07 452.572 8.07C452.072 8.07 451.655 7.98333 451.322 7.81C450.989 7.63667 450.729 7.39333 450.542 7.08C450.355 6.76 450.222 6.38333 450.142 5.95C450.062 5.51 450.022 5.02667 450.022 4.5ZM454.102 4.5C454.102 4.14 454.085 3.79667 454.052 3.47C454.019 3.14333 453.952 2.85333 453.852 2.6C453.759 2.34667 453.609 2.15 453.402 2.01C453.195 1.86333 452.919 1.79 452.572 1.79C452.225 1.79 451.949 1.86333 451.742 2.01C451.535 2.15 451.382 2.34667 451.282 2.6C451.182 2.85333 451.115 3.14333 451.082 3.47C451.055 3.79667 451.042 4.14 451.042 4.5C451.042 4.88 451.055 5.23333 451.082 5.56C451.115 5.88667 451.182 6.17333 451.282 6.42C451.382 6.66667 451.535 6.86 451.742 7C451.949 7.14 452.225 7.21 452.572 7.21C452.919 7.21 453.195 7.14 453.402 7C453.609 6.86 453.759 6.66667 453.852 6.42C453.952 6.17333 454.019 5.88667 454.052 5.56C454.085 5.23333 454.102 4.88 454.102 4.5Z" fill="#808C98"/>
<path d="M444.983 4.32C444.636 4.18 444.363 3.98333 444.163 3.73C443.963 3.47 443.863 3.14667 443.863 2.76C443.863 2.42 443.953 2.11333 444.133 1.84C444.313 1.56667 444.576 1.34667 444.923 1.18C445.276 1.01333 445.719 0.93 446.253 0.93C446.779 0.93 447.219 1.01333 447.573 1.18C447.926 1.34667 448.189 1.57 448.363 1.85C448.543 2.12333 448.633 2.42667 448.633 2.76C448.633 3.12667 448.529 3.44667 448.323 3.72C448.116 3.98667 447.846 4.18667 447.513 4.32C447.913 4.44667 448.229 4.65667 448.463 4.95C448.703 5.24333 448.823 5.60333 448.823 6.03C448.823 6.45 448.713 6.81333 448.493 7.12C448.273 7.42 447.969 7.65333 447.583 7.82C447.203 7.98667 446.759 8.07 446.253 8.07C445.746 8.07 445.299 7.98667 444.913 7.82C444.526 7.65333 444.223 7.42 444.003 7.12C443.789 6.81333 443.683 6.45 443.683 6.03C443.683 5.60333 443.799 5.24333 444.033 4.95C444.273 4.65 444.589 4.44 444.983 4.32ZM447.613 2.87C447.613 2.49 447.493 2.21667 447.253 2.05C447.019 1.87667 446.686 1.79 446.253 1.79C445.826 1.79 445.489 1.87333 445.243 2.04C445.003 2.20667 444.883 2.48667 444.883 2.88C444.883 3.22 445.006 3.49 445.253 3.69C445.499 3.88333 445.833 3.98 446.253 3.98C446.673 3.98 447.003 3.88333 447.243 3.69C447.489 3.49 447.613 3.21667 447.613 2.87ZM446.253 4.76C445.953 4.76 445.683 4.80333 445.443 4.89C445.209 4.97667 445.026 5.11 444.893 5.29C444.759 5.47 444.693 5.70667 444.693 6C444.693 6.38667 444.826 6.68667 445.093 6.9C445.366 7.10667 445.753 7.21 446.253 7.21C446.746 7.21 447.129 7.10333 447.403 6.89C447.676 6.67667 447.813 6.38 447.813 6C447.813 5.72 447.746 5.49 447.613 5.31C447.479 5.12333 447.296 4.98667 447.063 4.9C446.829 4.80667 446.559 4.76 446.253 4.76Z" fill="#808C98"/>
<path d="M452.1 11H453.1V17H452.1V11Z" fill="#B3BAC2"/>
<path d="M480.2 11H481.2V17H480.2V11Z" fill="#B3BAC2"/>
<path d="M512.467 4.5C512.467 3.98 512.507 3.50333 512.587 3.07C512.667 2.63 512.8 2.25333 512.987 1.94C513.174 1.62 513.434 1.37333 513.767 1.2C514.1 1.02 514.517 0.93 515.017 0.93C515.524 0.93 515.94 1.02 516.267 1.2C516.594 1.37333 516.85 1.62 517.037 1.94C517.23 2.25333 517.364 2.63 517.437 3.07C517.517 3.50333 517.557 3.98 517.557 4.5C517.557 5.02667 517.517 5.51 517.437 5.95C517.364 6.38333 517.23 6.76 517.037 7.08C516.85 7.39333 516.594 7.63667 516.267 7.81C515.94 7.98333 515.524 8.07 515.017 8.07C514.517 8.07 514.1 7.98333 513.767 7.81C513.434 7.63667 513.174 7.39333 512.987 7.08C512.8 6.76 512.667 6.38333 512.587 5.95C512.507 5.51 512.467 5.02667 512.467 4.5ZM516.547 4.5C516.547 4.14 516.53 3.79667 516.497 3.47C516.464 3.14333 516.397 2.85333 516.297 2.6C516.204 2.34667 516.054 2.15 515.847 2.01C515.64 1.86333 515.364 1.79 515.017 1.79C514.67 1.79 514.394 1.86333 514.187 2.01C513.98 2.15 513.827 2.34667 513.727 2.6C513.627 2.85333 513.56 3.14333 513.527 3.47C513.5 3.79667 513.487 4.14 513.487 4.5C513.487 4.88 513.5 5.23333 513.527 5.56C513.56 5.88667 513.627 6.17333 513.727 6.42C513.827 6.66667 513.98 6.86 514.187 7C514.394 7.14 514.67 7.21 515.017 7.21C515.364 7.21 515.64 7.14 515.847 7C516.054 6.86 516.204 6.66667 516.297 6.42C516.397 6.17333 516.464 5.88667 516.497 5.56C516.53 5.23333 516.547 4.88 516.547 4.5Z" fill="#808C98"/>
<path d="M506.119 4.5C506.119 3.98 506.159 3.50333 506.239 3.07C506.319 2.63 506.453 2.25333 506.639 1.94C506.826 1.62 507.086 1.37333 507.419 1.2C507.753 1.02 508.169 0.93 508.669 0.93C509.176 0.93 509.593 1.02 509.919 1.2C510.246 1.37333 510.503 1.62 510.689 1.94C510.883 2.25333 511.016 2.63 511.089 3.07C511.169 3.50333 511.209 3.98 511.209 4.5C511.209 5.02667 511.169 5.51 511.089 5.95C511.016 6.38333 510.883 6.76 510.689 7.08C510.503 7.39333 510.246 7.63667 509.919 7.81C509.593 7.98333 509.176 8.07 508.669 8.07C508.169 8.07 507.753 7.98333 507.419 7.81C507.086 7.63667 506.826 7.39333 506.639 7.08C506.453 6.76 506.319 6.38333 506.239 5.95C506.159 5.51 506.119 5.02667 506.119 4.5ZM510.199 4.5C510.199 4.14 510.183 3.79667 510.149 3.47C510.116 3.14333 510.049 2.85333 509.949 2.6C509.856 2.34667 509.706 2.15 509.499 2.01C509.293 1.86333 509.016 1.79 508.669 1.79C508.323 1.79 508.046 1.86333 507.839 2.01C507.633 2.15 507.479 2.34667 507.379 2.6C507.279 2.85333 507.213 3.14333 507.179 3.47C507.153 3.79667 507.139 4.14 507.139 4.5C507.139 4.88 507.153 5.23333 507.179 5.56C507.213 5.88667 507.279 6.17333 507.379 6.42C507.479 6.66667 507.633 6.86 507.839 7C508.046 7.14 508.323 7.21 508.669 7.21C509.016 7.21 509.293 7.14 509.499 7C509.706 6.86 509.856 6.66667 509.949 6.42C510.049 6.17333 510.116 5.88667 510.149 5.56C510.183 5.23333 510.199 4.88 510.199 4.5Z" fill="#808C98"/>
<path d="M502.405 0.93C502.899 0.93 503.335 1.03667 503.715 1.25C504.102 1.46333 504.402 1.75667 504.615 2.13C504.835 2.50333 504.945 2.92333 504.945 3.39C504.945 3.75667 504.875 4.12333 504.735 4.49C504.595 4.85667 504.379 5.23 504.085 5.61L502.265 8H501.185L503.265 5.3L504.415 4.11C504.282 4.58333 504.025 4.96667 503.645 5.26C503.272 5.55333 502.819 5.7 502.285 5.7C501.812 5.7 501.395 5.60333 501.035 5.41C500.682 5.21 500.402 4.93667 500.195 4.59C499.995 4.23667 499.895 3.83 499.895 3.37C499.895 2.89667 500.002 2.47667 500.215 2.11C500.435 1.74333 500.732 1.45667 501.105 1.25C501.485 1.03667 501.919 0.93 502.405 0.93ZM503.935 3.37C503.935 3.04333 503.875 2.76333 503.755 2.53C503.635 2.29667 503.459 2.11667 503.225 1.99C502.999 1.85667 502.725 1.79 502.405 1.79C502.079 1.79 501.802 1.85667 501.575 1.99C501.355 2.11667 501.189 2.29667 501.075 2.53C500.962 2.76333 500.905 3.04333 500.905 3.37C500.905 3.69 500.962 3.96667 501.075 4.2C501.189 4.42667 501.355 4.6 501.575 4.72C501.802 4.84 502.079 4.9 502.405 4.9C502.725 4.9 502.999 4.84 503.225 4.72C503.459 4.6 503.635 4.42667 503.755 4.2C503.875 3.96667 503.935 3.69 503.935 3.37Z" fill="#808C98"/>
<path d="M508.3 11H509.3V17H508.3V11Z" fill="#B3BAC2"/>
<path d="M536.4 11H537.4V17H536.4V11Z" fill="#B3BAC2"/>
<path d="M570.376 4.5C570.376 3.98 570.416 3.50333 570.496 3.07C570.576 2.63 570.709 2.25333 570.896 1.94C571.083 1.62 571.343 1.37333 571.676 1.2C572.009 1.02 572.426 0.93 572.926 0.93C573.433 0.93 573.849 1.02 574.176 1.2C574.503 1.37333 574.759 1.62 574.946 1.94C575.139 2.25333 575.273 2.63 575.346 3.07C575.426 3.50333 575.466 3.98 575.466 4.5C575.466 5.02667 575.426 5.51 575.346 5.95C575.273 6.38333 575.139 6.76 574.946 7.08C574.759 7.39333 574.503 7.63667 574.176 7.81C573.849 7.98333 573.433 8.07 572.926 8.07C572.426 8.07 572.009 7.98333 571.676 7.81C571.343 7.63667 571.083 7.39333 570.896 7.08C570.709 6.76 570.576 6.38333 570.496 5.95C570.416 5.51 570.376 5.02667 570.376 4.5ZM574.456 4.5C574.456 4.14 574.439 3.79667 574.406 3.47C574.373 3.14333 574.306 2.85333 574.206 2.6C574.113 2.34667 573.963 2.15 573.756 2.01C573.549 1.86333 573.273 1.79 572.926 1.79C572.579 1.79 572.303 1.86333 572.096 2.01C571.889 2.15 571.736 2.34667 571.636 2.6C571.536 2.85333 571.469 3.14333 571.436 3.47C571.409 3.79667 571.396 4.14 571.396 4.5C571.396 4.88 571.409 5.23333 571.436 5.56C571.469 5.88667 571.536 6.17333 571.636 6.42C571.736 6.66667 571.889 6.86 572.096 7C572.303 7.14 572.579 7.21 572.926 7.21C573.273 7.21 573.549 7.14 573.756 7C573.963 6.86 574.113 6.66667 574.206 6.42C574.306 6.17333 574.373 5.88667 574.406 5.56C574.439 5.23333 574.456 4.88 574.456 4.5Z" fill="#808C98"/>
<path d="M564.028 4.5C564.028 3.98 564.068 3.50333 564.148 3.07C564.228 2.63 564.362 2.25333 564.548 1.94C564.735 1.62 564.995 1.37333 565.328 1.2C565.662 1.02 566.078 0.93 566.578 0.93C567.085 0.93 567.502 1.02 567.828 1.2C568.155 1.37333 568.412 1.62 568.598 1.94C568.792 2.25333 568.925 2.63 568.998 3.07C569.078 3.50333 569.118 3.98 569.118 4.5C569.118 5.02667 569.078 5.51 568.998 5.95C568.925 6.38333 568.792 6.76 568.598 7.08C568.412 7.39333 568.155 7.63667 567.828 7.81C567.502 7.98333 567.085 8.07 566.578 8.07C566.078 8.07 565.662 7.98333 565.328 7.81C564.995 7.63667 564.735 7.39333 564.548 7.08C564.362 6.76 564.228 6.38333 564.148 5.95C564.068 5.51 564.028 5.02667 564.028 4.5ZM568.108 4.5C568.108 4.14 568.092 3.79667 568.058 3.47C568.025 3.14333 567.958 2.85333 567.858 2.6C567.765 2.34667 567.615 2.15 567.408 2.01C567.202 1.86333 566.925 1.79 566.578 1.79C566.232 1.79 565.955 1.86333 565.748 2.01C565.542 2.15 565.388 2.34667 565.288 2.6C565.188 2.85333 565.122 3.14333 565.088 3.47C565.062 3.79667 565.048 4.14 565.048 4.5C565.048 4.88 565.062 5.23333 565.088 5.56C565.122 5.88667 565.188 6.17333 565.288 6.42C565.388 6.66667 565.542 6.86 565.748 7C565.955 7.14 566.232 7.21 566.578 7.21C566.925 7.21 567.202 7.14 567.408 7C567.615 6.86 567.765 6.66667 567.858 6.42C567.958 6.17333 568.025 5.88667 568.058 5.56C568.092 5.23333 568.108 4.88 568.108 4.5Z" fill="#808C98"/>
<path d="M557.681 4.5C557.681 3.98 557.721 3.50333 557.801 3.07C557.881 2.63 558.014 2.25333 558.201 1.94C558.387 1.62 558.647 1.37333 558.981 1.2C559.314 1.02 559.731 0.93 560.231 0.93C560.737 0.93 561.154 1.02 561.481 1.2C561.807 1.37333 562.064 1.62 562.251 1.94C562.444 2.25333 562.577 2.63 562.651 3.07C562.731 3.50333 562.771 3.98 562.771 4.5C562.771 5.02667 562.731 5.51 562.651 5.95C562.577 6.38333 562.444 6.76 562.251 7.08C562.064 7.39333 561.807 7.63667 561.481 7.81C561.154 7.98333 560.737 8.07 560.231 8.07C559.731 8.07 559.314 7.98333 558.981 7.81C558.647 7.63667 558.387 7.39333 558.201 7.08C558.014 6.76 557.881 6.38333 557.801 5.95C557.721 5.51 557.681 5.02667 557.681 4.5ZM561.761 4.5C561.761 4.14 561.744 3.79667 561.711 3.47C561.677 3.14333 561.611 2.85333 561.511 2.6C561.417 2.34667 561.267 2.15 561.061 2.01C560.854 1.86333 560.577 1.79 560.231 1.79C559.884 1.79 559.607 1.86333 559.401 2.01C559.194 2.15 559.041 2.34667 558.941 2.6C558.841 2.85333 558.774 3.14333 558.741 3.47C558.714 3.79667 558.701 4.14 558.701 4.5C558.701 4.88 558.714 5.23333 558.741 5.56C558.774 5.88667 558.841 6.17333 558.941 6.42C559.041 6.66667 559.194 6.86 559.401 7C559.607 7.14 559.884 7.21 560.231 7.21C560.577 7.21 560.854 7.14 561.061 7C561.267 6.86 561.417 6.66667 561.511 6.42C561.611 6.17333 561.677 5.88667 561.711 5.56C561.744 5.23333 561.761 4.88 561.761 4.5Z" fill="#808C98"/>
<path d="M555.256 1.84H554.306V1H556.256V8H555.256V1.84Z" fill="#808C98"/>
<path d="M564.5 11H565.5V17H564.5V11Z" fill="#B3BAC2"/>
<path d="M592.6 11H593.6V17H592.6V11Z" fill="#B3BAC2"/>
</svg>
