<svg width="17" height="594" viewBox="0 0 17 594" fill="none" xmlns="http://www.w3.org/2000/svg">
<path d="M10.0715 594.001L10.0715 593.001L16.0715 593.001L16.0715 594.001L10.0715 594.001Z" fill="#B3BAC2"/>
<path d="M3.57146 560.025C3.05146 560.025 2.5748 559.985 2.14146 559.905C1.70146 559.825 1.3248 559.692 1.01146 559.505C0.691463 559.319 0.444796 559.059 0.271463 558.725C0.0914632 558.392 0.00146327 557.975 0.00146325 557.475C0.00146322 556.969 0.0914631 556.552 0.271463 556.225C0.444796 555.899 0.691463 555.642 1.01146 555.455C1.3248 555.262 1.70146 555.129 2.14146 555.055C2.5748 554.975 3.05146 554.935 3.57146 554.935C4.09813 554.935 4.58146 554.975 5.02146 555.055C5.4548 555.129 5.83146 555.262 6.15146 555.455C6.4648 555.642 6.70813 555.899 6.88146 556.225C7.0548 556.552 7.14146 556.969 7.14146 557.475C7.14146 557.975 7.0548 558.392 6.88146 558.725C6.70813 559.059 6.4648 559.319 6.15146 559.505C5.83146 559.692 5.4548 559.825 5.02146 559.905C4.58146 559.985 4.09813 560.025 3.57146 560.025ZM3.57146 555.945C3.21146 555.945 2.86813 555.962 2.54146 555.995C2.2148 556.029 1.9248 556.095 1.67146 556.195C1.41813 556.289 1.22146 556.439 1.08146 556.645C0.934796 556.852 0.861463 557.129 0.861463 557.475C0.861463 557.822 0.934796 558.099 1.08146 558.305C1.22146 558.512 1.41813 558.665 1.67146 558.765C1.9248 558.865 2.2148 558.932 2.54146 558.965C2.86813 558.992 3.21146 559.005 3.57146 559.005C3.95146 559.005 4.3048 558.992 4.63146 558.965C4.95813 558.932 5.2448 558.865 5.49146 558.765C5.73813 558.665 5.93146 558.512 6.07146 558.305C6.21146 558.099 6.28146 557.822 6.28146 557.475C6.28146 557.129 6.21146 556.852 6.07146 556.645C5.93146 556.439 5.73813 556.289 5.49146 556.195C5.2448 556.095 4.95813 556.029 4.63146 555.995C4.3048 555.962 3.95146 555.945 3.57146 555.945Z" fill="#808C98"/>
<path d="M3.57146 566.373C3.05146 566.373 2.5748 566.333 2.14146 566.253C1.70146 566.173 1.3248 566.04 1.01146 565.853C0.691464 565.666 0.444797 565.406 0.271464 565.073C0.0914635 564.74 0.00146355 564.323 0.00146352 563.823C0.0014635 563.316 0.0914634 562.9 0.271463 562.573C0.444797 562.246 0.691463 561.99 1.01146 561.803C1.3248 561.61 1.70146 561.476 2.14146 561.403C2.5748 561.323 3.05146 561.283 3.57146 561.283C4.09813 561.283 4.58146 561.323 5.02146 561.403C5.4548 561.476 5.83146 561.61 6.15146 561.803C6.4648 561.99 6.70813 562.246 6.88146 562.573C7.0548 562.9 7.14146 563.316 7.14146 563.823C7.14146 564.323 7.0548 564.74 6.88146 565.073C6.70813 565.406 6.4648 565.666 6.15146 565.853C5.83146 566.04 5.4548 566.173 5.02146 566.253C4.58146 566.333 4.09813 566.373 3.57146 566.373ZM3.57146 562.293C3.21146 562.293 2.86813 562.31 2.54146 562.343C2.2148 562.376 1.9248 562.443 1.67146 562.543C1.41813 562.636 1.22146 562.786 1.08146 562.993C0.934797 563.2 0.861463 563.476 0.861463 563.823C0.861463 564.17 0.934797 564.446 1.08146 564.653C1.22146 564.86 1.41813 565.013 1.67146 565.113C1.9248 565.213 2.2148 565.28 2.54146 565.313C2.86813 565.34 3.21146 565.353 3.57146 565.353C3.95146 565.353 4.3048 565.34 4.63146 565.313C4.95813 565.28 5.2448 565.213 5.49146 565.113C5.73813 565.013 5.93146 564.86 6.07146 564.653C6.21146 564.446 6.28146 564.17 6.28146 563.823C6.28146 563.476 6.21146 563.2 6.07146 562.993C5.93146 562.786 5.73813 562.636 5.49146 562.543C5.2448 562.443 4.95813 562.376 4.63146 562.343C4.3048 562.31 3.95146 562.293 3.57146 562.293Z" fill="#808C98"/>
<path d="M3.57146 572.721C3.05146 572.721 2.5748 572.681 2.14146 572.601C1.70146 572.521 1.3248 572.387 1.01146 572.201C0.691464 572.014 0.444797 571.754 0.271464 571.421C0.0914638 571.087 0.00146382 570.671 0.0014638 570.171C0.00146378 569.664 0.0914637 569.247 0.271464 568.921C0.444797 568.594 0.691464 568.337 1.01146 568.151C1.3248 567.957 1.70146 567.824 2.14146 567.751C2.5748 567.671 3.05146 567.631 3.57146 567.631C4.09813 567.631 4.58146 567.671 5.02146 567.751C5.4548 567.824 5.83146 567.957 6.15146 568.151C6.4648 568.337 6.70813 568.594 6.88146 568.921C7.0548 569.247 7.14146 569.664 7.14146 570.171C7.14146 570.671 7.0548 571.087 6.88146 571.421C6.70813 571.754 6.4648 572.014 6.15146 572.201C5.83146 572.387 5.4548 572.521 5.02146 572.601C4.58146 572.681 4.09813 572.721 3.57146 572.721ZM3.57146 568.641C3.21146 568.641 2.86813 568.657 2.54146 568.691C2.2148 568.724 1.9248 568.791 1.67146 568.891C1.41813 568.984 1.22146 569.134 1.08146 569.341C0.934797 569.547 0.861463 569.824 0.861463 570.171C0.861463 570.517 0.934797 570.794 1.08146 571.001C1.22146 571.207 1.41813 571.361 1.67146 571.461C1.9248 571.561 2.2148 571.627 2.54146 571.661C2.86813 571.687 3.21146 571.701 3.57146 571.701C3.95146 571.701 4.3048 571.687 4.63146 571.661C4.95813 571.627 5.2448 571.561 5.49146 571.461C5.73813 571.361 5.93146 571.207 6.07146 571.001C6.21146 570.794 6.28146 570.517 6.28146 570.171C6.28146 569.824 6.21146 569.547 6.07146 569.341C5.93146 569.134 5.73813 568.984 5.49146 568.891C5.2448 568.791 4.95813 568.724 4.63146 568.691C4.3048 568.657 3.95146 568.641 3.57146 568.641Z" fill="#808C98"/>
<path d="M0.911464 575.145L0.911464 576.095L0.0714638 576.095L0.0714637 574.145L7.07146 574.145L7.07146 575.145L0.911464 575.145Z" fill="#808C98"/>
<path d="M10.0715 565.901L10.0715 564.901L16.0715 564.901L16.0715 565.901L10.0715 565.901Z" fill="#B3BAC2"/>
<path d="M10.0715 537.801L10.0715 536.801L16.0715 536.801L16.0715 537.801L10.0715 537.801Z" fill="#B3BAC2"/>
<path d="M3.57146 505.534C3.05146 505.534 2.57479 505.494 2.14146 505.414C1.70146 505.334 1.32479 505.201 1.01146 505.014C0.691461 504.828 0.444794 504.568 0.271461 504.234C0.0914608 503.901 0.00146089 503.484 0.00146087 502.984C0.00146084 502.478 0.0914607 502.061 0.271461 501.734C0.444794 501.408 0.691461 501.151 1.01146 500.964C1.32479 500.771 1.70146 500.638 2.14146 500.564C2.57479 500.484 3.05146 500.444 3.57146 500.444C4.09813 500.444 4.58146 500.484 5.02146 500.564C5.45479 500.638 5.83146 500.771 6.15146 500.964C6.46479 501.151 6.70813 501.408 6.88146 501.734C7.05479 502.061 7.14146 502.478 7.14146 502.984C7.14146 503.484 7.05479 503.901 6.88146 504.234C6.70813 504.568 6.46479 504.828 6.15146 505.014C5.83146 505.201 5.45479 505.334 5.02146 505.414C4.58146 505.494 4.09813 505.534 3.57146 505.534ZM3.57146 501.454C3.21146 501.454 2.86813 501.471 2.54146 501.504C2.21479 501.538 1.92479 501.604 1.67146 501.704C1.41813 501.798 1.22146 501.948 1.08146 502.154C0.934794 502.361 0.861461 502.638 0.861461 502.984C0.861461 503.331 0.934794 503.608 1.08146 503.814C1.22146 504.021 1.41813 504.174 1.67146 504.274C1.92479 504.374 2.21479 504.441 2.54146 504.474C2.86813 504.501 3.21146 504.514 3.57146 504.514C3.95146 504.514 4.30479 504.501 4.63146 504.474C4.95813 504.441 5.24479 504.374 5.49146 504.274C5.73813 504.174 5.93146 504.021 6.07146 503.814C6.21146 503.608 6.28146 503.331 6.28146 502.984C6.28146 502.638 6.21146 502.361 6.07146 502.154C5.93146 501.948 5.73813 501.798 5.49146 501.704C5.24479 501.604 4.95813 501.538 4.63146 501.504C4.30479 501.471 3.95146 501.454 3.57146 501.454Z" fill="#808C98"/>
<path d="M3.57146 511.882C3.05146 511.882 2.57479 511.842 2.14146 511.762C1.70146 511.682 1.32479 511.549 1.01146 511.362C0.691461 511.175 0.444794 510.915 0.271461 510.582C0.0914611 510.249 0.00146116 509.832 0.00146114 509.332C0.00146112 508.825 0.091461 508.409 0.271461 508.082C0.444794 507.755 0.691461 507.499 1.01146 507.312C1.32479 507.119 1.70146 506.985 2.14146 506.912C2.57479 506.832 3.05146 506.792 3.57146 506.792C4.09813 506.792 4.58146 506.832 5.02146 506.912C5.45479 506.985 5.83146 507.119 6.15146 507.312C6.46479 507.499 6.70813 507.755 6.88146 508.082C7.0548 508.409 7.14146 508.825 7.14146 509.332C7.14146 509.832 7.0548 510.249 6.88146 510.582C6.70813 510.915 6.46479 511.175 6.15146 511.362C5.83146 511.549 5.45479 511.682 5.02146 511.762C4.58146 511.842 4.09813 511.882 3.57146 511.882ZM3.57146 507.802C3.21146 507.802 2.86813 507.819 2.54146 507.852C2.21479 507.885 1.92479 507.952 1.67146 508.052C1.41813 508.145 1.22146 508.295 1.08146 508.502C0.934794 508.709 0.861461 508.985 0.861461 509.332C0.861461 509.679 0.934794 509.955 1.08146 510.162C1.22146 510.369 1.41813 510.522 1.67146 510.622C1.92479 510.722 2.21479 510.789 2.54146 510.822C2.86813 510.849 3.21146 510.862 3.57146 510.862C3.95146 510.862 4.30479 510.849 4.63146 510.822C4.95813 510.789 5.24479 510.722 5.49146 510.622C5.73813 510.522 5.93146 510.369 6.07146 510.162C6.21146 509.955 6.28146 509.679 6.28146 509.332C6.28146 508.985 6.21146 508.709 6.07146 508.502C5.93146 508.295 5.73813 508.145 5.49146 508.052C5.24479 507.952 4.95813 507.885 4.63146 507.852C4.30479 507.819 3.95146 507.802 3.57146 507.802Z" fill="#808C98"/>
<path d="M0.00146142 515.596C0.00146139 515.103 0.108128 514.666 0.321462 514.286C0.534795 513.9 0.828128 513.6 1.20146 513.386C1.57479 513.166 1.99479 513.056 2.46146 513.056C2.82813 513.056 3.19479 513.126 3.56146 513.266C3.92813 513.406 4.30146 513.623 4.68146 513.916L7.07146 515.736L7.07146 516.816L4.37146 514.736L3.18146 513.586C3.65479 513.72 4.03813 513.976 4.33146 514.356C4.62479 514.73 4.77146 515.183 4.77146 515.716C4.77146 516.19 4.67479 516.606 4.48146 516.966C4.28146 517.32 4.00813 517.6 3.66146 517.806C3.30813 518.006 2.90146 518.106 2.44146 518.106C1.96813 518.106 1.54813 518 1.18146 517.786C0.814795 517.566 0.528128 517.27 0.321462 516.896C0.108128 516.516 0.00146144 516.083 0.00146142 515.596ZM2.44146 514.066C2.11479 514.066 1.83479 514.126 1.60146 514.246C1.36813 514.366 1.18813 514.543 1.06146 514.776C0.928128 515.003 0.861461 515.276 0.861461 515.596C0.861461 515.923 0.928128 516.2 1.06146 516.426C1.18813 516.646 1.36813 516.813 1.60146 516.926C1.83479 517.04 2.11479 517.096 2.44146 517.096C2.76146 517.096 3.03813 517.04 3.27146 516.926C3.49813 516.813 3.67146 516.646 3.79146 516.426C3.91146 516.2 3.97146 515.923 3.97146 515.596C3.97146 515.276 3.91146 515.003 3.79146 514.776C3.67146 514.543 3.49813 514.366 3.27146 514.246C3.03813 514.126 2.76146 514.066 2.44146 514.066Z" fill="#808C98"/>
<path d="M10.0715 509.701L10.0715 508.701L16.0715 508.701L16.0715 509.701L10.0715 509.701Z" fill="#B3BAC2"/>
<path d="M10.0715 481.601L10.0715 480.601L16.0715 480.601L16.0715 481.601L10.0715 481.601Z" fill="#B3BAC2"/>
<path d="M3.57146 449.232C3.05146 449.232 2.57479 449.192 2.14146 449.112C1.70146 449.032 1.32479 448.898 1.01146 448.712C0.691458 448.525 0.444792 448.265 0.271458 447.932C0.0914584 447.598 0.00145843 447.182 0.0014584 446.682C0.00145838 446.175 0.0914583 445.758 0.271458 445.432C0.444791 445.105 0.691458 444.848 1.01146 444.662C1.32479 444.468 1.70146 444.335 2.14146 444.262C2.57479 444.182 3.05146 444.142 3.57146 444.142C4.09813 444.142 4.58146 444.182 5.02146 444.262C5.45479 444.335 5.83146 444.468 6.15146 444.662C6.46479 444.848 6.70813 445.105 6.88146 445.432C7.05479 445.758 7.14146 446.175 7.14146 446.682C7.14146 447.182 7.05479 447.598 6.88146 447.932C6.70813 448.265 6.46479 448.525 6.15146 448.712C5.83146 448.898 5.45479 449.032 5.02146 449.112C4.58146 449.192 4.09813 449.232 3.57146 449.232ZM3.57146 445.152C3.21146 445.152 2.86812 445.168 2.54146 445.202C2.21479 445.235 1.92479 445.302 1.67146 445.402C1.41813 445.495 1.22146 445.645 1.08146 445.852C0.934792 446.058 0.861458 446.335 0.861458 446.682C0.861458 447.028 0.934792 447.305 1.08146 447.512C1.22146 447.718 1.41813 447.872 1.67146 447.972C1.92479 448.072 2.21479 448.138 2.54146 448.172C2.86813 448.198 3.21146 448.212 3.57146 448.212C3.95146 448.212 4.30479 448.198 4.63146 448.172C4.95813 448.138 5.24479 448.072 5.49146 447.972C5.73813 447.872 5.93146 447.718 6.07146 447.512C6.21146 447.305 6.28146 447.028 6.28146 446.682C6.28146 446.335 6.21146 446.058 6.07146 445.852C5.93146 445.645 5.73813 445.495 5.49146 445.402C5.24479 445.302 4.95813 445.235 4.63146 445.202C4.30479 445.168 3.95146 445.152 3.57146 445.152Z" fill="#808C98"/>
<path d="M3.57146 455.579C3.05146 455.579 2.57479 455.539 2.14146 455.459C1.70146 455.379 1.32479 455.246 1.01146 455.059C0.691459 454.873 0.444792 454.613 0.271459 454.279C0.0914586 453.946 0.0014587 453.529 0.00145868 453.029C0.00145866 452.523 0.0914586 452.106 0.271459 451.779C0.444792 451.453 0.691459 451.196 1.01146 451.009C1.32479 450.816 1.70146 450.683 2.14146 450.609C2.57479 450.529 3.05146 450.489 3.57146 450.489C4.09813 450.489 4.58146 450.529 5.02146 450.609C5.45479 450.683 5.83146 450.816 6.15146 451.009C6.46479 451.196 6.70813 451.453 6.88146 451.779C7.05479 452.106 7.14146 452.523 7.14146 453.029C7.14146 453.529 7.05479 453.946 6.88146 454.279C6.70813 454.613 6.46479 454.873 6.15146 455.059C5.83146 455.246 5.45479 455.379 5.02146 455.459C4.58146 455.539 4.09813 455.579 3.57146 455.579ZM3.57146 451.499C3.21146 451.499 2.86813 451.516 2.54146 451.549C2.21479 451.583 1.92479 451.649 1.67146 451.749C1.41813 451.843 1.22146 451.993 1.08146 452.199C0.934792 452.406 0.861458 452.683 0.861458 453.029C0.861458 453.376 0.934792 453.653 1.08146 453.859C1.22146 454.066 1.41813 454.219 1.67146 454.319C1.92479 454.419 2.21479 454.486 2.54146 454.519C2.86813 454.546 3.21146 454.559 3.57146 454.559C3.95146 454.559 4.30479 454.546 4.63146 454.519C4.95813 454.486 5.24479 454.419 5.49146 454.319C5.73813 454.219 5.93146 454.066 6.07146 453.859C6.21146 453.653 6.28146 453.376 6.28146 453.029C6.28146 452.683 6.21146 452.406 6.07146 452.199C5.93146 451.993 5.73813 451.843 5.49146 451.749C5.24479 451.649 4.95813 451.583 4.63146 451.549C4.30479 451.516 3.95146 451.499 3.57146 451.499Z" fill="#808C98"/>
<path d="M3.39146 460.619C3.25146 460.965 3.05479 461.239 2.80146 461.439C2.54146 461.639 2.21813 461.739 1.83146 461.739C1.49146 461.739 1.18479 461.649 0.911459 461.469C0.638126 461.289 0.418126 461.025 0.251459 460.679C0.0847923 460.325 0.00145898 459.882 0.00145896 459.349C0.00145893 458.822 0.0847922 458.382 0.251459 458.029C0.418126 457.675 0.641459 457.412 0.921459 457.239C1.19479 457.059 1.49813 456.969 1.83146 456.969C2.19813 456.969 2.51813 457.072 2.79146 457.279C3.05813 457.485 3.25813 457.755 3.39146 458.089C3.51813 457.689 3.72813 457.372 4.02146 457.139C4.31479 456.899 4.67479 456.779 5.10146 456.779C5.52146 456.779 5.88479 456.889 6.19146 457.109C6.49146 457.329 6.72479 457.632 6.89146 458.019C7.05813 458.399 7.14146 458.842 7.14146 459.349C7.14146 459.855 7.05813 460.302 6.89146 460.689C6.72479 461.075 6.49146 461.379 6.19146 461.599C5.88479 461.812 5.52146 461.919 5.10146 461.919C4.67479 461.919 4.31479 461.802 4.02146 461.569C3.72146 461.329 3.51146 461.012 3.39146 460.619ZM1.94146 457.989C1.56146 457.989 1.28813 458.109 1.12146 458.349C0.948125 458.582 0.861459 458.915 0.861459 459.349C0.861459 459.775 0.944792 460.112 1.11146 460.359C1.27813 460.599 1.55813 460.719 1.95146 460.719C2.29146 460.719 2.56146 460.595 2.76146 460.349C2.95479 460.102 3.05146 459.769 3.05146 459.349C3.05146 458.929 2.95479 458.599 2.76146 458.359C2.56146 458.112 2.28813 457.989 1.94146 457.989ZM3.83146 459.349C3.83146 459.649 3.87479 459.919 3.96146 460.159C4.04813 460.392 4.18146 460.575 4.36146 460.709C4.54146 460.842 4.77813 460.909 5.07146 460.909C5.45813 460.909 5.75813 460.775 5.97146 460.509C6.17813 460.235 6.28146 459.849 6.28146 459.349C6.28146 458.855 6.17479 458.472 5.96146 458.199C5.74813 457.925 5.45146 457.789 5.07146 457.789C4.79146 457.789 4.56146 457.855 4.38146 457.989C4.19479 458.122 4.05813 458.305 3.97146 458.539C3.87813 458.772 3.83146 459.042 3.83146 459.349Z" fill="#808C98"/>
<path d="M10.0715 453.501L10.0715 452.501L16.0715 452.501L16.0715 453.501L10.0715 453.501Z" fill="#B3BAC2"/>
<path d="M10.0715 425.401L10.0715 424.401L16.0715 424.401L16.0715 425.401L10.0715 425.401Z" fill="#B3BAC2"/>
<path d="M3.57146 393.388C3.05146 393.388 2.57479 393.348 2.14146 393.268C1.70146 393.188 1.32479 393.055 1.01146 392.868C0.691456 392.682 0.444789 392.422 0.271456 392.088C0.0914559 391.755 0.00145599 391.338 0.00145596 390.838C0.00145594 390.332 0.0914558 389.915 0.271456 389.588C0.444789 389.262 0.691456 389.005 1.01146 388.818C1.32479 388.625 1.70146 388.492 2.14146 388.418C2.57479 388.338 3.05146 388.298 3.57146 388.298C4.09812 388.298 4.58146 388.338 5.02146 388.418C5.45479 388.492 5.83146 388.625 6.15146 388.818C6.46479 389.005 6.70812 389.262 6.88146 389.588C7.05479 389.915 7.14146 390.332 7.14146 390.838C7.14146 391.338 7.05479 391.755 6.88146 392.088C6.70812 392.422 6.46479 392.682 6.15146 392.868C5.83146 393.055 5.45479 393.188 5.02146 393.268C4.58146 393.348 4.09812 393.388 3.57146 393.388ZM3.57146 389.308C3.21146 389.308 2.86812 389.325 2.54146 389.358C2.21479 389.392 1.92479 389.458 1.67146 389.558C1.41812 389.652 1.22146 389.802 1.08146 390.008C0.934789 390.215 0.861456 390.492 0.861456 390.838C0.861456 391.185 0.934789 391.462 1.08146 391.668C1.22146 391.875 1.41812 392.028 1.67146 392.128C1.92479 392.228 2.21479 392.295 2.54146 392.328C2.86812 392.355 3.21146 392.368 3.57146 392.368C3.95146 392.368 4.30479 392.355 4.63146 392.328C4.95812 392.295 5.24479 392.228 5.49146 392.128C5.73812 392.028 5.93146 391.875 6.07146 391.668C6.21146 391.462 6.28146 391.185 6.28146 390.838C6.28146 390.492 6.21146 390.215 6.07146 390.008C5.93146 389.802 5.73812 389.652 5.49146 389.558C5.24479 389.458 4.95812 389.392 4.63146 389.358C4.30479 389.325 3.95146 389.308 3.57146 389.308Z" fill="#808C98"/>
<path d="M3.57146 399.736C3.05146 399.736 2.57479 399.696 2.14146 399.616C1.70146 399.536 1.32479 399.403 1.01146 399.216C0.691456 399.029 0.444789 398.769 0.271456 398.436C0.0914562 398.103 0.00145626 397.686 0.00145624 397.186C0.00145622 396.679 0.0914561 396.263 0.271456 395.936C0.444789 395.609 0.691456 395.353 1.01146 395.166C1.32479 394.973 1.70146 394.839 2.14146 394.766C2.57479 394.686 3.05146 394.646 3.57146 394.646C4.09812 394.646 4.58146 394.686 5.02146 394.766C5.45479 394.839 5.83146 394.973 6.15146 395.166C6.46479 395.353 6.70812 395.609 6.88146 395.936C7.05479 396.263 7.14146 396.679 7.14146 397.186C7.14146 397.686 7.05479 398.103 6.88146 398.436C6.70812 398.769 6.46479 399.029 6.15146 399.216C5.83146 399.403 5.45479 399.536 5.02146 399.616C4.58146 399.696 4.09812 399.736 3.57146 399.736ZM3.57146 395.656C3.21146 395.656 2.86812 395.673 2.54146 395.706C2.21479 395.739 1.92479 395.806 1.67146 395.906C1.41812 395.999 1.22146 396.149 1.08146 396.356C0.934789 396.563 0.861456 396.839 0.861456 397.186C0.861456 397.533 0.934789 397.809 1.08146 398.016C1.22146 398.223 1.41812 398.376 1.67146 398.476C1.92479 398.576 2.21479 398.643 2.54146 398.676C2.86812 398.703 3.21146 398.716 3.57146 398.716C3.95146 398.716 4.30479 398.703 4.63146 398.676C4.95812 398.643 5.24479 398.576 5.49146 398.476C5.73812 398.376 5.93146 398.223 6.07146 398.016C6.21146 397.809 6.28146 397.533 6.28146 397.186C6.28146 396.839 6.21146 396.563 6.07146 396.356C5.93146 396.149 5.73812 395.999 5.49146 395.906C5.24479 395.806 4.95812 395.739 4.63146 395.706C4.30479 395.673 3.95146 395.656 3.57146 395.656Z" fill="#808C98"/>
<path d="M0.0714561 400.762L0.811456 400.762L7.07146 403.542L7.07146 404.542L0.911456 401.732L0.911456 405.532L0.0714563 405.532L0.0714561 400.762Z" fill="#808C98"/>
<path d="M10.0715 397.301L10.0715 396.301L16.0715 396.301L16.0715 397.301L10.0715 397.301Z" fill="#B3BAC2"/>
<path d="M10.0715 369.201L10.0715 368.201L16.0715 368.201L16.0715 369.201L10.0715 369.201Z" fill="#B3BAC2"/>
<path d="M3.57145 336.934C3.05145 336.934 2.57479 336.894 2.14145 336.814C1.70145 336.734 1.32479 336.601 1.01145 336.414C0.691454 336.228 0.444787 335.968 0.271454 335.634C0.0914534 335.301 0.00145352 334.884 0.0014535 334.384C0.00145347 333.878 0.0914534 333.461 0.271453 333.134C0.444787 332.808 0.691453 332.551 1.01145 332.364C1.32479 332.171 1.70145 332.038 2.14145 331.964C2.57479 331.884 3.05145 331.844 3.57145 331.844C4.09812 331.844 4.58145 331.884 5.02145 331.964C5.45479 332.038 5.83145 332.171 6.15145 332.364C6.46479 332.551 6.70812 332.808 6.88145 333.134C7.05479 333.461 7.14145 333.878 7.14145 334.384C7.14145 334.884 7.05479 335.301 6.88145 335.634C6.70812 335.968 6.46479 336.228 6.15145 336.414C5.83145 336.601 5.45479 336.734 5.02145 336.814C4.58145 336.894 4.09812 336.934 3.57145 336.934ZM3.57145 332.854C3.21145 332.854 2.86812 332.871 2.54145 332.904C2.21479 332.938 1.92479 333.004 1.67145 333.104C1.41812 333.198 1.22145 333.348 1.08145 333.554C0.934787 333.761 0.861453 334.038 0.861453 334.384C0.861453 334.731 0.934787 335.008 1.08145 335.214C1.22145 335.421 1.41812 335.574 1.67145 335.674C1.92479 335.774 2.21479 335.841 2.54145 335.874C2.86812 335.901 3.21145 335.914 3.57145 335.914C3.95145 335.914 4.30479 335.901 4.63145 335.874C4.95812 335.841 5.24479 335.774 5.49145 335.674C5.73812 335.574 5.93145 335.421 6.07145 335.214C6.21145 335.008 6.28145 334.731 6.28145 334.384C6.28145 334.038 6.21145 333.761 6.07145 333.554C5.93145 333.348 5.73812 333.198 5.49145 333.104C5.24479 333.004 4.95812 332.938 4.63145 332.904C4.30479 332.871 3.95145 332.854 3.57145 332.854Z" fill="#808C98"/>
<path d="M3.57145 343.282C3.05145 343.282 2.57479 343.242 2.14145 343.162C1.70145 343.082 1.32479 342.949 1.01145 342.762C0.691454 342.575 0.444787 342.315 0.271454 341.982C0.0914537 341.649 0.00145379 341.232 0.00145377 340.732C0.00145375 340.225 0.0914536 339.809 0.271454 339.482C0.444787 339.155 0.691454 338.899 1.01145 338.712C1.32479 338.519 1.70145 338.385 2.14145 338.312C2.57479 338.232 3.05145 338.192 3.57145 338.192C4.09812 338.192 4.58145 338.232 5.02145 338.312C5.45479 338.385 5.83145 338.519 6.15145 338.712C6.46479 338.899 6.70812 339.155 6.88145 339.482C7.05479 339.809 7.14145 340.225 7.14145 340.732C7.14145 341.232 7.05479 341.649 6.88145 341.982C6.70812 342.315 6.46479 342.575 6.15145 342.762C5.83145 342.949 5.45479 343.082 5.02145 343.162C4.58145 343.242 4.09812 343.282 3.57145 343.282ZM3.57145 339.202C3.21145 339.202 2.86812 339.219 2.54145 339.252C2.21479 339.285 1.92479 339.352 1.67145 339.452C1.41812 339.545 1.22145 339.695 1.08145 339.902C0.934787 340.109 0.861453 340.385 0.861453 340.732C0.861453 341.079 0.934787 341.355 1.08145 341.562C1.22145 341.769 1.41812 341.922 1.67145 342.022C1.92479 342.122 2.21479 342.189 2.54145 342.222C2.86812 342.249 3.21145 342.262 3.57145 342.262C3.95145 342.262 4.30479 342.249 4.63145 342.222C4.95812 342.189 5.24479 342.122 5.49145 342.022C5.73812 341.922 5.93145 341.769 6.07145 341.562C6.21145 341.355 6.28145 341.079 6.28145 340.732C6.28145 340.385 6.21145 340.109 6.07145 339.902C5.93145 339.695 5.73812 339.545 5.49145 339.452C5.24479 339.352 4.95812 339.285 4.63145 339.252C4.30479 339.219 3.95145 339.202 3.57145 339.202Z" fill="#808C98"/>
<path d="M7.14145 346.916C7.14145 347.41 7.03479 347.85 6.82145 348.236C6.60812 348.616 6.31479 348.913 5.94145 349.126C5.56812 349.34 5.14812 349.446 4.68145 349.446C4.31479 349.446 3.94812 349.38 3.58145 349.246C3.21479 349.106 2.84145 348.89 2.46145 348.596L0.0714537 346.766L0.0714537 345.686L2.77145 347.766L3.96145 348.926C3.48812 348.786 3.10479 348.53 2.81145 348.156C2.51812 347.776 2.37145 347.32 2.37145 346.786C2.37145 346.32 2.47145 345.906 2.67145 345.546C2.86479 345.186 3.13812 344.906 3.49145 344.706C3.83812 344.5 4.24145 344.396 4.70145 344.396C5.16812 344.396 5.58812 344.506 5.96145 344.726C6.32812 344.94 6.61812 345.24 6.83145 345.626C7.03812 346.006 7.14145 346.436 7.14145 346.916ZM4.70145 348.436C5.02145 348.436 5.30145 348.38 5.54145 348.266C5.77479 348.146 5.95812 347.973 6.09145 347.746C6.21812 347.513 6.28145 347.236 6.28145 346.916C6.28145 346.59 6.21812 346.316 6.09145 346.096C5.95812 345.87 5.77479 345.7 5.54145 345.586C5.30145 345.466 5.02145 345.406 4.70145 345.406C4.37479 345.406 4.09812 345.466 3.87145 345.586C3.64479 345.7 3.47145 345.87 3.35145 346.096C3.23145 346.316 3.17145 346.59 3.17145 346.916C3.17145 347.236 3.23145 347.513 3.35145 347.746C3.47145 347.973 3.64479 348.146 3.87145 348.266C4.09812 348.38 4.37479 348.436 4.70145 348.436Z" fill="#808C98"/>
<path d="M10.0715 341.101L10.0715 340.101L16.0715 340.101L16.0715 341.101L10.0715 341.101Z" fill="#B3BAC2"/>
<path d="M10.0715 313.001L10.0715 312.001L16.0715 312.001L16.0715 313.001L10.0715 313.001Z" fill="#B3BAC2"/>
<path d="M3.57145 280.656C3.05145 280.656 2.57478 280.616 2.14145 280.536C1.70145 280.456 1.32478 280.323 1.01145 280.136C0.691451 279.95 0.444784 279.69 0.271451 279.356C0.091451 279.023 0.00145106 278.606 0.00145104 278.106C0.00145101 277.6 0.0914509 277.183 0.271451 276.856C0.444784 276.53 0.691451 276.273 1.01145 276.086C1.32478 275.893 1.70145 275.76 2.14145 275.686C2.57478 275.606 3.05145 275.566 3.57145 275.566C4.09812 275.566 4.58145 275.606 5.02145 275.686C5.45478 275.76 5.83145 275.893 6.15145 276.086C6.46478 276.273 6.70812 276.53 6.88145 276.856C7.05478 277.183 7.14145 277.6 7.14145 278.106C7.14145 278.606 7.05479 279.023 6.88145 279.356C6.70812 279.69 6.46478 279.95 6.15145 280.136C5.83145 280.323 5.45478 280.456 5.02145 280.536C4.58145 280.616 4.09812 280.656 3.57145 280.656ZM3.57145 276.576C3.21145 276.576 2.86812 276.593 2.54145 276.626C2.21478 276.66 1.92478 276.726 1.67145 276.826C1.41812 276.92 1.22145 277.07 1.08145 277.276C0.934784 277.483 0.861451 277.76 0.861451 278.106C0.861451 278.453 0.934784 278.73 1.08145 278.936C1.22145 279.143 1.41812 279.296 1.67145 279.396C1.92478 279.496 2.21478 279.563 2.54145 279.596C2.86812 279.623 3.21145 279.636 3.57145 279.636C3.95145 279.636 4.30478 279.623 4.63145 279.596C4.95812 279.563 5.24478 279.496 5.49145 279.396C5.73812 279.296 5.93145 279.143 6.07145 278.936C6.21145 278.73 6.28145 278.453 6.28145 278.106C6.28145 277.76 6.21145 277.483 6.07145 277.276C5.93145 277.07 5.73812 276.92 5.49145 276.826C5.24478 276.726 4.95812 276.66 4.63145 276.626C4.30478 276.593 3.95145 276.576 3.57145 276.576Z" fill="#808C98"/>
<path d="M3.57145 287.004C3.05145 287.004 2.57478 286.964 2.14145 286.884C1.70145 286.804 1.32478 286.671 1.01145 286.484C0.691451 286.297 0.444784 286.037 0.271451 285.704C0.0914513 285.371 0.00145133 284.954 0.00145131 284.454C0.00145129 283.947 0.0914512 283.531 0.271451 283.204C0.444784 282.877 0.691451 282.621 1.01145 282.434C1.32478 282.241 1.70145 282.107 2.14145 282.034C2.57478 281.954 3.05145 281.914 3.57145 281.914C4.09812 281.914 4.58145 281.954 5.02145 282.034C5.45478 282.107 5.83145 282.241 6.15145 282.434C6.46478 282.621 6.70812 282.877 6.88145 283.204C7.05479 283.531 7.14145 283.947 7.14145 284.454C7.14145 284.954 7.05479 285.371 6.88145 285.704C6.70812 286.037 6.46478 286.297 6.15145 286.484C5.83145 286.671 5.45478 286.804 5.02145 286.884C4.58145 286.964 4.09812 287.004 3.57145 287.004ZM3.57145 282.924C3.21145 282.924 2.86812 282.941 2.54145 282.974C2.21478 283.007 1.92478 283.074 1.67145 283.174C1.41812 283.267 1.22145 283.417 1.08145 283.624C0.934784 283.831 0.861451 284.107 0.861451 284.454C0.861451 284.801 0.934784 285.077 1.08145 285.284C1.22145 285.491 1.41812 285.644 1.67145 285.744C1.92478 285.844 2.21478 285.911 2.54145 285.944C2.86812 285.971 3.21145 285.984 3.57145 285.984C3.95145 285.984 4.30478 285.971 4.63145 285.944C4.95812 285.911 5.24478 285.844 5.49145 285.744C5.73812 285.644 5.93145 285.491 6.07145 285.284C6.21145 285.077 6.28145 284.801 6.28145 284.454C6.28145 284.107 6.21145 283.831 6.07145 283.624C5.93145 283.417 5.73812 283.267 5.49145 283.174C5.24478 283.074 4.95812 283.007 4.63145 282.974C4.30478 282.941 3.95145 282.924 3.57145 282.924Z" fill="#808C98"/>
<path d="M0.0714512 288.704L0.911451 288.704L0.911451 292.084L3.00145 292.084C2.80812 291.944 2.65145 291.741 2.53145 291.474C2.41145 291.208 2.35145 290.904 2.35145 290.564C2.35145 290.131 2.42478 289.768 2.57145 289.474C2.71812 289.181 2.90812 288.944 3.14145 288.764C3.37478 288.578 3.62812 288.444 3.90145 288.364C4.16812 288.278 4.42478 288.234 4.67145 288.234C5.12478 288.234 5.53812 288.331 5.91145 288.524C6.28479 288.711 6.58478 288.991 6.81145 289.364C7.03145 289.738 7.14145 290.191 7.14145 290.724C7.14145 291.204 7.05812 291.624 6.89145 291.984C6.71812 292.338 6.48479 292.621 6.19145 292.834C5.89145 293.041 5.55145 293.174 5.17145 293.234L5.17145 292.264C5.51812 292.178 5.79145 292.001 5.99145 291.734C6.18479 291.461 6.28145 291.121 6.28145 290.714C6.28145 290.381 6.21479 290.104 6.08145 289.884C5.94812 289.664 5.76479 289.504 5.53145 289.404C5.29145 289.298 5.01145 289.244 4.69145 289.244C4.22478 289.244 3.86145 289.371 3.60145 289.624C3.34145 289.878 3.21145 290.238 3.21145 290.704C3.21145 291.058 3.29479 291.358 3.46145 291.604C3.62812 291.851 3.85478 292.028 4.14145 292.134L4.14145 293.074L0.0714514 293.074L0.0714512 288.704Z" fill="#808C98"/>
<path d="M10.0715 284.901L10.0715 283.901L16.0715 283.901L16.0715 284.901L10.0715 284.901Z" fill="#B3BAC2"/>
<path d="M10.0715 256.801L10.0715 255.801L16.0714 255.801L16.0714 256.801L10.0715 256.801Z" fill="#B3BAC2"/>
<path d="M3.57145 224.3C3.05145 224.3 2.57478 224.26 2.14145 224.18C1.70145 224.1 1.32478 223.967 1.01145 223.78C0.691449 223.593 0.444782 223.333 0.271449 223C0.0914485 222.667 0.00144859 222.25 0.00144857 221.75C0.00144855 221.243 0.0914484 220.827 0.271448 220.5C0.444782 220.173 0.691448 219.917 1.01145 219.73C1.32478 219.537 1.70145 219.403 2.14145 219.33C2.57478 219.25 3.05145 219.21 3.57145 219.21C4.09812 219.21 4.58145 219.25 5.02145 219.33C5.45478 219.403 5.83145 219.537 6.15145 219.73C6.46478 219.917 6.70812 220.173 6.88145 220.5C7.05478 220.827 7.14145 221.243 7.14145 221.75C7.14145 222.25 7.05478 222.667 6.88145 223C6.70812 223.333 6.46478 223.593 6.15145 223.78C5.83145 223.967 5.45478 224.1 5.02145 224.18C4.58145 224.26 4.09812 224.3 3.57145 224.3ZM3.57145 220.22C3.21145 220.22 2.86812 220.237 2.54145 220.27C2.21478 220.303 1.92478 220.37 1.67145 220.47C1.41812 220.563 1.22145 220.713 1.08145 220.92C0.934782 221.127 0.861448 221.403 0.861448 221.75C0.861448 222.097 0.934782 222.373 1.08145 222.58C1.22145 222.787 1.41812 222.94 1.67145 223.04C1.92478 223.14 2.21478 223.207 2.54145 223.24C2.86812 223.267 3.21145 223.28 3.57145 223.28C3.95145 223.28 4.30478 223.267 4.63145 223.24C4.95812 223.207 5.24478 223.14 5.49145 223.04C5.73812 222.94 5.93145 222.787 6.07145 222.58C6.21145 222.373 6.28145 222.097 6.28145 221.75C6.28145 221.403 6.21145 221.127 6.07145 220.92C5.93145 220.713 5.73812 220.563 5.49145 220.47C5.24478 220.37 4.95812 220.303 4.63145 220.27C4.30478 220.237 3.95145 220.22 3.57145 220.22Z" fill="#808C98"/>
<path d="M3.57145 230.648C3.05145 230.648 2.57478 230.608 2.14145 230.528C1.70145 230.448 1.32478 230.314 1.01145 230.128C0.691449 229.941 0.444782 229.681 0.271449 229.348C0.0914488 229.014 0.00144887 228.598 0.00144885 228.098C0.00144883 227.591 0.0914487 227.174 0.271449 226.848C0.444782 226.521 0.691449 226.264 1.01145 226.078C1.32478 225.884 1.70145 225.751 2.14145 225.678C2.57478 225.598 3.05145 225.558 3.57145 225.558C4.09812 225.558 4.58145 225.598 5.02145 225.678C5.45478 225.751 5.83145 225.884 6.15145 226.078C6.46478 226.264 6.70812 226.521 6.88145 226.848C7.05478 227.174 7.14145 227.591 7.14145 228.098C7.14145 228.598 7.05478 229.014 6.88145 229.348C6.70812 229.681 6.46478 229.941 6.15145 230.128C5.83145 230.314 5.45478 230.448 5.02145 230.528C4.58145 230.608 4.09812 230.648 3.57145 230.648ZM3.57145 226.568C3.21145 226.568 2.86812 226.584 2.54145 226.618C2.21478 226.651 1.92478 226.718 1.67145 226.818C1.41812 226.911 1.22145 227.061 1.08145 227.268C0.934782 227.474 0.861448 227.751 0.861449 228.098C0.861449 228.444 0.934782 228.721 1.08145 228.928C1.22145 229.134 1.41812 229.288 1.67145 229.388C1.92478 229.488 2.21478 229.554 2.54145 229.588C2.86812 229.614 3.21145 229.628 3.57145 229.628C3.95145 229.628 4.30478 229.614 4.63145 229.588C4.95812 229.554 5.24478 229.488 5.49145 229.388C5.73812 229.288 5.93145 229.134 6.07145 228.928C6.21145 228.721 6.28145 228.444 6.28145 228.098C6.28145 227.751 6.21145 227.474 6.07145 227.268C5.93145 227.061 5.73812 226.911 5.49145 226.818C5.24478 226.718 4.95812 226.651 4.63145 226.618C4.30478 226.584 3.95145 226.568 3.57145 226.568Z" fill="#808C98"/>
<path d="M5.47145 233.751L5.47145 237.421L4.74145 237.421L0.0714488 233.971L0.0714487 232.761L4.62145 232.761L4.62145 231.801L5.47145 231.801L5.47145 232.761L7.07145 232.761L7.07145 233.751L5.47145 233.751ZM4.62145 233.731L1.10145 233.731L4.62145 236.281L4.62145 233.731Z" fill="#808C98"/>
<path d="M10.0714 228.701L10.0714 227.701L16.0714 227.701L16.0714 228.701L10.0714 228.701Z" fill="#B3BAC2"/>
<path d="M10.0714 200.601L10.0714 199.601L16.0714 199.601L16.0714 200.601L10.0714 200.601Z" fill="#B3BAC2"/>
<path d="M3.57145 168.388C3.05145 168.388 2.57478 168.348 2.14145 168.268C1.70145 168.188 1.32478 168.055 1.01145 167.868C0.691446 167.681 0.444779 167.421 0.271446 167.088C0.0914461 166.755 0.00144615 166.338 0.00144613 165.838C0.00144611 165.331 0.091446 164.915 0.271446 164.588C0.444779 164.261 0.691446 164.005 1.01145 163.818C1.32478 163.625 1.70145 163.491 2.14145 163.418C2.57478 163.338 3.05145 163.298 3.57145 163.298C4.09811 163.298 4.58145 163.338 5.02145 163.418C5.45478 163.491 5.83145 163.625 6.15145 163.818C6.46478 164.005 6.70811 164.261 6.88145 164.588C7.05478 164.915 7.14145 165.331 7.14145 165.838C7.14145 166.338 7.05478 166.755 6.88145 167.088C6.70811 167.421 6.46478 167.681 6.15145 167.868C5.83145 168.055 5.45478 168.188 5.02145 168.268C4.58145 168.348 4.09811 168.388 3.57145 168.388ZM3.57145 164.308C3.21145 164.308 2.86811 164.325 2.54145 164.358C2.21478 164.391 1.92478 164.458 1.67145 164.558C1.41811 164.651 1.22145 164.801 1.08145 165.008C0.934779 165.215 0.861446 165.491 0.861446 165.838C0.861446 166.185 0.934779 166.461 1.08145 166.668C1.22145 166.875 1.41811 167.028 1.67145 167.128C1.92478 167.228 2.21478 167.295 2.54145 167.328C2.86811 167.355 3.21145 167.368 3.57145 167.368C3.95145 167.368 4.30478 167.355 4.63145 167.328C4.95811 167.295 5.24478 167.228 5.49145 167.128C5.73811 167.028 5.93145 166.875 6.07145 166.668C6.21145 166.461 6.28145 166.185 6.28145 165.838C6.28145 165.491 6.21145 165.215 6.07145 165.008C5.93145 164.801 5.73811 164.651 5.49145 164.558C5.24478 164.458 4.95811 164.391 4.63145 164.358C4.30478 164.325 3.95145 164.308 3.57145 164.308Z" fill="#808C98"/>
<path d="M3.57145 174.736C3.05145 174.736 2.57478 174.696 2.14145 174.616C1.70145 174.536 1.32478 174.402 1.01145 174.216C0.691446 174.029 0.44478 173.769 0.271446 173.436C0.0914464 173.102 0.00144643 172.686 0.00144641 172.186C0.00144638 171.679 0.0914463 171.262 0.271446 170.936C0.444779 170.609 0.691446 170.352 1.01145 170.166C1.32478 169.972 1.70145 169.839 2.14145 169.766C2.57478 169.686 3.05145 169.646 3.57145 169.646C4.09811 169.646 4.58145 169.686 5.02145 169.766C5.45478 169.839 5.83145 169.972 6.15145 170.166C6.46478 170.352 6.70811 170.609 6.88145 170.936C7.05478 171.262 7.14145 171.679 7.14145 172.186C7.14145 172.686 7.05478 173.102 6.88145 173.436C6.70811 173.769 6.46478 174.029 6.15145 174.216C5.83145 174.402 5.45478 174.536 5.02145 174.616C4.58145 174.696 4.09811 174.736 3.57145 174.736ZM3.57145 170.656C3.21145 170.656 2.86811 170.672 2.54145 170.706C2.21478 170.739 1.92478 170.806 1.67145 170.906C1.41811 170.999 1.22145 171.149 1.08145 171.356C0.93478 171.562 0.861446 171.839 0.861446 172.186C0.861446 172.532 0.93478 172.809 1.08145 173.016C1.22145 173.222 1.41811 173.376 1.67145 173.476C1.92478 173.576 2.21478 173.642 2.54145 173.676C2.86811 173.702 3.21145 173.716 3.57145 173.716C3.95145 173.716 4.30478 173.702 4.63145 173.676C4.95811 173.642 5.24478 173.576 5.49145 173.476C5.73811 173.376 5.93145 173.222 6.07145 173.016C6.21145 172.809 6.28145 172.532 6.28145 172.186C6.28145 171.839 6.21145 171.562 6.07145 171.356C5.93145 171.149 5.73811 170.999 5.49145 170.906C5.24478 170.806 4.95811 170.739 4.63145 170.706C4.30478 170.672 3.95145 170.656 3.57145 170.656Z" fill="#808C98"/>
<path d="M1.97145 180.702C1.55145 180.676 1.19478 180.559 0.901446 180.352C0.608113 180.139 0.38478 179.859 0.231447 179.512C0.0781134 179.166 0.00144669 178.769 0.00144667 178.322C0.00144665 177.849 0.0914465 177.449 0.271447 177.122C0.451446 176.796 0.691446 176.549 0.991446 176.382C1.28478 176.209 1.60478 176.122 1.95145 176.122C2.20478 176.122 2.43811 176.176 2.65145 176.282C2.85811 176.389 3.03478 176.536 3.18145 176.722C3.32811 176.902 3.43145 177.109 3.49145 177.342L3.54145 177.342C3.60811 177.076 3.71478 176.842 3.86145 176.642C4.00145 176.436 4.18478 176.276 4.41145 176.162C4.63145 176.049 4.89811 175.992 5.21145 175.992C5.59145 175.992 5.92811 176.079 6.22145 176.252C6.50811 176.426 6.73478 176.686 6.90145 177.032C7.06145 177.372 7.14145 177.796 7.14145 178.302C7.14145 178.789 7.06811 179.216 6.92145 179.582C6.77478 179.949 6.54478 180.239 6.23145 180.452C5.91811 180.659 5.51145 180.776 5.01145 180.802L5.01145 179.842C5.42478 179.809 5.74145 179.672 5.96145 179.432C6.17478 179.192 6.28145 178.816 6.28145 178.302C6.28145 178.002 6.23478 177.756 6.14145 177.562C6.04811 177.369 5.91811 177.229 5.75145 177.142C5.57811 177.049 5.37145 177.002 5.13145 177.002C4.67811 177.002 4.37145 177.159 4.21145 177.472C4.04478 177.779 3.96145 178.246 3.96145 178.872L3.96145 179.122L3.11145 179.122L3.11145 178.862C3.10478 178.482 3.06478 178.166 2.99145 177.912C2.91811 177.652 2.80811 177.459 2.66145 177.332C2.50811 177.199 2.30811 177.132 2.06145 177.132C1.72811 177.132 1.44478 177.232 1.21145 177.432C0.978113 177.632 0.861446 177.939 0.861446 178.352C0.861446 178.632 0.911447 178.869 1.01145 179.062C1.10478 179.256 1.23478 179.409 1.40145 179.522C1.56811 179.636 1.75811 179.706 1.97145 179.732L1.97145 180.702Z" fill="#808C98"/>
<path d="M10.0714 172.501L10.0714 171.501L16.0714 171.501L16.0714 172.501L10.0714 172.501Z" fill="#B3BAC2"/>
<path d="M10.0714 144.401L10.0714 143.401L16.0714 143.401L16.0714 144.401L10.0714 144.401Z" fill="#B3BAC2"/>
<path d="M3.57144 112.183C3.05144 112.183 2.57478 112.143 2.14144 112.063C1.70144 111.983 1.32478 111.85 1.01144 111.663C0.691444 111.476 0.444777 111.216 0.271444 110.883C0.0914436 110.55 0.00144369 110.133 0.00144367 109.633C0.00144365 109.126 0.0914435 108.71 0.271444 108.383C0.444777 108.056 0.691444 107.8 1.01144 107.613C1.32478 107.42 1.70144 107.286 2.14144 107.213C2.57478 107.133 3.05144 107.093 3.57144 107.093C4.09811 107.093 4.58144 107.133 5.02144 107.213C5.45478 107.286 5.83144 107.42 6.15144 107.613C6.46478 107.8 6.70811 108.056 6.88144 108.383C7.05478 108.71 7.14144 109.126 7.14144 109.633C7.14144 110.133 7.05478 110.55 6.88144 110.883C6.70811 111.216 6.46478 111.476 6.15144 111.663C5.83144 111.85 5.45478 111.983 5.02144 112.063C4.58144 112.143 4.09811 112.183 3.57144 112.183ZM3.57144 108.103C3.21144 108.103 2.86811 108.12 2.54144 108.153C2.21478 108.186 1.92478 108.253 1.67144 108.353C1.41811 108.446 1.22144 108.596 1.08144 108.803C0.934777 109.01 0.861443 109.286 0.861443 109.633C0.861443 109.98 0.934777 110.256 1.08144 110.463C1.22144 110.67 1.41811 110.823 1.67144 110.923C1.92478 111.023 2.21478 111.09 2.54144 111.123C2.86811 111.15 3.21144 111.163 3.57144 111.163C3.95144 111.163 4.30478 111.15 4.63144 111.123C4.95811 111.09 5.24478 111.023 5.49144 110.923C5.73811 110.823 5.93144 110.67 6.07144 110.463C6.21144 110.256 6.28144 109.98 6.28144 109.633C6.28144 109.286 6.21144 109.01 6.07144 108.803C5.93144 108.596 5.73811 108.446 5.49144 108.353C5.24478 108.253 4.95811 108.186 4.63144 108.153C4.30478 108.12 3.95144 108.103 3.57144 108.103Z" fill="#808C98"/>
<path d="M3.57144 118.531C3.05144 118.531 2.57478 118.491 2.14144 118.411C1.70144 118.331 1.32478 118.197 1.01144 118.011C0.691444 117.824 0.444777 117.564 0.271444 117.231C0.0914439 116.897 0.00144397 116.481 0.00144395 115.981C0.00144393 115.474 0.0914438 115.057 0.271444 114.731C0.444777 114.404 0.691444 114.147 1.01144 113.961C1.32478 113.767 1.70144 113.634 2.14144 113.561C2.57478 113.481 3.05144 113.441 3.57144 113.441C4.09811 113.441 4.58144 113.481 5.02144 113.561C5.45478 113.634 5.83144 113.767 6.15144 113.961C6.46478 114.147 6.70811 114.404 6.88144 114.731C7.05478 115.057 7.14144 115.474 7.14144 115.981C7.14144 116.481 7.05478 116.897 6.88144 117.231C6.70811 117.564 6.46478 117.824 6.15144 118.011C5.83144 118.197 5.45478 118.331 5.02144 118.411C4.58144 118.491 4.09811 118.531 3.57144 118.531ZM3.57144 114.451C3.21144 114.451 2.86811 114.467 2.54144 114.501C2.21478 114.534 1.92478 114.601 1.67144 114.701C1.41811 114.794 1.22144 114.944 1.08144 115.151C0.934777 115.357 0.861444 115.634 0.861444 115.981C0.861444 116.327 0.934777 116.604 1.08144 116.811C1.22144 117.017 1.41811 117.171 1.67144 117.271C1.92478 117.371 2.21478 117.437 2.54144 117.471C2.86811 117.497 3.21144 117.511 3.57144 117.511C3.95144 117.511 4.30478 117.497 4.63144 117.471C4.95811 117.437 5.24478 117.371 5.49144 117.271C5.73811 117.171 5.93144 117.017 6.07144 116.811C6.21144 116.604 6.28144 116.327 6.28144 115.981C6.28144 115.634 6.21144 115.357 6.07144 115.151C5.93144 114.944 5.73811 114.794 5.49144 114.701C5.24478 114.601 4.95811 114.534 4.63144 114.501C4.30478 114.467 3.95144 114.451 3.57144 114.451Z" fill="#808C98"/>
<path d="M6.34144 124.597L4.42144 122.537C4.06144 122.144 3.75144 121.834 3.49144 121.607C3.23144 121.381 2.99144 121.217 2.77144 121.117C2.54478 121.017 2.31144 120.967 2.07144 120.967C1.71811 120.967 1.42811 121.071 1.20144 121.277C0.974778 121.477 0.861444 121.804 0.861444 122.257C0.861444 122.544 0.924777 122.787 1.05144 122.987C1.17811 123.187 1.35811 123.341 1.59144 123.447C1.81811 123.554 2.08478 123.611 2.39144 123.617L2.39144 124.577C1.85811 124.564 1.41478 124.454 1.06144 124.247C0.708111 124.041 0.444777 123.764 0.271444 123.417C0.0914442 123.064 0.00144424 122.674 0.00144422 122.247C0.0014442 121.767 0.0881108 121.357 0.261444 121.017C0.434777 120.671 0.678111 120.407 0.991444 120.227C1.29811 120.047 1.65811 119.957 2.07144 119.957C2.37144 119.957 2.66478 120.014 2.95144 120.127C3.23144 120.234 3.53478 120.421 3.86144 120.687C4.18144 120.954 4.55478 121.317 4.98144 121.777L6.23144 123.137L6.23144 119.767L7.07144 119.767L7.07144 124.597L6.34144 124.597Z" fill="#808C98"/>
<path d="M10.0714 116.301L10.0714 115.301L16.0714 115.301L16.0714 116.301L10.0714 116.301Z" fill="#B3BAC2"/>
<path d="M10.0714 88.2014L10.0714 87.2014L16.0714 87.2014L16.0714 88.2014L10.0714 88.2014Z" fill="#B3BAC2"/>
<path d="M3.57144 57.3991C3.05144 57.3991 2.57477 57.3591 2.14144 57.2791C1.70144 57.1991 1.32477 57.0658 1.01144 56.8791C0.691441 56.6924 0.444774 56.4325 0.271441 56.0991C0.0914412 55.7658 0.0014413 55.3491 0.00144128 54.8491C0.00144125 54.3425 0.0914412 53.9258 0.271441 53.5991C0.444774 53.2725 0.691441 53.0158 1.01144 52.8291C1.32477 52.6358 1.70144 52.5025 2.14144 52.4291C2.57477 52.3491 3.05144 52.3091 3.57144 52.3091C4.09811 52.3091 4.58144 52.3491 5.02144 52.4291C5.45477 52.5025 5.83144 52.6358 6.15144 52.8291C6.46477 53.0158 6.70811 53.2725 6.88144 53.5991C7.05478 53.9258 7.14144 54.3425 7.14144 54.8491C7.14144 55.3491 7.05478 55.7658 6.88144 56.0991C6.70811 56.4325 6.46477 56.6924 6.15144 56.8791C5.83144 57.0658 5.45477 57.1991 5.02144 57.2791C4.58144 57.3591 4.09811 57.3991 3.57144 57.3991ZM3.57144 53.3191C3.21144 53.3191 2.86811 53.3358 2.54144 53.3691C2.21477 53.4025 1.92477 53.4691 1.67144 53.5691C1.41811 53.6624 1.22144 53.8124 1.08144 54.0191C0.934774 54.2258 0.861441 54.5025 0.861441 54.8491C0.861441 55.1958 0.934774 55.4725 1.08144 55.6791C1.22144 55.8858 1.41811 56.0391 1.67144 56.1391C1.92477 56.2391 2.21477 56.3058 2.54144 56.3391C2.86811 56.3658 3.21144 56.3791 3.57144 56.3791C3.95144 56.3791 4.30477 56.3658 4.63144 56.3391C4.95811 56.3058 5.24477 56.2391 5.49144 56.1391C5.73811 56.0391 5.93144 55.8858 6.07144 55.6791C6.21144 55.4725 6.28144 55.1958 6.28144 54.8491C6.28144 54.5025 6.21144 54.2258 6.07144 54.0191C5.93144 53.8124 5.73811 53.6624 5.49144 53.5691C5.24477 53.4691 4.95811 53.4025 4.63144 53.3691C4.30477 53.3358 3.95144 53.3191 3.57144 53.3191Z" fill="#808C98"/>
<path d="M3.57144 63.7468C3.05144 63.7468 2.57477 63.7068 2.14144 63.6268C1.70144 63.5468 1.32478 63.4134 1.01144 63.2267C0.691442 63.0401 0.444775 62.7801 0.271442 62.4468C0.0914415 62.1134 0.00144158 61.6968 0.00144155 61.1968C0.00144153 60.6901 0.0914414 60.2734 0.271441 59.9468C0.444775 59.6201 0.691441 59.3634 1.01144 59.1768C1.32477 58.9834 1.70144 58.8501 2.14144 58.7768C2.57477 58.6968 3.05144 58.6568 3.57144 58.6568C4.09811 58.6568 4.58144 58.6968 5.02144 58.7768C5.45477 58.8501 5.83144 58.9834 6.15144 59.1768C6.46477 59.3634 6.70811 59.6201 6.88144 59.9468C7.05478 60.2734 7.14144 60.6901 7.14144 61.1968C7.14144 61.6968 7.05478 62.1134 6.88144 62.4468C6.70811 62.7801 6.46478 63.0401 6.15144 63.2267C5.83144 63.4134 5.45478 63.5468 5.02144 63.6268C4.58144 63.7068 4.09811 63.7468 3.57144 63.7468ZM3.57144 59.6667C3.21144 59.6667 2.86811 59.6835 2.54144 59.7168C2.21477 59.7501 1.92477 59.8167 1.67144 59.9167C1.41811 60.0101 1.22144 60.1601 1.08144 60.3668C0.934775 60.5734 0.861441 60.8501 0.861441 61.1968C0.861441 61.5434 0.934775 61.8201 1.08144 62.0268C1.22144 62.2335 1.41811 62.3868 1.67144 62.4868C1.92477 62.5868 2.21477 62.6534 2.54144 62.6868C2.86811 62.7134 3.21144 62.7267 3.57144 62.7267C3.95144 62.7267 4.30478 62.7134 4.63144 62.6868C4.95811 62.6534 5.24478 62.5868 5.49144 62.4868C5.73811 62.3868 5.93144 62.2335 6.07144 62.0268C6.21144 61.8201 6.28144 61.5434 6.28144 61.1968C6.28144 60.8501 6.21144 60.5734 6.07144 60.3668C5.93144 60.1601 5.73811 60.0101 5.49144 59.9167C5.24478 59.8167 4.95811 59.7501 4.63144 59.7168C4.30477 59.6835 3.95144 59.6667 3.57144 59.6667Z" fill="#808C98"/>
<path d="M0.911441 66.1713L0.911441 67.1213L0.0714415 67.1213L0.0714414 65.1713L7.07144 65.1713L7.07144 66.1713L0.911441 66.1713Z" fill="#808C98"/>
<path d="M10.0714 60.1014L10.0714 59.1014L16.0714 59.1014L16.0714 60.1014L10.0714 60.1014Z" fill="#B3BAC2"/>
<path d="M10.0714 32.0014L10.0714 31.0014L16.0714 31.0014L16.0714 32.0014L10.0714 32.0014Z" fill="#B3BAC2"/>
<path d="M3.57144 5.94525C3.05144 5.94525 2.57477 5.90526 2.14144 5.82526C1.70144 5.74526 1.32477 5.6119 1.01144 5.42523C0.691439 5.23857 0.444772 4.9786 0.271439 4.64526C0.091439 4.31193 0.00143905 3.89526 0.00143903 3.39526C0.00143901 2.8886 0.0914389 2.47193 0.271439 2.14526C0.444772 1.8186 0.691439 1.56191 1.01144 1.37524C1.32477 1.18191 1.70144 1.04861 2.14144 0.975281C2.57477 0.89528 3.05144 0.855286 3.57144 0.855285C4.09811 0.855285 4.58144 0.89528 5.02144 0.975281C5.45477 1.04861 5.83144 1.18191 6.15144 1.37524C6.46477 1.56191 6.70811 1.8186 6.88144 2.14526C7.05477 2.47193 7.14144 2.8886 7.14144 3.39526C7.14144 3.89526 7.05477 4.31193 6.88144 4.64526C6.70811 4.9786 6.46477 5.23856 6.15144 5.42523C5.83144 5.6119 5.45477 5.74526 5.02144 5.82526C4.58144 5.90526 4.09811 5.94525 3.57144 5.94525ZM3.57144 1.86523C3.21144 1.86523 2.86811 1.88195 2.54144 1.91528C2.21477 1.94862 1.92477 2.01523 1.67144 2.11523C1.41811 2.20857 1.22144 2.35858 1.08144 2.56525C0.934772 2.77191 0.861439 3.0486 0.861439 3.39526C0.861439 3.74193 0.934772 4.01861 1.08144 4.22528C1.22144 4.43195 1.41811 4.58524 1.67144 4.68524C1.92477 4.78524 2.21477 4.85192 2.54144 4.88525C2.86811 4.91192 3.21144 4.92523 3.57144 4.92523C3.95144 4.92523 4.30477 4.91192 4.63144 4.88525C4.95811 4.85192 5.24477 4.78524 5.49144 4.68524C5.73811 4.58524 5.93144 4.43195 6.07144 4.22528C6.21144 4.01861 6.28144 3.74193 6.28144 3.39526C6.28144 3.0486 6.21144 2.77191 6.07144 2.56525C5.93144 2.35858 5.73811 2.20857 5.49144 2.11523C5.24477 2.01523 4.95811 1.94862 4.63144 1.91528C4.30477 1.88195 3.95144 1.86523 3.57144 1.86523Z" fill="#808C98"/>
<path d="M10.0714 3.90143L10.0714 2.90143L16.0714 2.90143L16.0714 3.90143L10.0714 3.90143Z" fill="#B3BAC2"/>
</svg>
