<svg width="30" height="30" viewBox="0 0 30 30" fill="none" xmlns="http://www.w3.org/2000/svg">
<path d="M15 30C17.9667 30 20.8668 29.1203 23.3335 27.472C25.8003 25.8238 27.7229 23.4811 28.8582 20.7403C29.9935 17.9994 30.2906 14.9834 29.7118 12.0736C29.133 9.16393 27.7044 6.49119 25.6066 4.3934C23.5088 2.29562 20.8361 0.867006 17.9263 0.288227C15.0166 -0.29055 12.0006 0.00649834 9.25974 1.14181C6.51885 2.27713 4.17618 4.19971 2.52795 6.66645C0.879734 9.13319 -1.90735e-06 12.0333 -1.90735e-06 15C0.00429916 18.9769 1.58603 22.7897 4.39815 25.6019C7.21026 28.414 11.0231 29.9957 15 30V30ZM15 7.5C15.2472 7.5 15.4889 7.57331 15.6945 7.71067C15.9 7.84802 16.0602 8.04324 16.1548 8.27165C16.2495 8.50006 16.2742 8.75139 16.226 8.99387C16.1777 9.23634 16.0587 9.45907 15.8839 9.63389C15.7091 9.8087 15.4863 9.92775 15.2439 9.97599C15.0014 10.0242 14.75 9.99946 14.5216 9.90485C14.2932 9.81024 14.098 9.65003 13.9607 9.44447C13.8233 9.2389 13.75 8.99723 13.75 8.75C13.75 8.41848 13.8817 8.10054 14.1161 7.86612C14.3505 7.6317 14.6685 7.5 15 7.5ZM15 12.5C15.3315 12.5 15.6495 12.6317 15.8839 12.8661C16.1183 13.1005 16.25 13.4185 16.25 13.75V21.25C16.25 21.5815 16.1183 21.8995 15.8839 22.1339C15.6495 22.3683 15.3315 22.5 15 22.5C14.6685 22.5 14.3505 22.3683 14.1161 22.1339C13.8817 21.8995 13.75 21.5815 13.75 21.25L13.75 13.75C13.75 13.4185 13.8817 13.1005 14.1161 12.8661C14.3505 12.6317 14.6685 12.5 15 12.5Z" fill="#227AFF"/>
</svg>
