<svg xmlns="http://www.w3.org/2000/svg" width="22" height="40" viewBox="0 0 22 40" fill="none"><path fill-rule="evenodd" clip-rule="evenodd" d="M21.84 29.08C21.84 31.0533 21.3467 32.88 20.36 34.56C19.3733 36.24 18.0467 37.5667 16.38 38.54C14.7133 39.5133 12.8933 40 10.92 40C8.94666 40 7.12668 39.5133 5.46 38.54C3.79332 37.5667 2.46667 36.24 1.48 34.56C0.493328 32.88 0 31.0533 0 29.08V10.92C0 8.94666 0.493328 7.12001 1.48 5.44C2.46667 3.75999 3.79332 2.43334 5.46 1.46C7.12668 0.486662 8.94666 0 10.92 0C12.8933 0 14.7133 0.486662 16.38 1.46C18.0467 2.43334 19.3733 3.75999 20.36 5.44C21.3467 7.12001 21.84 8.94666 21.84 10.92V29.08ZM20.36 29.08V10.92C20.36 9.21332 19.94 7.63334 19.1 6.18C18.26 4.72666 17.1133 3.57334 15.66 2.72C14.2067 1.86666 12.6267 1.44 10.92 1.44C9.21332 1.44 7.63334 1.86666 6.18 2.72C4.72666 3.57334 3.58 4.72666 2.74 6.18C1.9 7.63334 1.48 9.21332 1.48 10.92V29.08C1.48 30.7867 1.9 32.3667 2.74 33.82C3.58 35.2733 4.72666 36.42 6.18 37.26C7.63334 38.1 9.21332 38.52 10.92 38.52C12.6267 38.52 14.2067 38.1 15.66 37.26C17.1133 36.42 18.26 35.2733 19.1 33.82C19.94 32.3667 20.36 30.7867 20.36 29.08ZM13.76 7.2C13.76 7.97334 13.48 8.64 12.92 9.2C12.36 9.76 11.6933 10.04 10.92 10.04C10.1467 10.04 9.48 9.76 8.92 9.2C8.36 8.64 8.08 7.96667 8.08 7.18C8.08 6.39333 8.36 5.72667 8.92 5.18C9.48 4.63333 10.1467 4.36 10.92 4.36C11.6933 4.36 12.36 4.63333 12.92 5.18C13.48 5.72667 13.76 6.4 13.76 7.2ZM13 12.64C13 13.2 12.7933 13.6867 12.38 14.1C11.9667 14.5133 11.48 14.72 10.92 14.72C10.36 14.72 9.87334 14.5133 9.46 14.1C9.04666 13.6867 8.84667 13.2 8.86 12.64C8.87333 12.08 9.08 11.6 9.48 11.2C9.88 10.8 10.36 10.6 10.92 10.6C11.48 10.6 11.96 10.8 12.36 11.2C12.76 11.6 12.9733 12.08 13 12.64ZM12.4 16.72C12.4 17.12 12.2533 17.4667 11.96 17.76C11.6667 18.0533 11.32 18.2 10.92 18.2C10.52 18.2 10.1733 18.0533 9.88 17.76C9.58667 17.4667 9.44 17.1133 9.44 16.7C9.44 16.2867 9.58667 15.94 9.88 15.66C10.1733 15.38 10.52 15.24 10.92 15.24C11.32 15.24 11.6667 15.38 11.96 15.66C12.2533 15.94 12.4 16.2933 12.4 16.72Z" fill="white"></path></svg>