<svg xmlns="http://www.w3.org/2000/svg" width="56" height="56" viewBox="0 0 56 56" fill="none"><circle cx="28" cy="28.0001" r="28" fill="#59B4E9" fill-opacity="0.1"></circle><g clip-path="url(#clip0_315_1156)"><path d="M15.8401 26.0801C15.8401 21.2529 15.8401 18.8393 17.3397 17.3397C18.8393 15.8401 21.2529 15.8401 26.0801 15.8401H28.6401C33.4672 15.8401 35.8809 15.8401 37.3804 17.3397C38.8801 18.8393 38.8801 21.2529 38.8801 26.0801V28.6401C38.8801 33.4672 38.8801 35.8809 37.3804 37.3804C35.8809 38.8801 33.4672 38.8801 28.6401 38.8801H26.0801C21.2529 38.8801 18.8393 38.8801 17.3397 37.3804C15.8401 35.8809 15.8401 33.4672 15.8401 28.6401V26.0801Z" stroke="#59B4E9" stroke-width="1.25" stroke-linecap="round"></path><path d="M24.8 32.4801L30.295 26.9852C30.7948 26.4853 31.6053 26.4853 32.1051 26.9852L35.68 30.5601M24.8 32.4801L26.08 33.7601M24.8 32.4801L22.5051 30.1852C22.0053 29.6853 21.1948 29.6853 20.6949 30.1852L19.04 31.8401M26.08 23.5201C26.08 24.934 24.9339 26.0801 23.52 26.0801C22.1062 26.0801 20.96 24.934 20.96 23.5201C20.96 22.1062 22.1062 20.9601 23.52 20.9601C24.9339 20.9601 26.08 22.1062 26.08 23.5201Z" stroke="#59B4E9" stroke-width="1.25" stroke-linecap="round"></path></g><defs><clipPath id="clip0_315_1156"><rect width="32" height="32" fill="white" transform="translate(12 12.0001)"></rect></clipPath></defs></svg>