<svg xmlns="http://www.w3.org/2000/svg" width="56" height="56" viewBox="0 0 56 56" fill="none"><circle cx="28" cy="28.0001" r="28" fill="#59B4E9" fill-opacity="0.1"></circle><path d="M23.9127 34.1355C25.1823 35.7031 26.8243 36.5547 28.6653 37.0236C29.6648 37.2785 32.2507 36.8428 32.916 37.4276C34.3176 38.6977 35.9257 39.5012 37.7119 39.9065C37.8744 39.9431 38.0409 39.9664 38.2055 39.9919C38.414 40.0247 38.5847 39.9627 38.6917 39.7527C38.798 39.5427 38.7593 39.3517 38.6267 39.1781C38.4723 38.9769 38.3152 38.7772 38.1467 38.592C37.6569 38.0563 37.2692 37.4261 37.0012 36.7376C36.8091 36.2439 37.0237 35.7087 37.4439 35.3859C37.5327 35.3176 37.6204 35.248 37.7065 35.176C38.5103 34.5104 39.1779 33.7141 39.5869 32.7021C40.2511 31.0615 40.1015 29.4779 39.2307 27.9721C38.548 26.7915 37.6152 25.9451 36.5224 25.3335M18.2935 27.176C18.3796 27.248 18.4673 27.3176 18.5561 27.3859C18.9763 27.7087 19.1909 28.2439 18.9987 28.7376C18.7309 29.4261 18.343 30.0563 17.8534 30.592C17.6848 30.7772 17.5277 30.9769 17.3733 31.1781C17.2406 31.3517 17.202 31.5428 17.3083 31.7527C17.4153 31.9627 17.5859 32.0247 17.7945 31.9919C17.959 31.9664 18.1256 31.9431 18.2881 31.9065C20.0743 31.5012 21.6824 30.6977 23.084 29.4276C23.7493 28.8428 26.3352 29.2785 27.3347 29.0236C29.1757 28.5547 30.8177 27.7031 32.0872 26.1355C33.654 24.2003 33.7536 21.5901 32.3276 19.5484C31.3331 18.1259 29.9911 17.2341 28.4513 16.6785C25.8193 15.7285 23.1862 15.7795 20.5834 16.8112C19.0131 17.4332 17.6725 18.4103 16.7693 19.9721C15.8985 21.4779 15.7489 23.0615 16.4131 24.7021C16.8221 25.7141 17.4898 26.5104 18.2935 27.176Z" stroke="#59B4E9" stroke-width="1.25" stroke-linecap="round"></path></svg>