<svg width="10" height="10" viewBox="0 0 10 10" fill="none" xmlns="http://www.w3.org/2000/svg">
<path opacity="0.5" d="M9.51946 0.492675C9.33965 0.312919 9.09581 0.211938 8.84156 0.211938C8.58731 0.211938 8.34347 0.312919 8.16366 0.492675L5.00619 3.65014L1.84872 0.492675C1.76027 0.401095 1.65447 0.328049 1.53749 0.277797C1.4205 0.227545 1.29468 0.201094 1.16737 0.199987C1.04005 0.198881 0.913795 0.223141 0.795957 0.271353C0.678118 0.319564 0.571062 0.390761 0.481034 0.480789C0.391005 0.570818 0.319808 0.677874 0.271597 0.795713C0.223385 0.913551 0.199125 1.03981 0.200232 1.16713C0.201338 1.29444 0.227789 1.42026 0.278041 1.53724C0.328293 1.65422 0.40134 1.76003 0.492919 1.84848L3.65039 5.00594L0.492919 8.16341C0.40134 8.25186 0.328293 8.35767 0.278041 8.47465C0.227789 8.59163 0.201338 8.71745 0.200232 8.84476C0.199125 8.97208 0.223385 9.09834 0.271597 9.21618C0.319808 9.33401 0.391005 9.44107 0.481034 9.5311C0.571062 9.62113 0.678118 9.69232 0.795957 9.74054C0.913795 9.78875 1.04005 9.81301 1.16737 9.8119C1.29468 9.8108 1.4205 9.78434 1.53749 9.73409C1.65447 9.68384 1.76027 9.61079 1.84872 9.51921L5.00619 6.36175L8.16366 9.51921C8.3445 9.69388 8.5867 9.79052 8.83811 9.78834C9.08951 9.78615 9.33 9.68531 9.50778 9.50753C9.68556 9.32976 9.7864 9.08927 9.78858 8.83786C9.79077 8.58646 9.69412 8.34425 9.51946 8.16341L6.36199 5.00594L9.51946 1.84848C9.69921 1.66867 9.80019 1.42483 9.80019 1.17058C9.80019 0.916325 9.69921 0.672484 9.51946 0.492675Z" fill="#1D2327"/>
</svg>
