<svg width="38" height="28" viewBox="0 0 38 28" fill="none" xmlns="http://www.w3.org/2000/svg">
    <g clip-path="url(#clip0_10287_921541)">
        <path d="M9.7075 6.92516H4.3925C2.115 6.92516 0.25 8.80766 0.25 11.0877V16.9102C0.25 19.1902 2.115 21.0714 4.3925 21.0714H9.7075C12.0225 24.7902 15.855 27.3227 20.255 27.5864C20.9462 27.6252 21.5338 27.0964 21.5737 26.4077C21.5763 18.1639 21.5763 9.90641 21.5763 1.65766C21.5738 0.967659 21.015 0.408908 20.29 0.410158C15.8575 0.676408 12.0225 3.21016 9.7075 6.92516ZM19.0763 3.33641V24.6527C15.82 24.0277 12.895 22.2227 11.305 19.2364C11.0875 18.8264 10.66 18.5714 10.1962 18.5714H4.3925C3.4625 18.5714 2.75 17.8552 2.75 16.9114V11.0877C2.75 10.1427 3.4625 9.42641 4.3925 9.42641H10.205C10.6687 9.42766 11.0962 9.17141 11.3137 8.76266C12.9012 5.77766 15.8213 3.96391 19.0763 3.33641ZM31.0238 13.9964C31.0238 11.0864 28.6437 8.69891 25.7375 8.69891C25.0437 8.69891 24.485 9.25891 24.485 9.94891C24.485 10.6389 25.0437 11.1989 25.7375 11.1989C27.29 11.1989 28.5238 12.4339 28.5238 13.9952C28.5238 15.5552 27.2912 16.7914 25.7375 16.7914C25.0437 16.7914 24.485 17.3502 24.485 18.0414C24.485 18.7314 25.0438 19.2914 25.735 19.2927C28.6438 19.2914 31.0238 16.9027 31.0238 13.9964ZM27.8575 4.84391C27.8913 5.40891 28.3012 5.88141 28.8587 5.99391C32.5112 6.80766 35.25 10.0614 35.25 13.9852C35.25 17.9364 32.4712 21.2189 28.7825 22.0039C28.1063 22.1477 27.6737 22.8114 27.8188 23.4877C27.9638 24.1639 28.6262 24.5939 29.305 24.4514C34.1362 23.4239 37.75 19.1114 37.75 13.9864C37.75 8.89516 34.1825 4.61391 29.2175 3.53641C28.3438 3.56266 27.8162 4.15516 27.86 4.84391H27.8575Z"/>
    </g>
    <defs>
        <clipPath id="clip0_10287_921541">
            <rect width="38" height="28" fill="white"/>
        </clipPath>
    </defs>
</svg>
